<svg id="Artwork" xmlns="http://www.w3.org/2000/svg" xmlns:xlink="http://www.w3.org/1999/xlink" viewBox="0 0 310.62 276.36">
  <defs>
    <style>
      .cls-1 {
        fill: none;
      }

      .cls-2, .cls-4 {
        fill: #ffd200;
      }

      .cls-2 {
        stroke: #fff;
        stroke-miterlimit: 10;
        stroke-width: 12.27px;
      }

      .cls-3 {
        fill: #003088;
      }

      .cls-5 {
        fill: #5767ac;
      }

      .cls-6 {
        fill: #fff;
      }

      .cls-7 {
        clip-path: url(#clip-path);
      }

      .cls-8 {
        fill: url(#New_Gradient_Swatch_2);
      }

      .cls-9 {
        clip-path: url(#clip-path-2);
      }

      .cls-10 {
        fill: url(#New_Gradient_Swatch_2-2);
      }

      .cls-11 {
        clip-path: url(#clip-path-3);
      }

      .cls-12 {
        fill: url(#New_Gradient_Swatch_2-3);
      }

      .cls-13 {
        clip-path: url(#clip-path-4);
      }

      .cls-14 {
        fill: url(#New_Gradient_Swatch_2-4);
      }

      .cls-15 {
        clip-path: url(#clip-path-5);
      }

      .cls-16 {
        fill: url(#New_Gradient_Swatch_2-5);
      }
    </style>
    <clipPath id="clip-path" transform="translate(-162.39 -73.23)">
      <path id="_Compound_Clipping_Path_" data-name="&lt;Compound Clipping Path&gt;" class="cls-1" d="M225.59,178.15l3,0.88-0.37,1.87c-0.09.49-9.14,46.33-10.58,75.89a119.19,119.19,0,0,1,12.54-6.63c13.53-6.47,27.49-13.19,35.55-33.37l-11.42-16.64c-0.92.32-7.28,2.66-7.28,2.66l3.36-4.94a82,82,0,0,0,8.84-19.14A77.33,77.33,0,0,0,262,166c-15.49,1-30,8.37-36.46,12.14m8.77,20.06,2.53-16.05,0.64-.36a28.76,28.76,0,0,1,10.81-3.35l2.44-.14L250.1,181c-3,12.11-12.84,19-13.25,19.34l-3.16,2.22ZM230.24,232l3-20.81,0.92-.24c4.65-1.25,10.08-5.47,10.13-5.51l1.21-1,8.23,12.32-0.51,1c-0.21.44-5.54,11.09-20.8,16.41l-2.62.91Z"/>
    </clipPath>
    <linearGradient id="New_Gradient_Swatch_2" data-name="New Gradient Swatch 2" x1="-174.13" y1="1065.26" x2="-173.43" y2="1065.26" gradientTransform="matrix(11.42, 52.86, 44.72, -8.3, -45578.39, 18157.37)" gradientUnits="userSpaceOnUse">
      <stop offset="0" stop-color="#fff"/>
      <stop offset="0.21" stop-color="#fbfcfd"/>
      <stop offset="0.4" stop-color="#f1f1f8"/>
      <stop offset="0.58" stop-color="#dee0ef"/>
      <stop offset="0.76" stop-color="#c5c8e2"/>
      <stop offset="0.93" stop-color="#a4a9d1"/>
      <stop offset="1" stop-color="#949ac9"/>
    </linearGradient>
    <clipPath id="clip-path-2" transform="translate(-162.39 -73.23)">
      <path id="_Compound_Clipping_Path_2" data-name="&lt;Compound Clipping Path&gt;" class="cls-1" d="M286.06,181.8s-0.47,1-.64,1.39c2.71-1.2,7.61-2.65,12-.17,0.71-3.42,2.83-13.66,3.8-18.35a39.93,39.93,0,0,0-15.19,17.13m-14-3.09,1.82,1.31-1.3,36.06s0,4-.07,7l10.93-5.94L281.72,216s0.57-20.3.74-26.32l-0.38.84s1.1-14.67,1.35-18C280.24,174.24,274.89,177.17,272.06,178.71Z"/>
    </clipPath>
    <linearGradient id="New_Gradient_Swatch_2-2" x1="-175.12" y1="1068.26" x2="-174.41" y2="1068.26" gradientTransform="matrix(14.64, 47.97, 46.99, -13.85, -47520.97, 23302.77)" xlink:href="#New_Gradient_Swatch_2"/>
    <clipPath id="clip-path-3" transform="translate(-162.39 -73.23)">
      <path id="_Clipping_Path_" data-name="&lt;Clipping Path&gt;" class="cls-1" d="M335.26,148.6a101.11,101.11,0,0,0-8.1,18.41c-1,3.25-1.27,5.74-.58,6.75a24.53,24.53,0,0,0,4,4.18c3.41,3.09,7.26,6.59,5.72,12.65,0,0.12-.07.23-0.09,0.35-1.33,4.48-7.76,16.4-11.69,23.49,5.87-3.31,14.86-8.41,15.45-8.73a93.86,93.86,0,0,0,8.25-18.63c1.52-5.1,1.89-9.37.09-11.11l-3.61-3.32c-4.55-4.05-8.14-7.26-6.76-12a1.28,1.28,0,0,0,.08-0.24c1.65-5,7.06-13.46,11-19.21l-13.71,7.4"/>
    </clipPath>
    <linearGradient id="New_Gradient_Swatch_2-3" x1="-175.13" y1="1067.87" x2="-174.42" y2="1067.87" gradientTransform="matrix(14.64, 47.96, 46.99, -13.85, -47441.33, 23278.72)" xlink:href="#New_Gradient_Swatch_2"/>
    <clipPath id="clip-path-4" transform="translate(-162.39 -73.23)">
      <path id="_Clipping_Path_2" data-name="&lt;Clipping Path&gt;" class="cls-1" d="M388.57,124.48L370.95,151s4.27-29.23,5-34.34l-14.11,6.47,2.77,1.82-8.42,61.92,11.3-5c0.23-1.76,3.66-27.28,3.66-27.28s22.88,32.6,24.42,34.78l12.49-5.9c-2.11-2.88-21.81-30.14-23.2-32-0.79.31-6.84,2.79-6.84,2.79l23.87-36.11-13.33,6.32"/>
    </clipPath>
    <linearGradient id="New_Gradient_Swatch_2-4" x1="-175.18" y1="1067.33" x2="-174.47" y2="1067.33" gradientTransform="matrix(14.64, 47.96, 46.99, -13.85, -47370.5, 23260.89)" xlink:href="#New_Gradient_Swatch_2"/>
    <clipPath id="clip-path-5" transform="translate(-162.39 -73.23)">
      <path id="_Compound_Clipping_Path_3" data-name="&lt;Compound Clipping Path&gt;" class="cls-1" d="M310,161.2c-0.18,1.77-4.55,45-4.55,45l-1.33,2.51,11.56-5.63c0.15-1.71,3.76-41.52,4.25-46.91Z"/>
    </clipPath>
    <linearGradient id="New_Gradient_Swatch_2-5" x1="-175.24" y1="1067.91" x2="-174.54" y2="1067.91" gradientTransform="matrix(14.64, 47.96, 46.99, -13.85, -47461.81, 23290.53)" xlink:href="#New_Gradient_Swatch_2"/>
  </defs>
  <title>brisk-half-and-half_logo</title>
  <g>
    <path class="cls-2" d="M421.31,109.94L436.09,87.8l-47.77,21.84,1.54-10-34.32,15.49h0l-0.35.17L340.28,122l8.45,5.62-20.52,9.65-55.4,25.26,0.77-7.23-10.12.21c-24.69.53-47,15.45-47.9,16.07L200.1,182.07l15.67,4.72-0.35,1.9,0.23-.61L172.18,337.86l120.16-59.81-11,20.84L433.8,225.14,464.34,91.53Z" transform="translate(-162.39 -73.23)"/>
    <polygon class="cls-3" points="140.24 199.76 9.79 264.63 53.25 114.85 182.6 56.37 174.44 146.04 140.24 199.76"/>
    <g>
      <polygon class="cls-4" points="301.95 18.3 219.16 54.89 175.88 123.07 170.31 132.4 166.15 143.11 118.96 225.65 271.41 151.9 301.95 18.3"/>
      <g id="_Group_" data-name="&lt;Group&gt;">
        <g id="_Group_2" data-name="&lt;Group&gt;">
          <g id="_Group_3" data-name="&lt;Group&gt;">
            <path class="cls-3" d="M208.16,285.55l120.2-61.65,19.18-9.39,1.22-2.07a129.81,129.81,0,0,0,6.32-12.51l22.24-9.66,0.89-6.43,14,20.13,32.32-15-29-40.35L436.09,87.8l-47.77,21.84,1.54-10-34.32,15.49h0l-0.35.17L340.28,122l8.45,5.62-76,35.73,0.86-8.05-10.12.21c-24.69.53-47,15.45-47.9,16.07L200.1,182.07l15.67,4.72c-2.93,15.55-9,50.23-9.8,73.64l-0.53,16Z" transform="translate(-162.39 -73.23)"/>
            <path id="_Compound_Path_" data-name="&lt;Compound Path&gt;" class="cls-5" d="M268.67,218.58L256,199.89l-3.08,1.1a83.32,83.32,0,0,0,12.46-34.85c-22.17.43-42.71,14.38-42.71,14.38l5.43,1.65s-10.14,49.77-11.1,79.44c15.56-11.24,40.12-13.06,51.7-43M237.27,200.5l2.46-15.13a27.58,27.58,0,0,1,10.2-3.12C247,193.84,237.27,200.5,237.27,200.5ZM253,218.64s-5.12,10.39-20,15.47l2.91-19.6c5-1.3,10.6-5.67,10.6-5.67Z" transform="translate(-162.39 -73.23)"/>
            <path id="_Path_" data-name="&lt;Path&gt;" class="cls-5" d="M272.15,217.63L272,227.56l16.09-8.63-3.4-2.14,1-29.2s8.53-5.35,14.24.31l5.21-24.46a40.57,40.57,0,0,0-19.2,19.48l0.91-11.53-16.54,8.91,3.29,2.39-1.42,34.94" transform="translate(-162.39 -73.23)"/>
            <path id="_Compound_Path_2" data-name="&lt;Compound Path&gt;" class="cls-5" d="M309.61,161.92l13.59-6.77-4.9,51.21L301,214.69l3.76-7,4.85-45.82" transform="translate(-162.39 -73.23)"/>
            <path id="_Path_2" data-name="&lt;Path&gt;" class="cls-5" d="M335.33,149.59s-12.43,22-8.9,27.26,11.23,8,9.32,15.37c-1.48,5.71-14.76,28.69-14.76,28.69L342.23,209S357.3,183.45,350.6,177c-6.11-5.93-11.28-9-9.71-13.72,2.57-7.69,15.05-24.61,15.05-24.61l-20.6,11" transform="translate(-162.39 -73.23)"/>
            <polyline id="_Path_3" data-name="&lt;Path&gt;" class="cls-5" points="197.29 52.12 201.72 55.08 192.75 118.67 207.71 112.19 211.02 88.38 233.58 120.77 249.22 113.49 224.18 78.67 221.34 79.82 245.6 43.52 226.25 52.55 212.57 72.91 217.06 43.2 197.29 52.12"/>
            <path id="_Compound_Path_3" data-name="&lt;Compound Path&gt;" class="cls-6" d="M267.78,216.29L255.07,197.6,252,198.7a83.34,83.34,0,0,0,12.44-34.86c-22.15.44-42.69,14.39-42.69,14.39l5.42,1.64S217,229.66,216.06,259.31c15.57-11.24,40.15-13.06,51.73-43m-31.41-18.08,2.46-15.13A27.51,27.51,0,0,1,249,180C246.06,191.54,236.37,198.21,236.37,198.21Zm15.71,18.14s-5.11,10.38-20,15.47l2.9-19.61c5-1.3,10.6-5.68,10.6-5.68Z" transform="translate(-162.39 -73.23)"/>
            <path id="_Path_4" data-name="&lt;Path&gt;" class="cls-6" d="M271.09,215.59l-0.15,9.94L287,216.89l-3.39-2.12,1-29.2s8.54-5.35,14.25.29l5.2-24.44a40.59,40.59,0,0,0-19.2,19.47l0.91-11.51-16.53,8.89,3.29,2.38-1.43,35" transform="translate(-162.39 -73.23)"/>
            <path id="_Compound_Path_4" data-name="&lt;Compound Path&gt;" class="cls-6" d="M308.56,159.9l13.58-6.78-4.9,51.21-17.31,8.33,3.76-7,4.86-45.81" transform="translate(-162.39 -73.23)"/>
            <path id="_Path_5" data-name="&lt;Path&gt;" class="cls-6" d="M334.29,147.56s-12.45,22-8.92,27.26,11.24,8,9.34,15.37c-1.5,5.72-14.77,28.67-14.77,28.67L341.18,207s15.06-25.57,8.37-32.07c-6.11-5.93-11.29-9-9.71-13.72,2.57-7.69,15-24.61,15-24.61l-20.58,11" transform="translate(-162.39 -73.23)"/>
            <polyline id="_Path_6" data-name="&lt;Path&gt;" class="cls-6" points="196.23 50.1 200.66 53.05 191.7 116.64 206.65 110.15 209.96 86.35 232.51 118.74 248.15 111.46 223.12 76.65 220.27 77.79 244.54 41.48 225.2 50.52 211.5 70.88 216.01 41.17 196.23 50.1"/>
            <g id="_Clip_Group_" data-name="&lt;Clip Group&gt;">
              <g class="cls-7">
                <polygon id="_Path_7" data-name="&lt;Path&gt;" class="cls-8" points="112.07 75.91 135.58 184.7 45.86 201.36 22.36 92.57 112.07 75.91"/>
              </g>
            </g>
            <g id="_Clip_Group_2" data-name="&lt;Clip Group&gt;">
              <g class="cls-9">
                <polygon id="_Path_8" data-name="&lt;Path&gt;" class="cls-10" points="136.31 78.6 156.08 143.37 101.69 159.4 81.91 94.63 136.31 78.6"/>
              </g>
            </g>
            <g id="_Clip_Group_3" data-name="&lt;Clip Group&gt;">
              <g class="cls-11">
                <polygon id="_Path_9" data-name="&lt;Path&gt;" class="cls-12" points="194.27 58 217.29 133.41 155.74 151.56 132.71 76.14 194.27 58"/>
              </g>
            </g>
            <g id="_Clip_Group_4" data-name="&lt;Clip Group&gt;">
              <g class="cls-13">
                <polygon id="_Path_10" data-name="&lt;Path&gt;" class="cls-14" points="247.78 21.52 275.79 113.26 190.32 138.45 162.31 46.71 247.78 21.52"/>
              </g>
            </g>
            <g id="_Clip_Group_5" data-name="&lt;Clip Group&gt;">
              <g class="cls-15">
                <polygon id="_Path_11" data-name="&lt;Path&gt;" class="cls-16" points="168.19 56.98 189.5 126.77 133.78 143.2 112.47 73.4 168.19 56.98"/>
              </g>
            </g>
          </g>
        </g>
        <g id="_Group_4" data-name="&lt;Group&gt;">
          <path class="cls-3" d="M424.16,174.58a6.14,6.14,0,1,0-5.32,8.8,6.35,6.35,0,0,0,2.47-.61A6.13,6.13,0,0,0,424.16,174.58Z" transform="translate(-162.39 -73.23)"/>
          <g>
            <path class="cls-6" d="M422.56,175.34a4.36,4.36,0,0,0-4.08-2.45,4.45,4.45,0,0,0-1.74.43,4.37,4.37,0,0,0-2.05,5.82,4.39,4.39,0,0,0,4.09,2.46,4.52,4.52,0,0,0,1.77-.44,4.3,4.3,0,0,0,2.21-2.48A4.37,4.37,0,0,0,422.56,175.34Zm-6.94,3.36a3.32,3.32,0,0,1,1.55-4.48,3.4,3.4,0,0,1,1.36-.34,3.37,3.37,0,0,1,1.57,6.39,3.48,3.48,0,0,1-1.34.33A3.33,3.33,0,0,1,415.62,178.7Z" transform="translate(-162.39 -73.23)"/>
            <path class="cls-6" d="M418.18,177.93l0.57-.27,2,1.26a0.25,0.25,0,0,0,.25,0l0.6-.29a0.26,0.26,0,0,0,.14-0.22,0.26,0.26,0,0,0-.12-0.23l-1.8-1.1a1.48,1.48,0,0,0-.61-2.68,2.48,2.48,0,0,0-1.24.31l-1.8.89a0.25,0.25,0,0,0-.11.34l2,4.13a0.25,0.25,0,0,0,.14.13h0.1l0.1,0,0.51-.25a0.27,0.27,0,0,0,.13-0.15,0.25,0.25,0,0,0,0-.19Zm1.14-2.24a0.51,0.51,0,0,1,.06.4,1.68,1.68,0,0,1-.88.64l-0.72.34-0.49-1,0.94-.46a2,2,0,0,1,.66-0.2A0.43,0.43,0,0,1,419.31,175.7Z" transform="translate(-162.39 -73.23)"/>
          </g>
        </g>
      </g>
      <path class="cls-6" d="M313,252.59L310,250.36l0.43-7.57,2.1-2.87,0.68-.32-1.12-1.38,2-5.95,14.31-6.83-3,7.22,3.77-1.8-1.47,6.92-1.13,1.88,0.26,0.25,0.31-.15,4-3.61-1.51,8.42-7.75,3.7-0.64-.51-1.5,1.61ZM323.07,236l0-.08,0.22-1.84-1.39.7Z" transform="translate(-162.39 -73.23)"/>
      <path class="cls-6" d="M331.46,254.53a12.06,12.06,0,0,0,.76-4.14l0.88-16.45c0.13-2.3-.09-2.82-0.28-3.29l-0.58-1.4,14-6.88h0l13.47-6.63-1.41,3.8a12.37,12.37,0,0,0-.77,4.15l-0.88,16.44c-0.12,2.31.1,2.83,0.28,3.29l0.58,1.4-14,6.87L330,258.34Zm11.72-7.77c-0.12,2.31.09,2.84,0.28,3.29l0.37,0.89,1.12-3a12.09,12.09,0,0,0,.77-4.15l0.21-3.82-2.43,1.2Zm1.66-20.59a12.16,12.16,0,0,0-.77,4.14l-0.16,3,2.44-1.2,0.25-4.77c0.13-2.3-.09-2.83-0.28-3.29l-0.36-.87Z" transform="translate(-162.39 -73.23)"/>
      <path class="cls-6" d="M356.11,242.27a37.13,37.13,0,0,0,2.47-5.48l8.09-21.86-1.53-1.84,12.66-6.21,6.63,19.81a4.82,4.82,0,0,0,1.16,1.9l1.73,1.6-16,7.85,1.46-3.84a4,4,0,0,0,.42-1.38,3.72,3.72,0,0,0-.09-1.12l-0.34-.95L366.13,234l-1.32,3.51a3.93,3.93,0,0,0-.26,1.15,3,3,0,0,0,0,.46,1.44,1.44,0,0,1,.16.25l0.83,1.49-11.69,5.75Zm13.39-17.53,1.13-.56-0.46-1.33Z" transform="translate(-162.39 -73.23)"/>
      <path class="cls-6" d="M385.38,228a11.9,11.9,0,0,0,.77-4.14L387,207.44c0.12-2.31-.09-2.83-0.28-3.29l-0.58-1.4,14-6.88-1.42,3.81a12.13,12.13,0,0,0-.77,4.14l-0.75,13.84,4-2a9.56,9.56,0,0,0,2.83-2l3.91-4.77-2.15,12.18L384,231.83Z" transform="translate(-162.39 -73.23)"/>
      <path class="cls-6" d="M406,217.9a12,12,0,0,0,.77-4.14l0.88-16.44c0.12-2.31-.09-2.83-0.28-3.29l-0.58-1.4,21-10.34,0.64,8.48-1,.1-0.16,3.47L427,201.17l-1.36.15a7.26,7.26,0,0,0-2.76.81L418,204.51l-0.31,5.63c-0.12,2.31.09,2.83,0.28,3.29l0.58,1.4-14,6.88Zm12.45-21.25,3-1.49a13.1,13.1,0,0,0,3.15-2.13l2.49-2.13-0.2,0a6.91,6.91,0,0,0-2.71.8l-5.64,2.77Z" transform="translate(-162.39 -73.23)"/>
      <path class="cls-6" d="M213.22,295.94a12,12,0,0,0,.77-4.14l0.89-16.44c0.12-2.31-.09-2.83-0.28-3.28l-0.58-1.4,14-6.89,13.48-6.62L240.09,261a12.1,12.1,0,0,0-.77,4.14l-0.89,16.45c-0.12,2.31.09,2.83,0.28,3.29l0.58,1.4-27.48,13.5Zm11.72-7.76c-0.13,2.31.09,2.83,0.28,3.28l0.36,0.87,1.12-3a12,12,0,0,0,.77-4.14l0.21-3.82-2.44,1.2Zm1.65-20.58a12,12,0,0,0-.77,4.14l-0.16,3,2.43-1.19,0.26-4.77c0.13-2.31-.09-2.83-0.28-3.29l-0.36-.86Z" transform="translate(-162.39 -73.23)"/>
      <path class="cls-6" d="M237.88,283.68a37,37,0,0,0,2.47-5.49l8.09-21.86-1.53-1.83,12.66-6.22,6.64,19.82a4.8,4.8,0,0,0,1.16,1.9l1.72,1.6-16,7.84,1.46-3.84a3.93,3.93,0,0,0,.43-1.37,3.68,3.68,0,0,0-.09-1.12l-0.34-1-6.68,3.29L246.58,279a3.82,3.82,0,0,0-.27,1.14,4.39,4.39,0,0,0,0,.46,1.37,1.37,0,0,1,.16.25l0.83,1.49-11.69,5.75Zm13.4-17.53,1.13-.56-0.46-1.33Z" transform="translate(-162.39 -73.23)"/>
      <path class="cls-6" d="M267.15,269.44a11.92,11.92,0,0,0,.77-4.14l0.89-16.45c0.13-2.31-.09-2.83-0.28-3.29l-0.58-1.4,14-6.88-1.42,3.81a12,12,0,0,0-.77,4.14L279,259.07l4-2a9.55,9.55,0,0,0,2.83-2l3.91-4.76-2.15,12.17-21.85,10.74Z" transform="translate(-162.39 -73.23)"/>
      <path class="cls-6" d="M287.76,259.31a12.28,12.28,0,0,0,.76-4.14l0.89-16.44c0.12-2.31-.09-2.83-0.28-3.29l-0.58-1.4,21-10.34,0.64,8.48-1,.1-0.14,3.46-0.36,6.84-1.36.16a7.28,7.28,0,0,0-2.75.82l-4.82,2.36-0.31,5.63c-0.12,2.32.09,2.83,0.28,3.29l0.59,1.4-14,6.88Zm12.45-21.24,3-1.49a13.18,13.18,0,0,0,3.13-2.11l2.53-2.16-0.23,0a6.83,6.83,0,0,0-2.7.8l-5.64,2.77Z" transform="translate(-162.39 -73.23)"/>
      <g>
        <path class="cls-3" d="M347.91,233.12l0.31-5.71a8.17,8.17,0,0,0-.4-4l9-4.42a13.69,13.69,0,0,0-.86,4.62L355,240.05c-0.12,2.39.08,3.2,0.41,4l-9,4.42a13.77,13.77,0,0,0,.86-4.62l0.35-6.57-5.76,2.83-0.36,6.57c-0.13,2.39.07,3.2,0.4,4l-9,4.42a13.57,13.57,0,0,0,.86-4.62L334.72,234c0.14-2.39-.07-3.21-0.4-4l9-4.42a13.69,13.69,0,0,0-.87,4.62L342.14,236Z" transform="translate(-162.39 -73.23)"/>
        <path class="cls-3" d="M364.84,232.88L363.29,237a5.63,5.63,0,0,0-.37,1.63,2.07,2.07,0,0,0,.35,1.58L357.54,243a37.63,37.63,0,0,0,2.56-5.68l8.41-22.73-0.81-1,9.15-4.49,6.05,18.06a6.34,6.34,0,0,0,1.59,2.58l-10.16,5a5.23,5.23,0,0,0,.53-1.86,5,5,0,0,0-.18-1.74l-0.94-2.67Zm7.79-7.87-2.43-7-3.56,10Z" transform="translate(-162.39 -73.23)"/>
        <path class="cls-3" d="M401.94,217.16a11.1,11.1,0,0,0,3.36-2.46l-0.93,5.3-17.48,8.59a13.58,13.58,0,0,0,.87-4.61l0.88-16.45c0.13-2.39-.07-3.2-0.4-4l9-4.42a13.57,13.57,0,0,0-.87,4.62l-0.89,16.6Z" transform="translate(-162.39 -73.23)"/>
        <path class="cls-3" d="M416.1,210c-0.13,2.39.07,3.2,0.4,4l-9,4.42a13.59,13.59,0,0,0,.87-4.62l0.88-16.44a8.27,8.27,0,0,0-.4-4l17.54-8.62,0.34,4.52a8.6,8.6,0,0,0-3.44,1l-6.31,3.1-0.32,5.87,5.51-2.71a14.8,14.8,0,0,0,3.52-2.38l-0.29,5.48a8.91,8.91,0,0,0-3.45,1l-5.51,2.71Z" transform="translate(-162.39 -73.23)"/>
      </g>
      <g>
        <path class="cls-4" d="M229.67,274.53l0.31-5.72c0.13-2.39-.07-3.2-0.4-4l9-4.42a13.63,13.63,0,0,0-.86,4.61l-0.89,16.45c-0.12,2.39.08,3.21,0.4,4l-9,4.42a13.69,13.69,0,0,0,.86-4.62l0.36-6.57-5.76,2.83-0.36,6.58c-0.13,2.39.07,3.21,0.4,4l-9,4.42a13.6,13.6,0,0,0,.86-4.62l0.89-16.44c0.13-2.39-.07-3.2-0.4-4l9-4.43a13.61,13.61,0,0,0-.87,4.62l-0.31,5.71Z" transform="translate(-162.39 -73.23)"/>
        <path class="cls-4" d="M246.61,274.28l-1.55,4.12a5.56,5.56,0,0,0-.37,1.63,2.07,2.07,0,0,0,.35,1.58l-5.73,2.82a38.73,38.73,0,0,0,2.56-5.68L250.28,256l-0.81-1,9.15-4.5,6.06,18.06a6.38,6.38,0,0,0,1.59,2.57l-10.16,5a5.33,5.33,0,0,0,.53-1.86,5.08,5.08,0,0,0-.19-1.74l-0.94-2.67Zm7.79-7.86-2.43-7-3.56,10Z" transform="translate(-162.39 -73.23)"/>
        <path class="cls-4" d="M283.71,258.57a11.25,11.25,0,0,0,3.37-2.46l-0.93,5.3L268.66,270a13.64,13.64,0,0,0,.87-4.62l0.88-16.45c0.13-2.39-.07-3.2-0.4-4l9-4.42a13.63,13.63,0,0,0-.86,4.62l-0.9,16.6Z" transform="translate(-162.39 -73.23)"/>
        <path class="cls-4" d="M297.87,251.45c-0.13,2.39.07,3.21,0.41,4l-9,4.41a13.71,13.71,0,0,0,.86-4.61L291,238.81c0.13-2.39-.07-3.2-0.4-4l17.54-8.62,0.34,4.52a8.6,8.6,0,0,0-3.45,1l-6.3,3.1-0.31,5.87L304,238a15,15,0,0,0,3.51-2.37l-0.29,5.48a9,9,0,0,0-3.45,1l-5.51,2.71Z" transform="translate(-162.39 -73.23)"/>
      </g>
      <g>
        <polygon class="cls-3" points="166.47 167.04 165.63 167.79 164.17 168.49 162.28 166.68 163.91 163.97 164.68 160.31 162.4 161.4 162.2 163.14 160.97 165.28 159.52 163.71 156.36 170.09 157.41 171.16 156.41 172.33 154.89 173.05 153.24 176.4 156.43 174.88 158.69 172.46 159.69 173.24 165.88 170.29 166.47 167.04"/>
        <polygon class="cls-4" points="154.89 173.05 154.65 173.17 154.15 172.77 154.38 168.08 156.36 170.09 159.52 163.71 157.74 161.8 157.88 160.65 161.67 158.74 163.12 155.28 152.98 160.12 151.42 164.67 153.22 166.9 151.15 167.89 149.55 170.08 149.19 176.4 150.76 177.58 153.24 176.4 154.89 173.05"/>
      </g>
    </g>
  </g>
</svg>
