<svg id="Layer_1" data-name="Layer 1" xmlns="http://www.w3.org/2000/svg" viewBox="0 0 310.26 179.41">
  <defs>
    <style>
      .cls-1 {
        fill: #7dc57a;
      }

      .cls-2 {
        fill: #57a854;
      }

      .cls-3 {
        fill: #a9d69e;
      }
    </style>
  </defs>
  <title>lime</title>
  <g>
    <path class="cls-1" d="M1014.64,51.94c9.21-63.89,65.92-16.16,148.93-4.19s160.87-16.34,151.66,47.54-84,106-167,94S1005.43,115.82,1014.64,51.94Z" transform="translate(-1005.71 -19.37)"/>
    <path class="cls-2" d="M1304.67,117.79c-10.93,9-21.57,17.66-34,24.47A110.24,110.24,0,0,1,1236.47,154c-47.6,8.15-96.36-11.32-137.27-34-11.89-6.59-23.36-13.67-33.84-22.37s-20.5-18.33-30.17-28.07c-4.29-4.32-7.17-8.28-12.76-11.93,0.83,0.58-2.51-1.16-2.35-1.1l0,0a19.29,19.29,0,0,0-2,.21,15.76,15.76,0,0,1-2.08.43c-0.65.21-1.3,0.44-1.94,0.68-4.83,61.72,53.83,119.83,134.27,131.43,75.09,10.83,143.43-22.59,162.6-76.36Q1307.72,115.3,1304.67,117.79Z" transform="translate(-1005.71 -19.37)"/>
    <path class="cls-3" d="M1061.25,73.9c4.15-54.36,37.85-23.37,111.36-17.76s140-22.46,135.88,31.89-67.1,93.87-140.61,88.26S1057.11,128.25,1061.25,73.9Z" transform="translate(-1005.71 -19.37)"/>
    <path class="cls-1" d="M1174.81,61.56a6.78,6.78,0,0,0-4.86-1c-12.65,2.06-29.26,34-36.05,46.31-26.54,48.1-.45,56.31,37.31,56.31s21.26-34.53,15.83-63.1C1185,89.44,1183.05,66.74,1174.81,61.56Z" transform="translate(-1005.71 -19.37)"/>
    <path class="cls-1" d="M1148.4,69.65a4.83,4.83,0,0,0-1.51-3.2c-6.57-6.38-32-2.32-41.92-1-13.22,1.78-29.07.06-29.71,15.81-0.52,12.82,5.21,42.84,18.4,44.84,16,2.43,28.91-23.38,37.82-33C1136.75,87.37,1148.94,76.58,1148.4,69.65Z" transform="translate(-1005.71 -19.37)"/>
    <path class="cls-1" d="M1200.54,66c10.52-16.12,42.27,9.16,51.86,14.83,14.57,8.61,39.31,23.53,26.74,43.44-9,14.23-39.12,32.58-55.32,18.77-10.71-9.14-13.66-24.77-16.53-37.82-2.31-10.5-13.2-27.29-7.39-38.14C1200.1,66.68,1200.31,66.32,1200.54,66Z" transform="translate(-1005.71 -19.37)"/>
    <path class="cls-1" d="M1008.56,60.46l1.87,0.27A59.46,59.46,0,0,1,1015,43.91a26.2,26.2,0,0,1,5.31-7.71,20.75,20.75,0,0,1,10.86-5.51,45.11,45.11,0,0,1,14.89.07c12.15,1.75,27.23,6.82,44.65,12.27s37.22,11.24,59,14.38,43.07,3.26,62.35,3.12,36.53-.57,50,1.38a59.61,59.61,0,0,1,14.56,3.74,28.4,28.4,0,0,1,7.94,4.86,22.67,22.67,0,0,1,6.93,11.68c1.29,5,1.5,11.28.37,19.11a93.48,93.48,0,0,1-17.26,41.92c-13.52,18.55-33.79,33.15-58,42s-52.38,12.09-81.6,7.88c-39-5.62-72.39-23.34-94.89-47.35a115.94,115.94,0,0,1-24.93-40,93.5,93.5,0,0,1-4.71-45.09l-1.87-.27-1.87-.27a97.23,97.23,0,0,0,4.9,46.9c8,22.42,23.83,42.72,45.07,58.49s47.93,27,77.76,31.32c39.77,5.73,77.67-1.95,106.86-19.09a119.72,119.72,0,0,0,36.35-32.35,97.26,97.26,0,0,0,17.95-43.6,55.82,55.82,0,0,0,0-18.67,29.06,29.06,0,0,0-4-10.28,28,28,0,0,0-11.79-10,59.84,59.84,0,0,0-17.16-4.74c-14-2-31.31-1.56-50.56-1.42s-40.37,0-61.78-3.08-41-8.82-58.37-14.25-32.53-10.56-45.24-12.4a51.45,51.45,0,0,0-14.51-.32,27.13,27.13,0,0,0-9.22,2.94,25.87,25.87,0,0,0-10.42,10.91c-2.69,5-4.61,11.47-5.79,19.62Z" transform="translate(-1005.71 -19.37)"/>
  </g>
</svg>
