<svg id="artwork" xmlns="http://www.w3.org/2000/svg" viewBox="0 0 316.93 228.02">
  <defs>
    <style>
      .cls-1 {
        fill: #004712;
      }

      .cls-2 {
        fill: #8dc63f;
      }

      .cls-3 {
        fill: #fff;
      }

      .cls-4 {
        fill: #ef3e42;
      }

      .cls-5 {
        fill: none;
        stroke: #004712;
        stroke-linecap: round;
        stroke-linejoin: round;
        stroke-width: 3.85px;
      }
    </style>
  </defs>
  <title>mountain-dew_logo</title>
  <g>
    <g>
      <path class="cls-1" d="M254,66.17c8.44-29.78,17.92-47.25,17.92-47.25l-51.44,24,3.32-10.55L177.95,55.52,175.27,64,135.11,82.93c-26.87,39.46-62.61,82.2-66.57,86.91l-2,11.91,41.63-17.5a453.63,453.63,0,0,1-26.71,58.28l-2,11.75,73.65-34.72a63.69,63.69,0,0,0,16.52-10.61q0.61-.57,1.2-1.16a19.64,19.64,0,0,0,6.48-.35,31,31,0,0,0,6.08-2.14h0l0.08,0,107.59-50.57C349.59,54,379.95,17.58,379.95,17.58l3.54-11.32Z" transform="translate(-66.56 -6.26)"/>
      <path class="cls-2" d="M71.91,171l44.59-18.46s-20.84,53.29-31.78,71L151,192.27a59,59,0,0,0,15.24-9.75,36.08,36.08,0,0,0,2.86-3l0.27,0.08a14.27,14.27,0,0,0,6.88.15,26.68,26.68,0,0,0,5.14-1.83l0.05,0,106.31-50s53.86-76.38,88.22-115.61L248.36,71.85c9.39-34.31,16.33-46.57,16.33-46.57L215,48.24l3.17-10.09L182.11,56.41,179.4,65,138.48,84.27S104.27,135.66,71.91,171" transform="translate(-66.56 -6.26)"/>
      <path class="cls-3" d="M141.82,86L183.4,66.4l2.72-8.63,25.54-12.92-3.06,9.71,48.31-22.43s-5.58,13.53-14.29,45.62l119-55.53S342.75,39.9,285.38,123L180.14,172.47c-2.83,1.26-5.67,2.41-9.16,1.47l-0.18,0a7.09,7.09,0,0,1-2.42-1.38,30,30,0,0,1-4.56,5.28,54.89,54.89,0,0,1-14.16,9L95.18,212.5c11.23-19.08,28.8-69.15,28.8-69.15l-36,15.1C102,143.65,141.82,86,141.82,86" transform="translate(-66.56 -6.26)"/>
      <path class="cls-1" d="M190.19,60.52L203.05,54l-2.92,9.25,10.11-4.75-2.63,8.36-10.11,4.74-7.1,22.51c-0.86,2.72-.82,3.33,1.44,2.26l4.46-2.09a18.67,18.67,0,0,0,5.1-3.79l-4,10.36-15.92,7.48c-4,1.89-6.67.81-3.32-9.81l6.61-21-3.94,1.85,2.63-8.35,3.94-1.85Z" transform="translate(-66.56 -6.26)"/>
      <path class="cls-1" d="M227.44,50.39l-1,4.27,0.11,0c1.28-2.45,2.8-5.1,4.68-6l10.27-4.82c6-2.81,6.55,2,3.55,11.55l-5.47,17.33c-1.85,5.9-1.75,7.32-1.69,9.15l-15.49,7.27a43.76,43.76,0,0,0,4.49-10.46l6.61-21c0.83-2.63.58-3.29-1-2.55l-4.62,2.16c-1.56.74-2.38,1.89-3.21,4.52l-6.61,21c-1.86,5.9-1.76,7.32-1.69,9.14l-15.49,7.28a44.28,44.28,0,0,0,4.49-10.46l7.26-23c1.87-5.9,1.76-7.32,1.69-9.14Z" transform="translate(-66.56 -6.26)"/>
      <path class="cls-1" d="M123.24,128.11c-1.48,2.17-3.44,5.25-4.26,6.79a14.21,14.21,0,0,0-1.48,3.63l-12,5.63a134,134,0,0,0,10.4-13.46l28.27-41,13.12-6.16-10.38,32.55L147,116l20.29-37.2,13.28-6.24-10.13,32c-2.09,6.55-2.19,7.52-2.42,10.26l-15,7c0.73-1.35,1.28-2.29,1.93-3.75a44.73,44.73,0,0,0,2-5.49l5.71-18.45-0.11.05-17,31.18L131,132.21,139.61,105l-0.11,0Z" transform="translate(-66.56 -6.26)"/>
      <path class="cls-4" d="M128.23,149.38c3.29-8.11,4.14-11.86,3.44-14.26l37.48-17.36c10.87-5.1,12.33.19,6.37,17.92l-8.38,27.72c-2.47,8.2-8.76,13.71-19.64,18.82l-39.75,18.66c2.11-3.85,3.49-7.29,6.64-15.75Zm6.19,26.77,10.16-4.77c3.2-1.5,4.09-3,6.06-8.81l7.18-21.36c2-5.86,1.91-6.87-1.3-5.36l-8.5,3.82Z" transform="translate(-66.56 -6.26)"/>
      <path class="cls-4" d="M193.83,139.29L192,145.22c-1.36,4.55-.76,5.87,2.28,4.44l18.14-8.52a28.72,28.72,0,0,0,9.41-6.71l-6.2,15.78L178,167.85c-8.47,4-9-.82-4.83-14l7.91-25.09c4.16-13.22,8.44-20.28,16.91-24.26L226.7,91c8.47-4,9,.83,4.83,14.05l-6.12,19.42Zm17.11-18.61,2.72-8.63c1.15-3.64,1-4.83-1.1-3.85l-7.75,3.64c-2.08,1-3.19,2.76-4.34,6.4l-2.72,8.63Z" transform="translate(-66.56 -6.26)"/>
      <path class="cls-4" d="M313.26,61.74c2.28-3.25,5.3-7.88,6.52-10.19A20.5,20.5,0,0,0,322,46.14l18.75-8.8a203,203,0,0,0-16,20.27l-42.09,61-23.48,11,15.48-48.41-0.19.09-33,56.65-19.74,9.27,15.05-47.51c3.11-9.74,3.24-11.18,3.59-15.25L262.58,74c-1.07,2-1.89,3.42-2.85,5.59a64.88,64.88,0,0,0-2.92,8.15l-8.49,27.43,0.17-.08,27.64-47.45,26.08-12.25L289.36,95.94l0.2-.09Z" transform="translate(-66.56 -6.26)"/>
    </g>
    <g>
      <path class="cls-5" d="M301.23,129.19a3.89,3.89,0,1,1,3.88-3.89A3.75,3.75,0,0,1,301.23,129.19Zm0-6.87a3,3,0,0,0,0,6h0A3,3,0,0,0,301.23,122.32Zm-0.65,5.07h-0.9V123.2h1.56c1.08,0,1.71.3,1.71,1.27a1,1,0,0,1-1,1.09l1.07,1.83H302l-1-1.76h-0.41v1.76Zm0.79-2.47c0.4,0,.63-0.08.63-0.54s-0.45-.46-0.79-0.46h-0.63v1h0.79Z" transform="translate(-66.56 -6.26)"/>
      <path class="cls-3" d="M301.23,129.19a3.89,3.89,0,1,1,3.88-3.89A3.75,3.75,0,0,1,301.23,129.19Zm0-6.87a3,3,0,0,0,0,6h0A3,3,0,0,0,301.23,122.32Zm-0.65,5.07h-0.9V123.2h1.56c1.08,0,1.71.3,1.71,1.27a1,1,0,0,1-1,1.09l1.07,1.83H302l-1-1.76h-0.41v1.76Zm0.79-2.47c0.4,0,.63-0.08.63-0.54s-0.45-.46-0.79-0.46h-0.63v1h0.79Z" transform="translate(-66.56 -6.26)"/>
    </g>
  </g>
</svg>
