<svg id="artwork" xmlns="http://www.w3.org/2000/svg" viewBox="0 0 276.16 202.9">
  <defs>
    <style>
      .cls-1 {
        fill: #004712;
      }

      .cls-2 {
        fill: #8dc63f;
      }

      .cls-3 {
        fill: #fff;
      }

      .cls-4 {
        fill: #ef3e42;
      }
    </style>
  </defs>
  <title>mountain-dew-diet_logo</title>
  <g>
    <path class="cls-1" d="M247.38,174.48a279.79,279.79,0,0,1,16.92-44.61l-44.25,20.55L221.2,145l-39.92,20-0.58,3.66L146.86,184c-23.48,34.25-57.6,76.11-61.06,80.19L84,274.5l36.26-15.11A394.38,394.38,0,0,1,96.91,310l-1.73,10.21,64.16-30a55.53,55.53,0,0,0,14.4-9.19q0.53-.49,1-1a16.92,16.92,0,0,0,5.63-.29,27.32,27.32,0,0,0,5.3-1.84h0l0.07,0,93.72-43.7c51-70,77.54-101.61,77.54-101.61l3.12-9.84Z" transform="translate(-84.05 -117.33)"/>
    <path class="cls-2" d="M88.74,265.16l38.83-15.93s-18.28,46.29-27.84,61.64l57.7-27a51.11,51.11,0,0,0,13.28-8.44,31.6,31.6,0,0,0,2.5-2.57l0.24,0.07a12.43,12.43,0,0,0,6,.15,23.2,23.2,0,0,0,4.48-1.58l0,0,92.6-43.17S323.62,162,353.61,128L242.49,179.4c8.27-29.82,15.3-43.57,15.3-43.57L215,155.63l1.37-5.63L184.9,165.79l-0.6,3.73-35.65,16.67S117,234.52,88.74,265.16Z" transform="translate(-84.05 -117.33)"/>
    <path class="cls-3" d="M151.35,189.19l36.21-16.93,0.82-5.28,22.25-11.16-2.48,7,42.08-19.38s-5.11,13.2-12.77,41.08l103.65-48S324.67,151.87,274.55,224l-91.68,42.74c-2.46,1.08-4.94,2.08-8,1.25l-0.15,0a6.17,6.17,0,0,1-2.1-1.21,26.19,26.19,0,0,1-4,4.59,47.66,47.66,0,0,1-12.34,7.81l-47.45,22.19c9.82-16.57,25.24-60.07,25.24-60.07l-31.33,13C115,241.46,151.35,189.19,151.35,189.19Z" transform="translate(-84.05 -117.33)"/>
    <path class="cls-1" d="M191.92,169.39l11.21-5.62-2.56,8,8.81-4.1L207.06,175l-8.81,4.1L192,198.62c-0.75,2.37-.73,2.89,1.25,2l3.89-1.81a16.34,16.34,0,0,0,4.44-3.28l-3.47,9L184.25,211c-3.51,1.63-5.8.68-2.86-8.54l5.81-18.22-3.43,1.6,2.31-7.25,3.43-1.6Z" transform="translate(-84.05 -117.33)"/>
    <path class="cls-1" d="M224.35,160.68l-0.91,3.71,0.09,0c1.12-2.13,2.45-4.43,4.09-5.19l8.95-4.17c5.2-2.42,5.7,1.78,3.06,10.06l-4.81,15.06c-1.63,5.13-1.55,6.36-1.5,8l-13.49,6.28a38.28,38.28,0,0,0,3.94-9.08L229.59,167c0.73-2.29.51-2.86-.85-2.22l-4,1.87c-1.36.64-2.08,1.64-2.81,3.93l-5.81,18.22c-1.64,5.13-1.55,6.36-1.5,7.95l-13.49,6.29A38.52,38.52,0,0,0,205,194l6.38-20c1.63-5.13,1.55-6.36,1.49-7.95Z" transform="translate(-84.05 -117.33)"/>
    <path class="cls-1" d="M133.5,228c-1.29,1.88-3,4.55-3.72,5.9a12.47,12.47,0,0,0-1.3,3.15L118,241.92a117,117,0,0,0,9.08-11.68l24.71-35.61,11.43-5.32-9.12,28.29,0.1,0L172,185.24l11.57-5.39-8.9,27.78c-1.84,5.69-1.92,6.53-2.13,8.92l-13,6.07c0.64-1.17,1.12-2,1.69-3.26a38.54,38.54,0,0,0,1.72-4.77l5-16-0.09,0-14.89,27.08-12.7,5.91,7.58-23.67-0.09,0Z" transform="translate(-84.05 -117.33)"/>
    <path class="cls-4" d="M137.79,246.51c2.89-7,3.63-10.3,3-12.39l32.64-15c9.47-4.41,10.73.2,5.5,15.6l-7.37,24.09c-2.17,7.13-7.66,11.9-17.13,16.31l-34.62,16.12c1.84-3.35,3.06-6.34,5.82-13.68Zm5.31,23.31,8.85-4.12c2.79-1.3,3.57-2.56,5.29-7.65l6.3-18.56c1.73-5.09,1.67-6-1.12-4.67l-7.4,3.3Z" transform="translate(-84.05 -117.33)"/>
    <path class="cls-4" d="M194.87,237.91l-1.64,5.16c-1.2,3.95-.68,5.1,2,3.87L211,239.58a25,25,0,0,0,8.2-5.81l-5.44,13.71L181,262.72c-7.38,3.44-7.83-.74-4.16-12.23l7-21.81c3.66-11.48,7.39-17.61,14.77-21.05l25-11.64c7.38-3.44,7.83.74,4.16,12.23l-5.38,16.88Zm14.93-16.14,2.39-7.5c1-3.16.86-4.19-.95-3.35l-6.75,3.15c-1.81.84-2.78,2.39-3.79,5.55l-2.39,7.5Z" transform="translate(-84.05 -117.33)"/>
    <path class="cls-4" d="M299,170.79c2-2.82,4.63-6.85,5.7-8.84a18,18,0,0,0,2-4.71L323,149.63a177.29,177.29,0,0,0-14,17.59l-36.77,53-20.46,9.52,13.6-42.06-0.16.08L236.3,236.9l-17.2,8,13.22-41.29c2.74-8.46,2.85-9.71,3.17-13.26l19.35-9c-0.94,1.74-1.65,3-2.5,4.86a56.29,56.29,0,0,0-2.56,7.08l-7.46,23.84,0.14-.07,24.18-41.2,22.72-10.58-11.28,35.2,0.17-.08Z" transform="translate(-84.05 -117.33)"/>
    <g>
      <path class="cls-1" d="M152.69,178.59a6.51,6.51,0,0,1-.38-2.8h0a20.62,20.62,0,0,1,1-4.69h0l0.05-.17h0l2.78-8.73a24.94,24.94,0,0,1,2.92-6.5h0a12.41,12.41,0,0,1,5.21-4.42h0l5.79-2.64,1.29-4.07h0L172,142.9l25.89-10.8-1.37,4.28,5.55-2.55h0l8.22-3.74h0l1.43-4.46,16.8-8.29-1.65,5.18,5.25-2.39-4.71,14.8-5.25,2.39-0.64,2,5.39-2.5-5,15.68-9.8,4.61-0.05,0a6.49,6.49,0,0,1-4.51.48h0l-0.13,0h0a5.27,5.27,0,0,1-.8-0.35h0L205.49,160l-14.7,6.72a7,7,0,0,1-4.2.69h0l-0.34,1.07L160.6,180.93l0,0a6.79,6.79,0,0,1-4.73.57h0l-0.14,0h0a4.83,4.83,0,0,1-3-2.88h0Z" transform="translate(-84.05 -117.33)"/>
      <path class="cls-3" d="M224.54,139.18c-0.21.22-4.26,3.78-6.37,4.42L220.6,136l5.25-2.39,3.19-10-5.25,2.39,0,0,1.58-5-12.18,6-1.44,4.49s-17.78,8-18.37,8.48l1.46-4.56-21.39,8.92L172.92,146h0l-1.27,4-6.54,3a10.55,10.55,0,0,0-4.44,3.77,23,23,0,0,0-2.69,6l-2.8,8.79,0,0.09a19.06,19.06,0,0,0-1,4.25,4.63,4.63,0,0,0,.26,2,3.08,3.08,0,0,0,1.83,1.78l0.08,0a4.94,4.94,0,0,0,3.52-.5l24.87-12,0.73-2.3a2.8,2.8,0,0,0,1,.62l0.07,0a4.93,4.93,0,0,0,3.52-.5l14-6.38,1.92-4.85a4,4,0,0,0,.24.55,3.19,3.19,0,0,0,1.75,1.47l0.06,0a4.66,4.66,0,0,0,3.33-.41l9-4.26Z" transform="translate(-84.05 -117.33)"/>
      <g>
        <path class="cls-4" d="M215.52,127.86l6.67-3.29-1.53,4.81,5.25-2.4-1.38,4.34-5.25,2.4-3.73,11.69c-0.45,1.42-.44,1.73.74,1.19l2.32-1.05a9.68,9.68,0,0,0,2.65-1.94L219.19,149l-8.26,3.78c-2.09,1-3.46.37-1.7-5.15l3.47-10.89-2,.93,1.38-4.34,2-.94Z" transform="translate(-84.05 -117.33)"/>
        <path class="cls-4" d="M183.88,145.74l1.33-4.18,6.54-2.86-1.29,4Zm-7.14,22.45,6.51-20.47,6.59-3L183.38,165Z" transform="translate(-84.05 -117.33)"/>
        <path class="cls-4" d="M195.22,152.4l-0.67,2.08c-0.48,1.59-.27,2.06.79,1.58l6.35-2.9a9.85,9.85,0,0,0,3.3-2.31l-2.19,5.52-13.16,6c-3,1.36-3.14-.34-1.67-5l2.81-8.79c1.47-4.63,3-7.09,5.95-8.45l10-4.59c3-1.36,3.15.34,1.67,5l-2.17,6.81Zm6-6.46,1-3c0.41-1.27.35-1.69-.38-1.36l-2.72,1.24c-0.72.33-1.12,1-1.52,2.23l-1,3Z" transform="translate(-84.05 -117.33)"/>
        <path class="cls-4" d="M182.25,142.57l-6.47,2.63L173.94,151l-7.43,3.39c-3,1.36-4.47,3.82-5.95,8.45l-2.81,8.79c-1.48,4.63-1.3,6.33,1.67,5l14.2-6.87Zm-13.9,25.93-3.23,1.75c-1.06.48-1.27,0-.79-1.58L165,166.6l1.39-4.35,1-3c0.4-1.27.8-1.9,1.53-2.23l2.71-1.24c0.73-.33.78,0.09,0.38,1.36Z" transform="translate(-84.05 -117.33)"/>
      </g>
    </g>
  </g>
</svg>
