<svg id="Logo" xmlns="http://www.w3.org/2000/svg" xmlns:xlink="http://www.w3.org/1999/xlink" viewBox="0 0 209.48 174.41">
  <defs>
    <style>
      .cls-1, .cls-30 {
        fill: #ed1c2e;
      }

      .cls-1 {
        stroke: #ed1c2e;
        stroke-width: 0.68px;
      }

      .cls-1, .cls-13, .cls-14, .cls-15, .cls-16, .cls-17, .cls-18, .cls-19, .cls-2, .cls-20, .cls-21, .cls-22, .cls-23, .cls-24, .cls-28, .cls-29, .cls-30 {
        fill-rule: evenodd;
      }

      .cls-11, .cls-2, .cls-25 {
        fill: none;
      }

      .cls-2, .cls-29 {
        stroke: #ffd65a;
      }

      .cls-2 {
        stroke-width: 1.51px;
      }

      .cls-22, .cls-26, .cls-27, .cls-3, .cls-4, .cls-5, .cls-6 {
        fill: #fff;
      }

      .cls-27, .cls-3, .cls-4, .cls-5, .cls-6 {
        stroke: #5e3300;
      }

      .cls-3 {
        stroke-width: 0.72px;
      }

      .cls-4 {
        stroke-width: 0.74px;
      }

      .cls-5 {
        stroke-width: 0.76px;
      }

      .cls-6 {
        stroke-width: 0.75px;
      }

      .cls-13, .cls-7 {
        fill: #5e3300;
      }

      .cls-8 {
        fill: #9b7348;
      }

      .cls-11, .cls-8 {
        stroke: #9b7348;
        stroke-width: 0.21px;
      }

      .cls-9 {
        fill: url(#linear-gradient);
      }

      .cls-10 {
        fill: url(#linear-gradient-2);
      }

      .cls-12 {
        fill: url(#linear-gradient-3);
      }

      .cls-14 {
        fill: url(#linear-gradient-4);
      }

      .cls-15 {
        fill: url(#linear-gradient-5);
      }

      .cls-16 {
        fill: url(#radial-gradient);
      }

      .cls-17 {
        fill: url(#linear-gradient-6);
      }

      .cls-18 {
        fill: url(#linear-gradient-7);
      }

      .cls-19 {
        fill: url(#radial-gradient-2);
      }

      .cls-20 {
        fill: url(#radial-gradient-3);
      }

      .cls-21 {
        fill: url(#radial-gradient-4);
      }

      .cls-23 {
        fill: url(#radial-gradient-5);
      }

      .cls-24 {
        fill: url(#radial-gradient-6);
      }

      .cls-25 {
        stroke: #fff;
        stroke-linecap: round;
        stroke-width: 0.89px;
      }

      .cls-27 {
        stroke-width: 0.48px;
      }

      .cls-28 {
        fill: url(#radial-gradient-7);
      }

      .cls-29 {
        fill: #ffd65a;
        stroke-width: 1.03px;
      }
    </style>
    <linearGradient id="linear-gradient" x1="2444.25" y1="2454.96" x2="2453.98" y2="2489.65" gradientTransform="matrix(0.65, 0, 0, 0.6, -1342.98, -1167.76)" gradientUnits="userSpaceOnUse">
      <stop offset="0" stop-color="#fff"/>
      <stop offset="0.27" stop-color="#fff3cf"/>
      <stop offset="0.77" stop-color="#ffde7b"/>
      <stop offset="1" stop-color="#ffd65a"/>
    </linearGradient>
    <linearGradient id="linear-gradient-2" x1="2549.53" y1="2441.85" x2="2548.69" y2="2484.99" xlink:href="#linear-gradient"/>
    <linearGradient id="linear-gradient-3" x1="2643.5" y1="2452.78" x2="2634.34" y2="2502.37" xlink:href="#linear-gradient"/>
    <linearGradient id="linear-gradient-4" x1="2669.62" y1="2162.48" x2="2665.08" y2="2135.26" gradientTransform="translate(-1390.67 -1003.99) scale(0.64)" gradientUnits="userSpaceOnUse">
      <stop offset="0" stop-color="#7d511c"/>
      <stop offset="0.08" stop-color="#8e6429"/>
      <stop offset="0.33" stop-color="#bf984d"/>
      <stop offset="0.55" stop-color="#e2bd67"/>
      <stop offset="0.72" stop-color="#f7d577"/>
      <stop offset="0.83" stop-color="#ffdd7d"/>
    </linearGradient>
    <linearGradient id="linear-gradient-5" x1="-8889.53" y1="2633.78" x2="-8846.31" y2="2633.78" gradientTransform="matrix(0.08, -0.64, 0.64, 0.08, -696.09, -5476.3)" gradientUnits="userSpaceOnUse">
      <stop offset="0" stop-color="#845a28"/>
      <stop offset="0.43" stop-color="#ffdd7d"/>
    </linearGradient>
    <radialGradient id="radial-gradient" cx="2289.98" cy="2459.12" r="49.03" gradientTransform="translate(-1126.8 -1199.19) scale(0.63 0.62)" gradientUnits="userSpaceOnUse">
      <stop offset="0.38" stop-color="#ffdd7d"/>
      <stop offset="0.5" stop-color="#fcda7b"/>
      <stop offset="0.6" stop-color="#f2cf73"/>
      <stop offset="0.7" stop-color="#e1bd67"/>
      <stop offset="0.8" stop-color="#caa456"/>
      <stop offset="0.89" stop-color="#ac843f"/>
      <stop offset="0.98" stop-color="#885d24"/>
      <stop offset="1" stop-color="#7d511c"/>
    </radialGradient>
    <linearGradient id="linear-gradient-6" x1="2685.79" y1="2072.74" x2="2678.85" y2="2083.36" gradientTransform="translate(-1390.67 -1003.99) scale(0.64)" gradientUnits="userSpaceOnUse">
      <stop offset="0" stop-color="#7d511c"/>
      <stop offset="0.12" stop-color="#895e25"/>
      <stop offset="0.33" stop-color="#a8803c"/>
      <stop offset="0.61" stop-color="#dbb662"/>
      <stop offset="0.8" stop-color="#ffdd7d"/>
    </linearGradient>
    <linearGradient id="linear-gradient-7" x1="2690.55" y1="2072" x2="2677.29" y2="2086.13" gradientTransform="translate(-1390.67 -1003.99) scale(0.64)" gradientUnits="userSpaceOnUse">
      <stop offset="0.01" stop-color="#7d511c"/>
      <stop offset="0.07" stop-color="#91672b"/>
      <stop offset="0.2" stop-color="#b38b44"/>
      <stop offset="0.33" stop-color="#cea959"/>
      <stop offset="0.47" stop-color="#e4c069"/>
      <stop offset="0.62" stop-color="#f3d074"/>
      <stop offset="0.78" stop-color="#fcda7b"/>
      <stop offset="1" stop-color="#ffdd7d"/>
    </linearGradient>
    <radialGradient id="radial-gradient-2" cx="817.61" cy="326.71" r="26.58" gradientTransform="translate(-424.82 102.11) scale(0.86 0.85)" gradientUnits="userSpaceOnUse">
      <stop offset="0.19" stop-color="#ffdd7d"/>
      <stop offset="0.35" stop-color="#ffdd7d"/>
      <stop offset="0.36" stop-color="#ffdd7d"/>
      <stop offset="0.44" stop-color="#f9d678"/>
      <stop offset="0.57" stop-color="#e7c46b"/>
      <stop offset="0.71" stop-color="#cba556"/>
      <stop offset="0.87" stop-color="#a47b39"/>
      <stop offset="1" stop-color="#7d511c"/>
    </radialGradient>
    <radialGradient id="radial-gradient-3" cx="2607.02" cy="2151.38" r="43.74" gradientTransform="translate(-1354.19 -969.05) scale(0.63 0.62)" gradientUnits="userSpaceOnUse">
      <stop offset="0.08" stop-color="#ffdd7d"/>
      <stop offset="0.26" stop-color="#fcda7b"/>
      <stop offset="0.42" stop-color="#f2cf73"/>
      <stop offset="0.56" stop-color="#e1bd67"/>
      <stop offset="0.7" stop-color="#caa456"/>
      <stop offset="0.83" stop-color="#ac843f"/>
      <stop offset="0.97" stop-color="#885d24"/>
      <stop offset="1" stop-color="#7d511c"/>
    </radialGradient>
    <radialGradient id="radial-gradient-4" cx="2609.53" cy="2102.83" r="19.96" gradientTransform="translate(-1354.19 -969.05) scale(0.63 0.62)" gradientUnits="userSpaceOnUse">
      <stop offset="0.19" stop-color="#ffdd7d"/>
      <stop offset="0.33" stop-color="#fcda7a"/>
      <stop offset="0.46" stop-color="#f2cf73"/>
      <stop offset="0.57" stop-color="#e1bd66"/>
      <stop offset="0.69" stop-color="#c9a453"/>
      <stop offset="0.8" stop-color="#aa843b"/>
      <stop offset="0.9" stop-color="#855d1f"/>
      <stop offset="1" stop-color="#5e3300"/>
    </radialGradient>
    <radialGradient id="radial-gradient-5" cx="2750.27" cy="2170.81" r="11.84" gradientTransform="translate(-1354.19 -969.05) scale(0.63 0.62)" gradientUnits="userSpaceOnUse">
      <stop offset="0" stop-color="#ffdd7d"/>
      <stop offset="0.19" stop-color="#fcda7b"/>
      <stop offset="0.36" stop-color="#f2cf73"/>
      <stop offset="0.52" stop-color="#e1bd67"/>
      <stop offset="0.67" stop-color="#caa456"/>
      <stop offset="0.82" stop-color="#ac843f"/>
      <stop offset="0.96" stop-color="#885d24"/>
      <stop offset="1" stop-color="#7d511c"/>
    </radialGradient>
    <radialGradient id="radial-gradient-6" cx="2748.94" cy="2162" r="7.87" gradientTransform="translate(-1354.19 -969.05) scale(0.63 0.62)" gradientUnits="userSpaceOnUse">
      <stop offset="0.27" stop-color="#ffdd7d"/>
      <stop offset="0.41" stop-color="#fcda7b"/>
      <stop offset="0.53" stop-color="#f2cf73"/>
      <stop offset="0.65" stop-color="#e1bd67"/>
      <stop offset="0.76" stop-color="#caa456"/>
      <stop offset="0.87" stop-color="#ac843f"/>
      <stop offset="0.97" stop-color="#885d24"/>
      <stop offset="1" stop-color="#7d511c"/>
    </radialGradient>
    <radialGradient id="radial-gradient-7" cx="2246.66" cy="2521.64" r="34.4" gradientTransform="translate(-1126.8 -1199.19) scale(0.63 0.62)" gradientUnits="userSpaceOnUse">
      <stop offset="0.17" stop-color="#ffdd7d"/>
      <stop offset="0.34" stop-color="#fcda7b"/>
      <stop offset="0.48" stop-color="#f3d074"/>
      <stop offset="0.61" stop-color="#e3bf68"/>
      <stop offset="0.73" stop-color="#cca757"/>
      <stop offset="0.84" stop-color="#b08742"/>
      <stop offset="0.96" stop-color="#8d6228"/>
      <stop offset="1" stop-color="#7d511c"/>
    </radialGradient>
  </defs>
  <title>mug-diet_logo</title>
  <path class="cls-1" d="M391.33,288.69c0.15-13.86.25-24.4,0.07-24.47-24.9-9.34-52.37-11.84-70.66-11.84s-44.84,2-72.37,12c0.22,0.22.05,10.49,0,24.25-31.88,7.66-33.78,8.36-33.78,8.36l-0.08,84.88,1.65,0.68c1.3,0.79,26.75,10.72,104.89,11.82,65.94,0.93,97.06-10.4,98.4-11.16l3.86-1.38L423,297.14S407,292.1,391.33,288.69Z" transform="translate(-214.14 -252.04)"/>
  <path class="cls-2" d="M385.45,291.41v0.53c28.46,5.42,32.13,8.28,32.13,8.28l-0.46,76.39s-32,13.09-97.76,12c-72.41-1.21-98.88-11.45-98.88-11.45l-0.08-76.69s-2,.08,33.45-8.11v-1.79" transform="translate(-214.14 -252.04)"/>
  <path class="cls-2" d="M253.86,289.3v-20c17.91-7.94,51.15-10.73,66.61-10.72s41.44,3.15,65,10.41v22.42" transform="translate(-214.14 -252.04)"/>
  <path class="cls-3" d="M276.77,285.89l-0.22-13.8,2.76-.44s3.87-.49,3.9,1.31l0.39,9.42c0,1.94-1,3.11-3.55,3.2Zm-9,5.9,12-1.31c9.85-.69,12.39-4.13,12.28-10.47l-0.12-6.9c-0.11-6.38-3.89-6.87-12-6l-12.27,2.45-0.2,3.26a2.34,2.34,0,0,1,1.85,2.08l0.18,10.68a2.33,2.33,0,0,1-1.78,2.13Z" transform="translate(-214.14 -252.04)"/>
  <path class="cls-4" d="M310.54,268.21a2.42,2.42,0,0,0-1.8,2.23v11.31a2.38,2.38,0,0,0,1.8,2.23v4.33l-12,.36v-4.33a2.48,2.48,0,0,0,1.84-2.23V270.8a2.48,2.48,0,0,0-1.84-2.23v-4.26l12-.36v4.26Z" transform="translate(-214.14 -252.04)"/>
  <path class="cls-5" d="M316.1,283.63a2.52,2.52,0,0,0,2-2.23l-0.31-11.54a2.27,2.27,0,0,0-1.62-2.56l0.15-3.89,13.2,0.36,11.16,0.56,0,7.27-7.47-.37v-0.69c0-1.7-2-2.13-4.34-2.13l-2.41-.14-0.1,4.66,9.06,0.56v4.09l-9.21-.3-0.05,5.62c0.31,0,1.88,0,2.15,0,2.23,0,4.55.36,4.71-2a4.34,4.34,0,0,0,0-.88l7.26,0.22L340,288l-23.85-.15Z" transform="translate(-214.14 -252.04)"/>
  <path class="cls-6" d="M373.19,278.51l-6.09-1.16v-3c0-1.3-1.55-2.58-3.23-2.64l-0.31,12a2.56,2.56,0,0,0,1.95,2.51l-0.05,3.84L353.7,289v-4.2c1.5-.38,1.51-0.52,1.51-1.7l0.67-12.44c-1.68.06-3.45,0.15-3.45,1.46V275l-7.12-.62V265l14.37,2.49,13.56,2.35Z" transform="translate(-214.14 -252.04)"/>
  <g>
    <path class="cls-7" d="M263.9,320.22l10.25-23.17-2.24-2.19-8.71,19.69h0l0.69,5.65v0Z" transform="translate(-214.14 -252.04)"/>
    <path class="cls-7" d="M249.84,301.25l1.5-2.72h0l-17.5,3.71v0l3,1.77Z" transform="translate(-214.14 -252.04)"/>
    <line class="cls-8" x1="37.19" y1="46.48" x2="19.69" y2="50.18"/>
    <path class="cls-7" d="M274.15,297l15.5-1h0l2.92-2.51v0l-20.67,1.4h0l2.24,2.19h0Z" transform="translate(-214.14 -252.04)"/>
    <line class="cls-8" x1="78.44" y1="41.42" x2="57.77" y2="42.82"/>
    <path class="cls-7" d="M236.42,312.85c0.13-3.31.29-6.94,0.36-8.83h0l-3-1.77-0.58,14,3.2-3.41h0Z" transform="translate(-214.14 -252.04)"/>
    <polygon class="cls-7" points="71.42 76.11 74.67 71.96 74.66 71.96 75.5 54.61 72.54 53.03 71.42 76.11"/>
    <path class="cls-7" d="M290,334.59h0l3.05,1.37,0,0-0.28-13.68-3,4C289.94,329.69,290,333.06,290,334.59Z" transform="translate(-214.14 -252.04)"/>
    <path class="cls-7" d="M285.56,328.17l4.31-1.94v0l3-4v-0.08l-4,1.81-3.24,4.15v0Z" transform="translate(-214.14 -252.04)"/>
    <line class="cls-8" x1="78.68" y1="70.15" x2="74.67" y2="71.96"/>
    <path class="cls-7" d="M290,304l-3.35,1.1h0l3,1.58v0l3.48-1.14h0L290,304h0Z" transform="translate(-214.14 -252.04)"/>
    <path class="cls-7" d="M292.58,293.49L289.66,296c0.12,2.58.28,6.12,0.37,8l3.11,1.52" transform="translate(-214.14 -252.04)"/>
    <path class="cls-7" d="M249.86,301.25l14,19-0.69-5.65-11.86-16-1.5,2.72h0Z" transform="translate(-214.14 -252.04)"/>
    <path class="cls-7" d="M252.62,321.11h0l2.72,10.52,7.26,12.67h0l0.13-5.55Z" transform="translate(-214.14 -252.04)"/>
    <path class="cls-7" d="M236.44,312.85l-3.2,3.41v0l4-1.18h0l3-3.4Z" transform="translate(-214.14 -252.04)"/>
    <path class="cls-7" d="M293.07,336L290,334.59l-13.38,5.71-3,3.93v0Z" transform="translate(-214.14 -252.04)"/>
    <path class="cls-7" d="M276.61,340.32c-0.07-4.36-.36-20.82-0.39-22.36l-2.87,9.69,0.29,16.6,3-3.93h0Z" transform="translate(-214.14 -252.04)"/>
    <path class="cls-7" d="M251.74,349.29l3,1.47h0l0.6-19.13v0l-2.72-10.52C252.6,321.65,251.81,346.84,251.74,349.29Z" transform="translate(-214.14 -252.04)"/>
    <path class="cls-7" d="M276.21,317.83l-13.45,21,0,0-0.13,5.55,10.74-16.73v0.06l2.87-9.69A0.65,0.65,0,0,0,276.21,317.83Z" transform="translate(-214.14 -252.04)"/>
    <path class="cls-7" d="M240,344l0.32-32.25h0l-3,3.4L237,342.59l3,1.37h0Z" transform="translate(-214.14 -252.04)"/>
    <path class="cls-7" d="M236.3,345.57L240,344l-3-1.37h0l-3.76,1.64,3.06,1.35h0Z" transform="translate(-214.14 -252.04)"/>
    <line class="cls-8" x1="22.86" y1="90.55" x2="19.1" y2="92.19"/>
    <path class="cls-7" d="M251.74,349.31l-15.25,5.91v0l-3,3.78h0l21.21-8.22-3-1.47v0Z" transform="translate(-214.14 -252.04)"/>
    <path class="cls-7" d="M236.3,345.58l-3.06-1.35h0L233.51,359l3-3.78C236.41,351.56,236.33,347.22,236.3,345.58Z" transform="translate(-214.14 -252.04)"/>
    <path class="cls-9" d="M289.87,326.25v0l-4.31,1.94v0l1.12-23.08h0L290,304h0c-0.09-1.84-.25-5.37-0.37-8h0l-15.5,1h0L263.9,320.22v0l-14-19h0l-13,2.76h0c-0.08,1.89-.23,5.53-0.36,8.83h0l3.87-1.14h0L240,344h0l-3.71,1.62c0,1.64.11,6,.18,9.62v0l15.25-5.91v0c0.08-2.45.87-27.64,0.88-28.16h0l10.12,17.65,0,0,13.45-21a0.65,0.65,0,0,1,0,.12c0,1.54.31,18,.39,22.36h0L290,334.59h0C290,333.06,289.94,329.69,289.87,326.25Z" transform="translate(-214.14 -252.04)"/>
  </g>
  <g>
    <polygon class="cls-7" points="118.45 71.46 115.45 69.04 115.45 69.06 107.64 68.89 104.55 71.15 118.45 71.46"/>
    <line class="cls-8" x1="115.45" y1="69.06" x2="107.64" y2="68.89"/>
    <path class="cls-7" d="M318.16,294.84c0.07,4,.52,28.35.52,28.35h0l3.09-2.26h-0.11l-0.52-28.5-3,2.42h0Z" transform="translate(-214.14 -252.04)"/>
    <path class="cls-7" d="M318.13,294.84l3-2.42h0l-25.28.81v0l3.11,2.2Z" transform="translate(-214.14 -252.04)"/>
    <line class="cls-8" x1="107.01" y1="40.38" x2="81.73" y2="41.18"/>
    <path class="cls-7" d="M351.82,303.16l3,2.58,0-12.26-3,2.22C351.83,297.87,351.83,300.73,351.82,303.16Z" transform="translate(-214.14 -252.04)"/>
    <path class="cls-7" d="M332.63,323.5v-2.4s0-22.41,0-26.6h0l-3-2.5v29.08l3,2.43h0Z" transform="translate(-214.14 -252.04)"/>
    <path class="cls-7" d="M351.83,295.6v0.09l3-2.22v0L329.6,292h0l3,2.5Z" transform="translate(-214.14 -252.04)"/>
    <line class="cls-8" x1="140.73" y1="41.4" x2="115.46" y2="39.95"/>
    <path class="cls-7" d="M343.46,331.13c-3,.95-8.92,1-17.67,1s-14.63-.22-17.75-1.34a4.73,4.73,0,0,1-2-1.17l-2.16,1.66c3,2.75,9.45,3.18,21.87,3.19,11.54,0,17.51-.14,20.62-2l-2-1.74A5.83,5.83,0,0,1,343.46,331.13Z" transform="translate(-214.14 -252.04)"/>
    <path class="cls-7" d="M347.15,303l0.06,2.57a200.41,200.41,0,0,1-.61,20.32c-0.34,3.22-1.13,4.3-2.24,4.86l2,1.74c2.08-1.22,2.89-3.2,3.22-6.4a198.64,198.64,0,0,0,.62-20.47l-3.1-2.61h0Z" transform="translate(-214.14 -252.04)"/>
    <path class="cls-7" d="M354.85,305.84v-0.1l-3-2.58v0.15l-4.67-.28,3.1,2.61c0-.05,0-0.08,0-0.08Z" transform="translate(-214.14 -252.04)"/>
    <path class="cls-7" d="M304.34,302.82h-5.21v-0.05l-3,2.34v0h5.13l3.07-2.25v-0.08Z" transform="translate(-214.14 -252.04)"/>
    <path class="cls-7" d="M299,295.46h0l-3.11-2.2,0.27,11.85,3-2.34C299.07,300.49,299,297.71,299,295.46Z" transform="translate(-214.14 -252.04)"/>
    <path class="cls-7" d="M304.73,324.94l-0.38-22-3.07,2.25h0.07s0.19,12,.35,19.83c0.06,2.88.68,4.9,2.22,6.3l2.16-1.66C305.31,328.8,304.78,327.44,304.73,324.94Z" transform="translate(-214.14 -252.04)"/>
    <path class="cls-10" d="M332.64,294.5h0c0,4.19,0,26.6,0,26.6v2.4h0l-13.91-.31h0s-0.45-24.32-.52-28.35h0l-19.15.61h0c0.05,2.26.12,5,.17,7.31v0.05h5.21v0.08l0.38,22c0,2.5.58,3.86,1.34,4.68a4.73,4.73,0,0,0,2,1.17c3.12,1.12,8.87,1.34,17.75,1.34s14.7-.06,17.67-1a5.83,5.83,0,0,0,.91-0.36c1.1-.56,1.9-1.64,2.24-4.86a200.41,200.41,0,0,0,.61-20.32L347.15,303h0l4.67,0.28v-0.15c0-2.43,0-5.29,0-7.47V295.6Z" transform="translate(-214.14 -252.04)"/>
  </g>
  <g>
    <path class="cls-7" d="M392.08,330.72h0l-3,1.45,0,3.39,3,4.34Z" transform="translate(-214.14 -252.04)"/>
    <polygon class="cls-7" points="161.29 79.73 177.87 87.91 177.87 87.86 174.86 83.52 174.86 83.65 164.47 78.53 161.29 79.72 161.29 79.73"/>
    <line class="cls-8" x1="174.86" y1="83.65" x2="164.47" y2="78.53"/>
    <polygon class="cls-7" points="161.97 53.29 161.29 79.72 164.47 78.53 164.36 78.47 164.93 56.49 165.03 56.51 161.99 53.3 161.97 53.29"/>
    <path class="cls-7" d="M386.44,320.1l-2.83-3.24-0.07,0L383,329.71l3.1-1.48C386.16,326.52,386.31,323.06,386.44,320.1Z" transform="translate(-214.14 -252.04)"/>
    <path class="cls-7" d="M386.08,328.35s0-.08,0-0.11l-3.1,1.48v0l6,2.4v0l3-1.45Z" transform="translate(-214.14 -252.04)"/>
    <path class="cls-7" d="M386.44,320l16.4,4.13,3.1-1.55v-0.13l-22.34-5.63,2.83,3.24S386.44,320.05,386.44,320Z" transform="translate(-214.14 -252.04)"/>
    <line class="cls-8" x1="191.8" y1="70.46" x2="169.46" y2="64.83"/>
    <path class="cls-7" d="M392.35,309.4l-16.23-4.07,3,3.21,10.15,2.55v0.05l3-1.64V309.4Z" transform="translate(-214.14 -252.04)"/>
    <path class="cls-7" d="M402.51,354.15c-1.4,0-4.71-.59-11.65-3.47-5.29-2.2-10.14-4.71-11-5.19l-0.2-.1c-8.08-3.72-17.22-7.93-18.14-9.36l-2.69,1.09c1.34,1.89,6.7,4.48,19.27,10.27,0.06,0,20.2,10.75,26.43,8.89l-2-2.16A0.18,0.18,0,0,0,402.51,354.15Z" transform="translate(-214.14 -252.04)"/>
    <path class="cls-7" d="M361.45,336c-0.48-2.75-.64-8.78-0.63-15,0-7.81.26-15.94,0.46-18.37,0.23-2.94,1-4.38,1.74-5.08l-1.73-2c-1.87,1.33-2.79,3.73-3,6.93-0.33,4.21-.94,27.51.21,33.92a1.87,1.87,0,0,0,.33.74l2.69-1.09Z" transform="translate(-214.14 -252.04)"/>
    <path class="cls-7" d="M405.95,341c-0.05-7.54,0-17.17,0-18.38l-3.1,1.55h0.06c0,1.44,0,3.68,0,6.25,0,3.3,0,7.15,0,10.58v1.1c0,1.21,0,2.54,0,3.86a48.91,48.91,0,0,1-.43,8.14l2,2.16h0C406.16,355.78,406,348.79,405.95,341Z" transform="translate(-214.14 -252.04)"/>
    <path class="cls-7" d="M402.34,315.75l3,3.21,0.29-17.52-3.06,1.72C402.51,305.49,402.4,312,402.34,315.75Z" transform="translate(-214.14 -252.04)"/>
    <path class="cls-7" d="M363.41,297.19a3.94,3.94,0,0,1,2.59-.47c11.34,0.78,30.2,4.92,36.55,6.37,0,0,0,0,0,.07l3.06-1.72v-0.08s-25.14-6-39.34-7a7.51,7.51,0,0,0-5,1.13l1.73,2A2.53,2.53,0,0,1,363.41,297.19Z" transform="translate(-214.14 -252.04)"/>
    <path class="cls-11" d="M366.27,294.4a7.5,7.5,0,0,0-5,1.13" transform="translate(-214.14 -252.04)"/>
    <path class="cls-11" d="M405.62,301.36c-23.68-5.36-26.7-5.55-39.34-7" transform="translate(-214.14 -252.04)"/>
    <path class="cls-7" d="M402.34,315.76l-9.93-2.55-3,1.69L405.32,319v0l-3-3.21h0Z" transform="translate(-214.14 -252.04)"/>
    <path class="cls-7" d="M392.36,313.19c0-.91,0-3.15,0-3.68l-3,1.64v3.72l0.09,0,3-1.69Z" transform="translate(-214.14 -252.04)"/>
  </g>
  <path class="cls-12" d="M402.92,342.11V341c0-3.43,0-7.28,0-10.58,0-2.58,0-4.81,0-6.25h-0.06L386.44,320s0,0,0,.07c-0.12,3-.28,6.42-0.35,8.13,0,0,0,.08,0,0.11l6,2.37h0L392,339.9v0l-16.58-8.18h0l0.68-26.43h0l16.23,4.07v0.11c0,0.52,0,2.77,0,3.68l0.06,0,9.93,2.55h0c0.06-3.73.17-10.26,0.21-12.59,0,0,0,0,0-.07-6.35-1.45-25.21-5.59-36.55-6.37a3.94,3.94,0,0,0-2.59.47,2.53,2.53,0,0,0-.4.33c-0.73.7-1.51,2.14-1.74,5.08-0.19,2.43-.45,10.56-0.46,18.37,0,6.24.16,12.28,0.63,15l0,0c0.93,1.43,10.06,5.64,18.14,9.36l0.2,0.1c0.91,0.48,5.75,3,11,5.19,6.94,2.88,10.25,3.42,11.65,3.47a0.18,0.18,0,0,1,0,0,48.91,48.91,0,0,0,.43-8.14C402.95,344.65,402.94,343.33,402.92,342.11Z" transform="translate(-214.14 -252.04)"/>
  <g>
    <path class="cls-13" d="M292.45,336.43s-2.66-3.36-4.44-3a48.34,48.34,0,0,0-6.57,2.65s-3.73-.35-4.44.18-4.62,6-2.66,8.66,2.31,3.18,2.31,3.89-1.23,4.46,1.46,4.46c1.24,0-.93,1.55-0.93,1.55s-7.11,2.48-10.13,11.85-3.09,22.86,1.17,24.81,53.17,3.67,55,4,44.22-3.18,45.11-3.71,7.64-4.78,3.55-9.38c-0.26-.3,3.91-2.65-1.24-6.36,0,0-30.72-34-31.25-34.49s-6.42-3.76-5.33-8.14c0.18-.71,3-0.18,4.09-4.77,0.43-1.87-1.61-1.54-2.84-3-1.63-1.92-2.77-5.38-4.09-5.48a41.22,41.22,0,0,1-4.79,1.06c-0.89,0-4.09-2.12-5.51-1.77s-5.15,1.24-5.15,7.6c0,1.95-2,1.77-2.84,3s-5.68,1.42-6,3-4.26-.53-5.15,1.42-7.64-.54-9.24,1.94h0Z" transform="translate(-214.14 -252.04)"/>
    <path class="cls-14" d="M317.31,357.65c-3.45.12-7.92,1.24-14.21,0.71,0,0-2.49,16.09-1.25,18s13.61,7.87,19-.17c0.36-.53,5.68,3.18,10.83-0.88s-2.12-18.4-3.36-18.57c-0.91-.13-1.8.58-11,0.89h0Z" transform="translate(-214.14 -252.04)"/>
    <path class="cls-15" d="M323.06,328.14l-3.53.26,1.14-3s8.34,7.49,10.78,6.88,5.46,0,5.46-3.08c0-3.44-2.62-.36-5.06-2s-7.92-7.65-12.19-5.82-0.35,3.31-3.4,7.15-3.33,3.33-3.33,3.33-3.57-.09-4.9,2.79c-0.78,1.69-4.15,0-6,1.82-0.65.65-9.52,1.3-11.55,2.51s-4.68,1.09-7.69,14.62c-2.72,12.28-1.54,18,4.2,23.9,1.21,1.26,2.89-1.37,13.35,2.94,1.1,0.45-2-22.91,5.9-26.52,2.06-.94,1.93,3.48,1.93,3.48s17-.85,17.17-1.65,0.35-4.3,1.76-3.29,2.5,6,2.5,6l1-.29s-0.91-7.31.64-10.26c2-3.86,6.39-5.62,6.25-5.73-6.9-5.2-4.41-9-5.08-8.9-1.11.23-7.83-2.54-9.4-5.14h0Z" transform="translate(-214.14 -252.04)"/>
    <path class="cls-16" d="M324.44,329.72c4.75,3.19,7.49,3.73,8,3.56,0.67-.14-1.82,3.71,5.08,8.9,0.14,0.11-4.23,1.87-6.25,5.73-0.21.4,0.51,1.65-.37,1.47-5.56-5.66-5.16-3.82-9.4-5.53a22.25,22.25,0,0,0-6.48,0c-3.57.53-2.51-2-2.51-2s-1.06-.13-0.93-3,3.31-4.88,5.43-6.46S324.44,329.72,324.44,329.72Z" transform="translate(-214.14 -252.04)"/>
    <path class="cls-17" d="M319.53,328.4l1.14-3s8.34,7.49,10.78,6.88,5.46,0,5.46-3.08c0-3.44-2.62-.36-5.06-2s-7.92-7.65-12.19-5.82-0.35,3.31-3.4,7.15l3.26-.13h0Z" transform="translate(-214.14 -252.04)"/>
    <path class="cls-18" d="M327.37,322.16s2.88-1.17,3.53-.65,3.26,5.58,3.26,5.58l-2,.13s-3.65-5.07-4.83-5.07h0Z" transform="translate(-214.14 -252.04)"/>
    <path class="cls-19" d="M281.13,353.24s-1.81,0-1.83.39c-0.13,2.47-4.41,4.09-5.23,4.68-1.43,1-6.55,6.68-7.6,15s-0.11,14.13,1.85,16.21c0.74,0.79,7.77.05,15.32,0.22,12.32,0.27,27.37,1.08,28.74.92,2.22-.26-2.66-4.26-3.57-4.91s-13.71-10-26.26-4.69c-5.16,2.19,3.14-3.12,3.14-3.12-6.79-8.33-4.7-11.19-6.4-12.36s-6.53-3-3.14-2.34a13.77,13.77,0,0,1,3.4.78c0.52,0.39,1.57-10.8,1.57-10.8h0Z" transform="translate(-214.14 -252.04)"/>
    <path class="cls-20" d="M283.65,389.76c12.32,0.27,27.37,1.08,28.74.92,2.22-.26-2.66-4.26-3.57-4.91s-14.48-11-29-3.64Z" transform="translate(-214.14 -252.04)"/>
    <path class="cls-21" d="M291.6,337.53s-3.53-5.35-9.79,0a15.7,15.7,0,0,0-3,3.22c-0.41.61,6.51-7.29-2.44-2,0,0-2,5.46-.2,7.29s1.42,3.44.81,4.05,1.22,4.66,4.27,1.41,0.21-10.73,10.37-14h0Z" transform="translate(-214.14 -252.04)"/>
    <path class="cls-22" d="M304,357.43h3.39s-0.55-2.85-1.27-2.49a11.44,11.44,0,0,0-2.12,2.48h0Z" transform="translate(-214.14 -252.04)"/>
    <path class="cls-23" d="M365.08,389.72l1-3.94s5.17-1.58,5.17-2.77,1.45,2,1.19,2.64a23.73,23.73,0,0,1-2.33,3.86c-0.26.39-5,.21-5,0.21h0Z" transform="translate(-214.14 -252.04)"/>
    <path class="cls-7" d="M306.12,344.9l-2.94.07a13.33,13.33,0,0,0-3.69-.12,21.52,21.52,0,0,0-3.71.28,3.91,3.91,0,0,0-1.77.56c-0.82.63-2.29,3.78-.65,4.09s7,0.47,7.53.15,3.93-4.72,5.24-5h0Z" transform="translate(-214.14 -252.04)"/>
    <path class="cls-7" d="M323.68,336.48s-6.21,2.53-6.75,2.79l-2.24,1.6,0.1,0a0.55,0.55,0,0,0-.52.57c0,0.55.17,0.57,4.59,0.87,1.65,0.11,3.35.23,4.44,0.36a10.54,10.54,0,0,0,4.63-1.82c0.56-.46.4-1.28,0.15-2.39s-1.45-2.49-1.44-2.75-0.34-.28-3,0.81h0Z" transform="translate(-214.14 -252.04)"/>
    <path class="cls-22" d="M326.22,356H328s-0.7-3.46-1.4-2.71-0.42,2.71-.42,2.71h0Z" transform="translate(-214.14 -252.04)"/>
    <path class="cls-7" d="M301.59,360.18s2.74-13.2,13.82-14.8,15.9,4.88,15.9,4.88S327,342.12,315,344c-14,2.24-13.37,16.14-13.37,16.14h0Z" transform="translate(-214.14 -252.04)"/>
    <path class="cls-7" d="M322.22,341.91s10.08,4.18,10.54,5.62c1.77,5.6,2.84-1.6-5.57-4.75-3.85-1.44,5.08-.33,9.75,4.91,3.2,3.59-6.94-7.2-8.38-7.36s10,3.85,11.27,5-10.79-6.19-11.1-5.73c-2.35,3.52-6.51,2.35-6.51,2.35h0Z" transform="translate(-214.14 -252.04)"/>
    <path class="cls-7" d="M332.36,370.68L327.6,392l35.55,5.24,4.91-19.35s9.58-4.29,9-10.61c0,0,9.85-9.9-8.71-21.55-8.58-5.39-19.21-1.06-20.14-1.44-21.21-8.44-17.69,12.5-17.69,12.5-6.2,5.53,3.9,15.59,1.82,13.88h0Z" transform="translate(-214.14 -252.04)"/>
    <path class="cls-22" d="M332.19,370.25L327.3,392s21.05-12.71,20.49-19c0,0-12.91,1.51-15.6-2.74h0Z" transform="translate(-214.14 -252.04)"/>
    <path class="cls-7" d="M333.3,371.63l-4.18,17.82,33.16,4.16,4.68-16.8S369.2,370,369.2,367c0-.7-5.22-1.74-11.23-3.37-4.42-1.2-7-3-9.12-3.17-0.29,0-14.76-5.7-10.39.42,2.54,3.56-3.18,4.85-5.16,10.76h0Z" transform="translate(-214.14 -252.04)"/>
    <path class="cls-22" d="M333.15,346.4c3-3.3,9-5.05,15,.13,0,0,4.3-2,5.87-2s10.39-1.06,15.88,3.36,7.45,7.14,8.3,9.74c0.57,1.73-.24,8.38-2.22,9-0.59.17,0.65,2.21-.39,3.64s-5.05,6.41-6.66,6.25c-3.66-.39-3.4-8.59-4.44-9.11s-3.79,2.34-8.62.65-5.22-4.29-7.57-5.07a7.8,7.8,0,0,0-6,.39c-1.7.78-5.23,7.41-7.44,7.28s-6.37-8.71-3.44-13.09c0.14-.21-1-8.12,1.74-11.1h0Z" transform="translate(-214.14 -252.04)"/>
    <path class="cls-7" d="M341.43,359.22a6.88,6.88,0,0,1,4.66-1.92c2.57,0.16,8.84,5.09,9.8,5.28a26,26,0,0,0,9.64-.16,78.06,78.06,0,0,1-8.68-1c-3.21-1-8.67-5.28-10.6-5s-4.82,2.72-4.82,2.72h0Z" transform="translate(-214.14 -252.04)"/>
    <path class="cls-13" d="M312.52,359.88s3.14,1.23,4.16,1.12,2.14-1.57,3.37-1.45,4.49-1.23,5.17-1.23a27.48,27.48,0,0,0-4.94-.22c-0.67.22-3.14,1.57-4,1.57s-3.7.22-3.7,0.22h0Z" transform="translate(-214.14 -252.04)"/>
    <path class="cls-22" d="M332.43,379.93s3.8-1.08,4.89.36,0.72,8.48.72,8.48,2.17-7.94-.18-9-5.44.18-5.44,0.18h0Z" transform="translate(-214.14 -252.04)"/>
    <path class="cls-22" d="M340.59,383s5.74-1,7.42-.36c5.07,2,4.34,7.39,4.34,7.39s2.17-6-4.16-8.12c-2.45-.84-7.61,1.08-7.61,1.08h0Z" transform="translate(-214.14 -252.04)"/>
    <path class="cls-22" d="M354.35,386.25s5.07-2.35,7.42-.18c1.33,1.22,1.18,5.68,1.18,5.68s1.12-5.39-1.18-6.58c-3.8-2-7.42,1.08-7.42,1.08h0Z" transform="translate(-214.14 -252.04)"/>
    <path class="cls-7" d="M301.66,350.77l-3.21,4.8s-1.61,3.56-1.61,5.16a20.66,20.66,0,0,0,0,3.38c0.18,0.89-.18,3.91.54,6.4s-1.25-6.22-1.43-7.11,0.36-3.91.36-4.8,3.75-6.94,5.35-7.83h0Z" transform="translate(-214.14 -252.04)"/>
    <path class="cls-7" d="M293.54,353.7l-2.07,5.39s-0.78,3.82-.42,5.39a21.1,21.1,0,0,0,.75,3.29c0.37,0.83.7,3.85,1.95,6.13s-2.6-5.8-3-6.62-0.52-3.89-.71-4.76,2.11-7.59,3.48-8.81h0Z" transform="translate(-214.14 -252.04)"/>
    <path class="cls-24" d="M366.34,384.51l2-7.33s4.6,1.74,3.81,2.93-3.34,4.55-5.85,4.4h0Z" transform="translate(-214.14 -252.04)"/>
    <path class="cls-13" d="M327.22,332.33c-4.14,0-7.39,3.24-10.35,5.89a2.56,2.56,0,0,1-1.77.88c1.77-1.47,3.55-3.24,5.32-5,0.59-.29.89-0.59,1.48-0.88,1.77-.88,3.55-0.59,5.33-0.88h0Z" transform="translate(-214.14 -252.04)"/>
    <path class="cls-13" d="M314.45,335.11c-2.7,2.56-.57-0.42-0.57-0.42s5.06-4.41,10.41-4.62c0,0-7.14,2.48-9.85,5h0Z" transform="translate(-214.14 -252.04)"/>
    <path class="cls-13" d="M305.18,361.25c-0.34,2.72-.78,3.29,1.19,12,0,0-4.12-8.07-1.19-12h0Z" transform="translate(-214.14 -252.04)"/>
    <path class="cls-13" d="M303.72,373.93S306,377.59,313,378c0,0-9.73-.47-9.26-4.06h0Z" transform="translate(-214.14 -252.04)"/>
    <path class="cls-13" d="M270.07,376.95s-2.29,6-.5,10.66a9.88,9.88,0,0,1,.5-10.66h0Z" transform="translate(-214.14 -252.04)"/>
    <path class="cls-25" d="M340.21,381.75l4.23-18m-4.23,18" transform="translate(-214.14 -252.04)"/>
    <path class="cls-25" d="M354.17,384.72l3.53-15m-3.53,15" transform="translate(-214.14 -252.04)"/>
    <path class="cls-13" d="M294,345.69a12.63,12.63,0,0,0-6.32,6.09,10.58,10.58,0,0,0-3,3.09,8.29,8.29,0,0,0-.45,3.76,7.86,7.86,0,0,1,3.62-6.26,8.44,8.44,0,0,1,3.84-2.5,15.29,15.29,0,0,0-3,4.26s-3.84,4.71-2.59,10c0,0-.37-5.6,3-9.72,0,0,4.21-5.81,5.77-3.09,0,0-1.56.89-3,5l0.37,0.22s2.07-6.33,7.39-6.55-0.15-.22-0.15-0.22l-5.59-4.1h0Z" transform="translate(-214.14 -252.04)"/>
    <path class="cls-22" d="M305.08,345.21c-3.29.47-2.31,0.17-2.84,0.18-0.8,0,0,2.19-3.17,2.32-2.91.12-1.88-2.1-2.78-2a4.44,4.44,0,0,0-1.45.29c-0.66.53-1.85,3.17-.53,3.43s5.69,0.4,6.08.13,3.64-4.08,4.7-4.34h0Z" transform="translate(-214.14 -252.04)"/>
    <path class="cls-13" d="M309.4,351.52s-3,1.48-3.57-.27c-0.76-2.16,2.92-9.5,17.49-6.94,1.31,0.23.24,3.65-.16,4.31s-3.44-1.05-4.37,1.19-1.34,8.27-1.45,7.5c-0.8-5.14-3.57-7.51-5.16-7.24a5.77,5.77,0,0,0-2.78,1.45h0Z" transform="translate(-214.14 -252.04)"/>
    <path class="cls-26" d="M302.09,346.41c0,1.08-1.36,2-3,2s-3-.88-3-2,1.23-1.46,3.1-1.46c2.2,0,3,.38,3,1.46h0Z" transform="translate(-214.14 -252.04)"/>
    <path class="cls-27" d="M302.09,346.41c0,1.08-1.36,2-3,2s-3-.88-3-2,1.23-1.46,3.1-1.46c2.2,0,3,.38,3,1.46h0Z" transform="translate(-214.14 -252.04)"/>
    <path class="cls-13" d="M301.86,345.16a10.8,10.8,0,0,0-3.12-.33,4.25,4.25,0,0,0-2.15.6,2,2,0,0,0,2.27,1.82c3,0,3-2.09,3-2.09h0Z" transform="translate(-214.14 -252.04)"/>
    <path class="cls-7" d="M291,345s4-2,6.82-1.59c0,0,5.66.92,6.92,0.15,0,0-5.27-.41-6.87-1.08,0,0-4.7.8-6.87,2.51h0Z" transform="translate(-214.14 -252.04)"/>
    <path class="cls-13" d="M287.86,344.47s1.59-2.9,3.14-3.74a20.46,20.46,0,0,1,9-.71l3,0.74s2.71,0.08,3.09-.32a9.33,9.33,0,0,1-3.07,1.25s-3.34-1.61-5.21-1.29c0,0-4.93,0-6.79,1.25a11.73,11.73,0,0,0-3.23,2.81h0Z" transform="translate(-214.14 -252.04)"/>
    <path class="cls-13" d="M303.4,336.81s3.85,0.22,4.78,1.28c0,0,.5-2.56,1.5-3a2.41,2.41,0,0,0-1.92,2s-3.35-1-4.35-.28h0Z" transform="translate(-214.14 -252.04)"/>
    <path class="cls-13" d="M305,345.6c-2.83,2.11-1.67-.48-0.85-0.62,2-.34,3.15-2.41,4.21-3.19a2.17,2.17,0,0,0-.13-3.43c-1.19-.79,1.85,1.45,3.18,2.24s1.58,0,1.58,0-2-1.32-1.32-3.29,4.1-4,4.49-4-4,3.82-3.71,4.61a27.92,27.92,0,0,0,1.87,3.25s11.5-5.19,11.94-5.68c2.25-2.5,3.25,3.62,2.33,4.8s-3,1.85-4,2.11-11.75-1.19-13.15-.34a67,67,0,0,0-6.47,3.5h0Z" transform="translate(-214.14 -252.04)"/>
    <path class="cls-22" d="M315.19,341.1l2.14-1c0.73-.34,1,1.95,3.89.64,2.65-1.19.73-2.72,1.57-3s3.32-1.36,3.51-1.31c0.83,0.17,2.12,3.13,1.06,4a10.42,10.42,0,0,1-4.1,1.58c-2.69-.33-9.35-0.52-8.07-0.81h0Z" transform="translate(-214.14 -252.04)"/>
    <path class="cls-26" d="M318.06,340.28c0.32,1,1.88,1.47,3.49,1s2.63-1.74,2.31-2.77-1.6-1-3.39-.48c-2.11.65-2.73,1.24-2.41,2.27h0Z" transform="translate(-214.14 -252.04)"/>
    <path class="cls-27" d="M318.06,340.28c0.32,1,1.88,1.47,3.49,1s2.63-1.74,2.31-2.77-1.6-1-3.39-.48c-2.11.65-2.73,1.24-2.41,2.27h0Z" transform="translate(-214.14 -252.04)"/>
    <path class="cls-13" d="M317.91,339a10.76,10.76,0,0,1,2.88-1.24,4.21,4.21,0,0,1,2.23-.06,2,2,0,0,1-1.62,2.41c-2.9.92-3.49-1.11-3.49-1.11h0Z" transform="translate(-214.14 -252.04)"/>
    <path class="cls-28" d="M280.63,381c-0.81-.64.78-0.46,0-1.1-5.84-4.59-11.6-9.09-13-10.15a2.57,2.57,0,0,0-.34-0.23c-2.19,8.17-1.38,18.19,1.09,20,0.36,0.38,6.8.79,13.35,1.07C287,390.84,276.67,380.66,280.63,381Z" transform="translate(-214.14 -252.04)"/>
    <path class="cls-7" d="M270.07,376.95s-2.29,6-.5,10.66a9.88,9.88,0,0,1,.5-10.66h0Z" transform="translate(-214.14 -252.04)"/>
  </g>
  <path class="cls-29" d="M256.26,392.52l-2,.35v33l2.75-.5c44.89-8.12,83.23-8.12,128.2,0l2.75,0.5v-33l-2-.35C340.51,384.46,301.71,384.46,256.26,392.52Z" transform="translate(-214.14 -252.04)"/>
  <path class="cls-30" d="M385.62,422.81c-45-8.13-84-8.14-129,0h0V395.05h0c45-8,84-8,129,0h0v27.76Z" transform="translate(-214.14 -252.04)"/>
  <path class="cls-26" d="M268.6,405.15V401h0l1.55-.22h0c1.37-.16,2,0.36,2,1.84h0c0,1.53-.62,2.08-2,2.32h0Zm0,5.28v-2.21h0l1.19-.17h0c1.66-.21,2,0.17,2,1.89h0v2.23h0a6.62,6.62,0,0,0,.34,2.51h0c1.42-.21,2.72-0.36,4.14-0.52h0v-2.93h0c-0.66-.09-0.72-0.54-0.72-1.67h0v-0.94h0c0-1.68-.41-2.24-2.13-2.47h0c1.71-.77,2.47-2.08,2.54-4.36h0c-0.19-3.76-1.59-4.78-5.51-4.3h0c-2.31.3-4.2,0.59-6.56,1h0v2.82h0c0.83,0.08.85,0.51,0.85,1.68h0V411h0c0,1.19,0,1.59-.85,1.94h0v2.93h0c1.89-.3,3.6-0.54,5.55-0.82h0v-2.93h0C268.6,412,268.6,411.61,268.6,410.43Z" transform="translate(-214.14 -252.04)"/>
  <path class="cls-26" d="M281.58,401.82c0-1.79.41-2.55,1.78-2.74h0c1.37-.09,1.75.59,1.76,2.39h0v6h0c0,1.8-.39,2.55-1.76,2.73h0c-1.31.08-1.77-.57-1.78-2.37h0v-6Zm-3.85.57v5.7h0c0,2.06,0,3.3.9,4.42h0c0.89,1.11,2.29,1.38,4.73,1.18h0c2.44-.28,3.63-0.82,4.71-2.13h0c0.82-1.28.9-2.55,0.9-4.61h0v-5.7h0c0-2.06-.08-3.33-0.9-4.45h0c-1.07-1.13-2.27-1.44-4.71-1.24h0c-2.43.28-3.83,0.87-4.73,2.2h0C277.75,399.1,277.73,400.36,277.73,402.39Z" transform="translate(-214.14 -252.04)"/>
  <path class="cls-26" d="M294.64,400.67c0-1.8.47-2.54,1.78-2.68h0c1.37,0,1.75.66,1.76,2.45h0v6h0c0,1.79-.39,2.55-1.76,2.67h0c-1.31.06-1.77-.64-1.78-2.43h0v-6Zm-3.85.43v5.7h0c0,2.06,0,3.29.9,4.45h0c0.9,1.15,2.3,1.49,4.73,1.35h0c2.44-.18,3.63-0.7,4.71-2h0c0.82-1.24.9-2.52,0.9-4.58h0v-5.7h0c0-2.06-.08-3.32-0.9-4.48h0c-1-1.17-2.27-1.53-4.71-1.41h0c-2.44.2-3.77,0.73-4.73,2h0C290.81,397.79,290.79,399.07,290.79,401.1Z" transform="translate(-214.14 -252.04)"/>
  <path class="cls-26" d="M306.4,399.6v1.76h0l-3.11.14h0v-7.06h0c4.56-.22,8.6-0.33,13.15-0.39h0v7.07h0l-3.08,0h0v-1.76h0c0-1.46-.43-1.92-1.56-2h0v9.39h0c0,1.18.06,1.57,0.83,1.78h0v2.93h0c-1.83,0-3.73.09-5.56,0.17h0v-2.93h0c0.78-.27.85-0.67,0.85-1.83h0v-9.38h0C306.8,397.64,306.4,398.16,306.4,399.6Z" transform="translate(-214.14 -252.04)"/>
  <path class="cls-26" d="M329.09,408.13V404h0c0.53,0,1.06,0,1.59,0h0c1.54,0.08,2.17.58,2.18,2.15h0c0,1.56-.61,2-2.09,2h0C330.19,408.17,329.68,408.16,329.09,408.13Zm-4.72,3.33c2.37,0,4.27.06,6.63,0.12h0c4,0,5.47-.83,5.66-4.52h0c0-2.38-.83-3.57-2.61-4.27h0c1.53-.55,2.33-1.69,2.34-3.71h0c-0.14-3.54-1.57-4.74-5.6-4.93h0c-2.13,0-4.13-.09-6.43-0.11h0v2.82h0c0.83,0.23.86,0.64,0.86,1.81h0v8.07h0c0,1.18,0,1.57-.86,1.8h0v2.93ZM329.09,401v-3.55h0c0.47,0,1,0,1.48,0h0c1.43,0.06,2,.43,2,1.91h0c0,1.37-.72,1.64-2,1.63h0Z" transform="translate(-214.14 -252.04)"/>
  <path class="cls-26" d="M338.53,408.93c0.84-.18.86-0.57,0.86-1.76h0v-8.07h0c0-1.18,0-1.57-.86-1.85h0v-2.81h0c4.09,0.19,7.7.42,11.78,0.75h0v5.32h0l-3.63-.27h0V400h0c0-1.44-.52-1.82-2-1.94h0l-1.42-.09h0v3.64h0l4.57,0.3h0v2.94h0c-1.54-.12-3-0.21-4.57-0.3h0v4.2h0l1.69,0.11h0c1.43,0.06,1.73-.33,1.74-1.76h0V406.5h0c1.24,0.08,2.44.17,3.63,0.27h0v5.84h0c-4.09-.32-7.7-0.55-11.78-0.75h0v-2.93Z" transform="translate(-214.14 -252.04)"/>
  <path class="cls-26" d="M352.17,409.83c0.83-.15.86-0.55,0.86-1.73h0V400h0c0-1.18,0-1.59-.86-1.88h0v-2.82h0c4.09,0.33,7.7.71,11.78,1.18h0v5.33h0l-3.62-.4h0v-0.19h0c0-1.44-.52-1.83-2-2h0l-1.42-.14h0v3.63h0l4.57,0.47h0v2.93h0c-1.54-.18-3-0.31-4.57-0.47h0v4.2h0c0.59,0,1.09.12,1.69,0.17h0c1.43,0.11,1.73-.28,1.73-1.7h0v-0.63h0l3.62,0.4h0v5.84h0c-4.09-.47-7.64-0.84-11.78-1.18h0v-2.93Z" transform="translate(-214.14 -252.04)"/>
  <path class="cls-26" d="M370.57,404.75v-4.15h0l1.55,0.21h0a2.06,2.06,0,0,1,2,2.39h0c0,1.53-.62,1.91-2,1.75h0C371.54,404.86,371.1,404.81,370.57,404.75Zm0,5.28v-2.21h0l1.19,0.17h0c1.66,0.25,2,.71,2,2.44h0v2.23h0a7.56,7.56,0,0,0,.33,2.61h0c1.42,0.2,2.72.39,4.14,0.61h0v-2.93h0c-0.65-.27-0.72-0.73-0.72-1.87h0v-0.94h0c0-1.68-.47-2.38-2.13-3.06h0c1.66-.31,2.53-1.41,2.54-3.65h0c-0.13-3.79-1.65-5.22-5.51-5.83h0c-2.37-.32-4.2-0.56-6.56-0.85h0v2.81h0c0.83,0.33.85,0.75,0.85,1.91h0v8.07h0c0,1.19,0,1.58-.85,1.7h0v2.93h0c1.95,0.23,3.66.45,5.55,0.71h0v-2.93h0C370.57,411.62,370.57,411.2,370.57,410Z" transform="translate(-214.14 -252.04)"/>
  <path class="cls-7" d="M409.87,361.76a2.25,2.25,0,1,1,2.23-2.26A2.24,2.24,0,0,1,409.87,361.76Zm0,0.52a2.77,2.77,0,1,0-2.76-2.78A2.77,2.77,0,0,0,409.87,362.28Zm0.64-2.53a0.73,0.73,0,0,0,.81-0.81,0.87,0.87,0,0,0-.35-0.78,1.61,1.61,0,0,0-.81-0.15h-1.43v3h0.58v-1.27h0.58l0.66,1.27h0.68Zm-1.2-.44v-0.84H410c0.29,0,.71,0,0.71.39s-0.24.46-.56,0.45h-0.87Z" transform="translate(-214.14 -252.04)"/>
</svg>
