<svg id="Logos" xmlns="http://www.w3.org/2000/svg" xmlns:xlink="http://www.w3.org/1999/xlink" viewBox="0 0 248.88 202.1">
  <defs>
    <style>
      .cls-1 {
        fill: #ed1c2e;
      }

      .cls-1, .cls-17, .cls-18, .cls-19, .cls-2, .cls-20, .cls-21, .cls-22, .cls-23, .cls-24, .cls-25, .cls-26, .cls-27, .cls-28, .cls-32, .cls-33 {
        fill-rule: evenodd;
      }

      .cls-2, .cls-29 {
        fill: none;
      }

      .cls-2 {
        stroke: #ffd65a;
        stroke-width: 1.79px;
      }

      .cls-17, .cls-3 {
        fill: #5e3300;
      }

      .cls-4 {
        fill: url(#linear-gradient);
      }

      .cls-5 {
        fill: url(#linear-gradient-2);
      }

      .cls-6 {
        fill: url(#linear-gradient-3);
      }

      .cls-7 {
        fill: url(#linear-gradient-4);
      }

      .cls-8 {
        fill: url(#linear-gradient-5);
      }

      .cls-9 {
        fill: url(#linear-gradient-6);
      }

      .cls-10 {
        fill: url(#linear-gradient-7);
      }

      .cls-11 {
        fill: url(#linear-gradient-8);
      }

      .cls-12 {
        fill: url(#linear-gradient-9);
      }

      .cls-13 {
        fill: url(#linear-gradient-10);
      }

      .cls-14 {
        fill: url(#linear-gradient-11);
      }

      .cls-15 {
        fill: url(#linear-gradient-12);
      }

      .cls-16 {
        fill: url(#linear-gradient-13);
      }

      .cls-18 {
        fill: url(#linear-gradient-14);
      }

      .cls-19 {
        fill: url(#linear-gradient-15);
      }

      .cls-20 {
        fill: url(#radial-gradient);
      }

      .cls-21 {
        fill: url(#linear-gradient-16);
      }

      .cls-22 {
        fill: url(#linear-gradient-17);
      }

      .cls-23 {
        fill: url(#radial-gradient-2);
      }

      .cls-24 {
        fill: url(#Dog_Gradient_radial);
      }

      .cls-25 {
        fill: url(#radial-gradient-3);
      }

      .cls-26, .cls-30 {
        fill: #fff;
      }

      .cls-27 {
        fill: url(#radial-gradient-4);
      }

      .cls-28 {
        fill: url(#radial-gradient-5);
      }

      .cls-29 {
        stroke: #fff;
        stroke-linecap: round;
        stroke-width: 1.13px;
      }

      .cls-31 {
        fill: #579acd;
        stroke-width: 0.61px;
      }

      .cls-31, .cls-33 {
        stroke: #5e3300;
      }

      .cls-32 {
        fill: url(#radial-gradient-6);
      }

      .cls-33 {
        fill: #ffd65a;
        stroke-width: 1.28px;
      }
    </style>
    <linearGradient id="linear-gradient" x1="246.6" y1="-326.55" x2="249.39" y2="-317.2" gradientTransform="translate(-117.82 389.25) scale(0.86)" gradientUnits="userSpaceOnUse">
      <stop offset="0" stop-color="#fff"/>
      <stop offset="0.35" stop-color="#fff2d2"/>
      <stop offset="0.71" stop-color="#ffdf85"/>
      <stop offset="1" stop-color="#ffd65a"/>
    </linearGradient>
    <linearGradient id="linear-gradient-2" x1="305.38" y1="-338.48" x2="306.36" y2="-328.14" xlink:href="#linear-gradient"/>
    <linearGradient id="linear-gradient-3" x1="-26.89" y1="33.08" x2="-22.84" y2="38.85" gradientTransform="translate(184.75 109.08) scale(1.18)" gradientUnits="userSpaceOnUse">
      <stop offset="0" stop-color="#fff"/>
      <stop offset="0.01" stop-color="#fffdf5"/>
      <stop offset="0.06" stop-color="#fff4d1"/>
      <stop offset="0.12" stop-color="#ffecb1"/>
      <stop offset="0.19" stop-color="#ffe595"/>
      <stop offset="0.26" stop-color="#ffdf7f"/>
      <stop offset="0.34" stop-color="#ffdb6e"/>
      <stop offset="0.45" stop-color="#ffd863"/>
      <stop offset="0.59" stop-color="#ffd65c"/>
      <stop offset="1" stop-color="#ffd65a"/>
    </linearGradient>
    <linearGradient id="linear-gradient-4" x1="-84.12" y1="59.92" x2="-76.43" y2="66.76" xlink:href="#linear-gradient-3"/>
    <linearGradient id="linear-gradient-5" x1="265.95" y1="-317.07" x2="277.17" y2="-277.08" gradientTransform="translate(-117.82 389.25) scale(0.86)" gradientUnits="userSpaceOnUse">
      <stop offset="0" stop-color="#fff"/>
      <stop offset="0.27" stop-color="#fff3cf"/>
      <stop offset="0.77" stop-color="#ffde7b"/>
      <stop offset="1" stop-color="#ffd65a"/>
    </linearGradient>
    <linearGradient id="linear-gradient-6" x1="13.53" y1="28.32" x2="13.53" y2="39" gradientTransform="translate(116.2 26) scale(1.18)" xlink:href="#linear-gradient-3"/>
    <linearGradient id="linear-gradient-7" x1="344.22" y1="-341.25" x2="344.64" y2="-330.49" xlink:href="#linear-gradient"/>
    <linearGradient id="linear-gradient-8" x1="394.1" y1="-340.84" x2="393.54" y2="-331.76" xlink:href="#linear-gradient"/>
    <linearGradient id="linear-gradient-9" x1="369.32" y1="-334.08" x2="368.35" y2="-284.34" xlink:href="#linear-gradient-5"/>
    <linearGradient id="linear-gradient-10" x1="77.93" y1="46.69" x2="73.44" y2="54.59" gradientTransform="translate(116.2 26) scale(1.18)" xlink:href="#linear-gradient-3"/>
    <linearGradient id="linear-gradient-11" x1="88.25" y1="26.88" x2="85.69" y2="36.07" xlink:href="#linear-gradient-3"/>
    <linearGradient id="linear-gradient-12" x1="76.39" y1="-4.89" x2="74.89" y2="2.38" gradientTransform="translate(184.75 109.08) scale(1.18)" xlink:href="#linear-gradient"/>
    <linearGradient id="linear-gradient-13" x1="461.73" y1="-321.74" x2="451" y2="-263.71" xlink:href="#linear-gradient-5"/>
    <linearGradient id="linear-gradient-14" x1="360.98" y1="-189.38" x2="356.66" y2="-215.28" gradientTransform="translate(-117.25 389.16) scale(0.86)" gradientUnits="userSpaceOnUse">
      <stop offset="0" stop-color="#7d511c"/>
      <stop offset="0.08" stop-color="#8e6429"/>
      <stop offset="0.33" stop-color="#bf984d"/>
      <stop offset="0.55" stop-color="#e2bd67"/>
      <stop offset="0.72" stop-color="#f7d577"/>
      <stop offset="0.83" stop-color="#ffdd7d"/>
    </linearGradient>
    <linearGradient id="linear-gradient-15" x1="141.44" y1="-398.48" x2="182.53" y2="-398.48" gradientTransform="translate(504.75 379.39) rotate(-83.23) scale(0.86)" gradientUnits="userSpaceOnUse">
      <stop offset="0" stop-color="#845a28"/>
      <stop offset="0.43" stop-color="#ffdd7d"/>
    </linearGradient>
    <radialGradient id="radial-gradient" cx="-16.7" cy="112.68" r="45.41" gradientTransform="translate(195.25 71.59) scale(0.86)" gradientUnits="userSpaceOnUse">
      <stop offset="0.38" stop-color="#ffdd7d"/>
      <stop offset="0.5" stop-color="#fcda7b"/>
      <stop offset="0.6" stop-color="#f2cf73"/>
      <stop offset="0.7" stop-color="#e1bd67"/>
      <stop offset="0.8" stop-color="#caa456"/>
      <stop offset="0.89" stop-color="#ac843f"/>
      <stop offset="0.98" stop-color="#885d24"/>
      <stop offset="1" stop-color="#7d511c"/>
    </radialGradient>
    <linearGradient id="linear-gradient-16" x1="376.2" y1="-274.77" x2="369.64" y2="-264.72" gradientTransform="translate(-117.25 389.16) scale(0.86)" gradientUnits="userSpaceOnUse">
      <stop offset="0" stop-color="#7d511c"/>
      <stop offset="0.12" stop-color="#895e25"/>
      <stop offset="0.33" stop-color="#a8803c"/>
      <stop offset="0.61" stop-color="#dbb662"/>
      <stop offset="0.8" stop-color="#ffdd7d"/>
    </linearGradient>
    <linearGradient id="linear-gradient-17" x1="380.73" y1="-275.52" x2="368.12" y2="-262.08" gradientTransform="translate(-117.25 389.16) scale(0.86)" gradientUnits="userSpaceOnUse">
      <stop offset="0" stop-color="#7d511c"/>
      <stop offset="0.07" stop-color="#91672b"/>
      <stop offset="0.19" stop-color="#b38b44"/>
      <stop offset="0.32" stop-color="#cea959"/>
      <stop offset="0.47" stop-color="#e4c069"/>
      <stop offset="0.62" stop-color="#f3d074"/>
      <stop offset="0.78" stop-color="#fcda7b"/>
      <stop offset="1" stop-color="#ffdd7d"/>
    </linearGradient>
    <radialGradient id="radial-gradient-2" cx="141.44" cy="-399.15" r="24.75" gradientTransform="translate(-27.04 696.96) scale(1.18)" gradientUnits="userSpaceOnUse">
      <stop offset="0.19" stop-color="#ffdd7d"/>
      <stop offset="0.35" stop-color="#ffdd7d"/>
      <stop offset="0.36" stop-color="#ffdd7d"/>
      <stop offset="0.44" stop-color="#f9d678"/>
      <stop offset="0.57" stop-color="#e7c46b"/>
      <stop offset="0.71" stop-color="#cba556"/>
      <stop offset="0.87" stop-color="#a47b39"/>
      <stop offset="1" stop-color="#7d511c"/>
    </radialGradient>
    <radialGradient id="Dog_Gradient_radial" data-name="Dog Gradient/radial" cx="303.78" cy="-199.61" r="40.56" gradientTransform="translate(-117.25 389.16) scale(0.86)" gradientUnits="userSpaceOnUse">
      <stop offset="0.08" stop-color="#ffdd7d"/>
      <stop offset="0.26" stop-color="#fcda7b"/>
      <stop offset="0.42" stop-color="#f2cf73"/>
      <stop offset="0.56" stop-color="#e1bd67"/>
      <stop offset="0.7" stop-color="#caa456"/>
      <stop offset="0.83" stop-color="#ac843f"/>
      <stop offset="0.97" stop-color="#885d24"/>
      <stop offset="1" stop-color="#7d511c"/>
    </radialGradient>
    <radialGradient id="radial-gradient-3" cx="306.08" cy="-244.6" r="18.55" gradientTransform="translate(-117.25 389.16) scale(0.86)" gradientUnits="userSpaceOnUse">
      <stop offset="0.19" stop-color="#ffdd7d"/>
      <stop offset="0.33" stop-color="#fcda7a"/>
      <stop offset="0.46" stop-color="#f2cf73"/>
      <stop offset="0.57" stop-color="#e1bd66"/>
      <stop offset="0.69" stop-color="#c9a453"/>
      <stop offset="0.8" stop-color="#aa843b"/>
      <stop offset="0.9" stop-color="#855d1f"/>
      <stop offset="1" stop-color="#5e3300"/>
    </radialGradient>
    <radialGradient id="radial-gradient-4" cx="436.4" cy="-181.78" r="11.3" gradientTransform="translate(-117.25 389.16) scale(0.86)" gradientUnits="userSpaceOnUse">
      <stop offset="0" stop-color="#ffdd7d"/>
      <stop offset="0.19" stop-color="#fcda7b"/>
      <stop offset="0.36" stop-color="#f2cf73"/>
      <stop offset="0.52" stop-color="#e1bd67"/>
      <stop offset="0.67" stop-color="#caa456"/>
      <stop offset="0.82" stop-color="#ac843f"/>
      <stop offset="0.96" stop-color="#885d24"/>
      <stop offset="1" stop-color="#7d511c"/>
    </radialGradient>
    <radialGradient id="radial-gradient-5" cx="435.2" cy="-189.76" r="7.33" gradientTransform="translate(-117.25 389.16) scale(0.86)" gradientUnits="userSpaceOnUse">
      <stop offset="0.27" stop-color="#ffdd7d"/>
      <stop offset="0.41" stop-color="#fcda7b"/>
      <stop offset="0.53" stop-color="#f2cf73"/>
      <stop offset="0.65" stop-color="#e1bd67"/>
      <stop offset="0.76" stop-color="#caa456"/>
      <stop offset="0.87" stop-color="#ac843f"/>
      <stop offset="0.97" stop-color="#885d24"/>
      <stop offset="1" stop-color="#7d511c"/>
    </radialGradient>
    <radialGradient id="radial-gradient-6" cx="-56.75" cy="170.54" r="31.84" gradientTransform="translate(195.25 71.59) scale(0.86)" gradientUnits="userSpaceOnUse">
      <stop offset="0.17" stop-color="#ffdd7d"/>
      <stop offset="0.34" stop-color="#fcda7b"/>
      <stop offset="0.48" stop-color="#f3d074"/>
      <stop offset="0.61" stop-color="#e3bf68"/>
      <stop offset="0.73" stop-color="#cca757"/>
      <stop offset="0.84" stop-color="#b08742"/>
      <stop offset="0.96" stop-color="#8d6228"/>
      <stop offset="1" stop-color="#7d511c"/>
    </radialGradient>
  </defs>
  <title>mug_logo</title>
  <path class="cls-1" d="M71.61,100l-3.07,1.9L68.86,223,72,224.91c1.46,0.88,36.83,21.62,123.82,22,78.5,0.32,116.78-21,118.38-21.9l3.25-1.85v-119l-2.11-1.92c-2.14-2-23.67-19-118.3-19.08C100.13,83,72.73,99.32,71.61,100Z" transform="translate(-68.55 -83.08)"/>
  <path class="cls-2" d="M75,105.5s25.84-16,122-16c94.87,0.05,114,17.4,114,17.4V219.38s-37.47,21.37-115.15,21.05c-86.21-.36-120.51-21.05-120.51-21.05Z" transform="translate(-68.55 -83.08)"/>
  <g>
    <g>
      <path class="cls-3" d="M122.09,141.54l13-38.4-2.85-3.62L121.2,132.15h0l0.88,9.37Z" transform="translate(-68.55 -83.08)"/>
      <path class="cls-4" d="M104.19,110.11l1.9-4.51v0L83.8,111.74v0l3.78,2.94Z" transform="translate(-68.55 -83.08)"/>
      <path class="cls-5" d="M135.13,103.13l19.73-1.74h0l3.72-4.17V97.18l-26.3,2.33v0l2.85,3.62v0Z" transform="translate(-68.55 -83.08)"/>
      <path class="cls-3" d="M87.12,129.35c0.17-5.48.36-11.5,0.46-14.64h0l-3.78-2.94L83.07,135l4.07-5.65h0Z" transform="translate(-68.55 -83.08)"/>
      <polygon class="cls-3" points="81.13 71.58 85.25 64.7 85.25 64.7 86.31 35.95 82.54 33.34 81.13 71.58"/>
      <path class="cls-3" d="M155.37,165.33h0l3.88,2.27,0,0-0.36-22.67-3.76,6.61C155.24,157.22,155.33,162.81,155.37,165.33Z" transform="translate(-68.55 -83.08)"/>
      <path class="cls-6" d="M149.67,154.7l5.48-3.22v0l3.76-6.61v-0.13l-5.11,3-4.13,6.88v0Z" transform="translate(-68.55 -83.08)"/>
      <path class="cls-3" d="M155.34,114.6l-4.25,1.82h0l3.77,2.61v0l4.44-1.89h0l-4-2.52h0Z" transform="translate(-68.55 -83.08)"/>
      <path class="cls-3" d="M155.33,114.59l4,2.52-0.71-19.87-3.72,4.17C155,105.69,155.22,111.54,155.33,114.59Z" transform="translate(-68.55 -83.08)"/>
      <path class="cls-3" d="M104.21,110.11l17.86,31.41-0.88-9.37-15.1-26.55-1.9,4.51h0Z" transform="translate(-68.55 -83.08)"/>
      <path class="cls-3" d="M107.73,143v0l3.47,17.43,9.25,21v0l0.16-9.19Z" transform="translate(-68.55 -83.08)"/>
      <path class="cls-3" d="M87.14,129.34L83.07,135v0l5.14-2h0l3.86-5.63Z" transform="translate(-68.55 -83.08)"/>
      <path class="cls-3" d="M159.23,167.6l-3.88-2.27-17,9.48-3.82,6.51v0Z" transform="translate(-68.55 -83.08)"/>
      <path class="cls-3" d="M138.28,174.84c-0.1-7.23-.47-34.5-0.5-37.06l-3.65,16.05,0.38,27.5,3.82-6.51Z" transform="translate(-68.55 -83.08)"/>
      <path class="cls-3" d="M106.63,189.72l3.8,2.43h0l0.75-31.7v0l-3.47-17.43C107.71,143.93,106.72,185.66,106.63,189.72Z" transform="translate(-68.55 -83.08)"/>
      <path class="cls-3" d="M137.76,137.58l-17.11,34.75,0-.06-0.16,9.19,13.66-27.73v0.1l3.65-16.05A1.49,1.49,0,0,0,137.76,137.58Z" transform="translate(-68.55 -83.08)"/>
      <path class="cls-3" d="M91.72,180.88l0.39-53.45,0,0-3.86,5.63-0.33,45.54,3.83,2.27h0Z" transform="translate(-68.55 -83.08)"/>
      <path class="cls-7" d="M87,183.57l4.72-2.68-3.83-2.27h0l-4.79,2.72,3.9,2.24h0Z" transform="translate(-68.55 -83.08)"/>
      <path class="cls-3" d="M106.63,189.75l-19.41,9.8a0.11,0.11,0,0,0,0,0l-3.78,6.26h0l27-13.63-3.8-2.43v0Z" transform="translate(-68.55 -83.08)"/>
      <path class="cls-3" d="M87,183.58l-3.9-2.24h0l0.35,24.44,3.78-6.26C87.12,193.49,87,186.3,87,183.58Z" transform="translate(-68.55 -83.08)"/>
      <path class="cls-8" d="M155.15,151.52v0l-5.48,3.22v0l1.41-38.24h0l4.25-1.82h0c-0.11-3-.31-8.9-0.47-13.19h0l-19.73,1.74v0l-13,38.4,0,0-17.86-31.41h0L87.58,114.7h0c-0.1,3.14-.29,9.16-0.46,14.64h0l4.93-1.89,0,0-0.39,53.45h0L87,183.58c0,2.71.14,9.91,0.23,15.94a0.11,0.11,0,0,1,0,0l19.41-9.8v0c0.09-4.06,1.09-45.8,1.11-46.67v0l12.89,29.24,0,0.06,17.11-34.75a1.49,1.49,0,0,1,0,.19c0,2.56.41,29.83,0.5,37.06l0,0,17-9.48h0C155.33,162.81,155.24,157.22,155.15,151.52Z" transform="translate(-68.55 -83.08)"/>
    </g>
    <g>
      <polygon class="cls-9" points="140.99 63.85 137.16 59.84 137.16 59.88 127.21 59.59 123.28 63.34 140.99 63.85"/>
      <path class="cls-3" d="M191.14,99.46c0.09,6.67.67,47,.67,47h0l3.93-3.75h-0.14L195,95.44l-3.84,4h0Z" transform="translate(-68.55 -83.08)"/>
      <path class="cls-10" d="M191.11,99.46l3.84-4v0l-32.18,1.36v0.06l4,3.64Z" transform="translate(-68.55 -83.08)"/>
      <path class="cls-3" d="M234,113.22l3.86,4.26,0-20.32L234,100.85C234,104.45,234,109.18,234,113.22Z" transform="translate(-68.55 -83.08)"/>
      <path class="cls-3" d="M209.57,146.94V98.88h0l-3.87-4.15v48.19l3.83,4h0Z" transform="translate(-68.55 -83.08)"/>
      <path class="cls-11" d="M234,100.69v0.15l3.87-3.69V97.11L205.7,94.71h0l3.87,4.15Z" transform="translate(-68.55 -83.08)"/>
      <path class="cls-3" d="M223.36,159.56c-3.78,1.57-11.36,1.68-22.49,1.68-11.3,0-18.62-.36-22.59-2.21a6,6,0,0,1-2.51-1.94L173,159.84c3.81,4.55,12,5.27,27.84,5.27,14.69,0,22.29-.24,26.24-3.27l-2.6-2.88A6.48,6.48,0,0,1,223.36,159.56Z" transform="translate(-68.55 -83.08)"/>
      <path class="cls-3" d="M228,113l0.08,4.26c0,0.19.34,19.77-.77,33.66-0.43,5.34-1.44,7.12-2.84,8.05l2.6,2.88c2.65-2,3.67-5.31,4.1-10.61,1.08-13.62.81-32.23,0.78-33.92L228,113h0Z" transform="translate(-68.55 -83.08)"/>
      <path class="cls-3" d="M237.85,117.65v-0.17L234,113.22v0.25L228,113l3.94,4.32c0-.08,0-0.12,0-0.12Z" transform="translate(-68.55 -83.08)"/>
      <path class="cls-3" d="M173.55,112.68h-6.63v-0.09l-3.8,3.88v0.07h6.53l3.9-3.73v-0.14Z" transform="translate(-68.55 -83.08)"/>
      <path class="cls-3" d="M166.7,100.48h0l-4-3.64,0.35,19.63,3.8-3.88C166.85,108.82,166.77,104.22,166.7,100.48Z" transform="translate(-68.55 -83.08)"/>
      <path class="cls-3" d="M174.06,149.34l-0.51-36.52-3.9,3.73h0.09s0.25,19.83.46,32.86c0.08,4.77.87,8.11,2.82,10.44l2.75-2.75C174.8,155.74,174.12,153.48,174.06,149.34Z" transform="translate(-68.55 -83.08)"/>
      <path class="cls-12" d="M209.58,98.88h0v48.06h0l-17.7-.51h0s-0.58-40.31-.67-47h0l-24.37,1h0c0.07,3.74.15,8.34,0.22,12.11v0.09h6.63v0.14l0.51,36.52c0.06,4.14.74,6.4,1.71,7.76a6,6,0,0,0,2.51,1.94c4,1.85,11.28,2.21,22.59,2.21,11.13,0,18.71-.12,22.49-1.68a6.48,6.48,0,0,0,1.16-.59c1.4-.93,2.41-2.72,2.84-8.05,1.11-13.89.77-33.47,0.77-33.66L228,113h0l5.95,0.47v-0.25c0-4,0-8.77,0-12.37v-0.15Z" transform="translate(-68.55 -83.08)"/>
    </g>
    <g>
      <path class="cls-3" d="M285.24,158.86h0l-3.86,2.4,0,5.62,3.83,7.2Z" transform="translate(-68.55 -83.08)"/>
      <polygon class="cls-13" points="195.51 77.52 216.61 91.06 216.61 90.99 212.78 83.79 212.78 84.01 199.56 75.53 195.51 77.51 195.51 77.52"/>
      <polygon class="cls-3" points="196.37 33.71 195.51 77.51 199.56 75.53 199.41 75.43 200.13 39 200.25 39.04 196.38 33.71 196.37 33.71"/>
      <path class="cls-3" d="M278.06,141.27l-3.61-5.36-0.08,0-0.7,21.32,3.94-2.46C277.71,151.9,277.9,146.18,278.06,141.27Z" transform="translate(-68.55 -83.08)"/>
      <path class="cls-3" d="M277.61,154.93c0-.06,0-0.13,0-0.19l-3.94,2.46v0l7.7,4v0l3.86-2.4Z" transform="translate(-68.55 -83.08)"/>
      <path class="cls-14" d="M278.06,141.15L298.93,148l3.95-2.56v-0.21l-28.43-9.31,3.61,5.36S278.06,141.19,278.06,141.15Z" transform="translate(-68.55 -83.08)"/>
      <path class="cls-3" d="M285.58,123.53l-20.66-6.74,3.87,5.33,12.92,4.22v0.09l3.86-2.71v-0.18Z" transform="translate(-68.55 -83.08)"/>
      <path class="cls-3" d="M298.53,197.69c-1.78-.09-6-1-14.82-5.75-6.74-3.65-12.9-7.81-14.06-8.6l-0.25-.16c-10.29-6.16-21.92-13.13-23.1-15.5l-3.42,1.8c1.71,3.13,8.52,7.42,24.53,17,0.07,0,25.72,17.8,33.64,14.72l-2.51-3.58A0.51,0.51,0,0,0,298.53,197.69Z" transform="translate(-68.55 -83.08)"/>
      <path class="cls-3" d="M246.26,167.62c-0.61-4.55-.81-14.55-0.81-24.89,0-12.94.32-26.41,0.57-30.44,0.29-4.87,1.28-7.26,2.21-8.43l-2.2-3.3c-2.38,2.2-3.55,6.19-3.88,11.49-0.42,7-1.17,45.59.29,56.21a3.48,3.48,0,0,0,.43,1.22l3.42-1.8Z" transform="translate(-68.55 -83.08)"/>
      <path class="cls-3" d="M302.9,175.88c-0.07-12.5,0-28.46,0-30.45L298.93,148l0.07,0c0,2.39,0,6.09,0,10.36,0,5.47,0,11.85,0,17.53v1.82c0,2,0,4.21,0,6.4a104.63,104.63,0,0,1-.54,13.49L301,201.2h0C303.18,200.38,303,188.79,302.9,175.88Z" transform="translate(-68.55 -83.08)"/>
      <path class="cls-3" d="M298.3,134l3.8,5.32,0.36-29-3.9,2.85C298.51,117,298.37,127.87,298.3,134Z" transform="translate(-68.55 -83.08)"/>
      <path class="cls-15" d="M248.74,103.31a4.09,4.09,0,0,1,3.3-.78c14.43,1.28,38.44,8.13,46.53,10.53,0,0,0,.08,0,0.12l3.9-2.85V110.2s-32-9.91-50.08-11.52a7.87,7.87,0,0,0-6.35,1.87l2.2,3.3A3.75,3.75,0,0,1,248.74,103.31Z" transform="translate(-68.55 -83.08)"/>
      <path class="cls-3" d="M298.3,134.06l-12.64-4.22-3.83,2.8,20.26,6.77v0L298.3,134h0Z" transform="translate(-68.55 -83.08)"/>
      <path class="cls-3" d="M285.59,129.81c0-1.51,0-5.23,0-6.1l-3.86,2.71v6.17l0.11,0,3.83-2.8Z" transform="translate(-68.55 -83.08)"/>
    </g>
    <path class="cls-16" d="M299.05,177.73v-1.82c0-5.68,0-12.06,0-17.53,0-4.27,0-8,0-10.36l-0.07,0-20.87-6.84s0,0.08,0,.12c-0.16,4.91-.35,10.64-0.45,13.47,0,0.06,0,.13,0,0.19l7.61,3.93h0l-0.08,15.21v0.08l-21.1-13.55h0l0.86-43.8h0l20.66,6.74v0.18c0,0.87,0,4.58,0,6.1l0.07,0,12.64,4.22h0c0.08-6.17.21-17,.26-20.87,0,0,0-.08,0-0.12-8.09-2.39-32.09-9.24-46.53-10.53a4.09,4.09,0,0,0-3.3.78,3.75,3.75,0,0,0-.51.54c-0.93,1.17-1.92,3.56-2.21,8.43-0.25,4-.57,17.51-0.57,30.44,0,10.34.2,20.34,0.81,24.89l0,0.05c1.18,2.37,12.81,9.33,23.1,15.5l0.25,0.16c1.16,0.79,7.32,5,14.06,8.6,8.83,4.78,13,5.67,14.82,5.75a0.51,0.51,0,0,1,0-.06,104.63,104.63,0,0,0,.54-13.49C299.08,181.94,299.07,179.74,299.05,177.73Z" transform="translate(-68.55 -83.08)"/>
  </g>
  <g>
    <path class="cls-17" d="M160,169s-3.39-4.29-5.64-3.84S146,168.6,146,168.6s-4.74-.45-5.65.22-5.87,7.68-3.39,11.07,2.94,4.06,2.94,5-1.56,5.7,1.86,5.7c1.58,0-1.18,2-1.18,2s-9,3.16-12.88,15.13-3.94,29.19,1.48,31.68,67.64,4.68,69.9,5.13,56.24-4.07,57.37-4.74,9.71-6.1,4.52-12c-0.33-.38,5-3.39-1.58-8.13,0,0-39.08-43.37-39.75-44s-8.17-4.81-6.78-10.39c0.22-.9,3.84-0.22,5.2-6.1,0.55-2.38-2-2-3.61-3.84-2.07-2.46-3.53-6.87-5.2-7a52.21,52.21,0,0,1-6.1,1.35c-1.13,0-5.2-2.71-7-2.26s-6.55,1.58-6.55,9.71c0,2.49-2.48,2.26-3.61,3.84s-7.23,1.81-7.68,3.84-5.42-.68-6.55,1.81S162,165.88,160,169h0Z" transform="translate(-68.55 -83.08)"/>
    <path class="cls-18" d="M191.6,196.15c-4.39.15-10.07,1.58-18.07,0.91,0,0-3.16,20.55-1.59,23s17.31,10,24.17-.22c0.45-.67,7.23,4.06,13.77-1.13s-2.7-23.49-4.28-23.72c-1.15-.17-2.29.73-14,1.13h0Z" transform="translate(-68.55 -83.08)"/>
    <path class="cls-19" d="M198.92,158.46l-4.49.33,1.44-3.85s10.6,9.57,13.71,8.79,6.95,0.05,6.95-3.94c0-4.39-3.33-.45-6.43-2.52s-10.07-9.77-15.5-7.44-0.44,4.23-4.32,9.13-4.23,4.25-4.23,4.25-4.54-.12-6.24,3.56c-1,2.15-5.28,0-7.64,2.32-0.83.83-12.1,1.66-14.69,3.21s-6,1.39-9.79,18.68c-3.46,15.68-2,23,5.34,30.53,1.54,1.61,3.68-1.75,17,3.76,1.4,0.58-2.6-29.26,7.5-33.87,2.63-1.2,2.46,4.45,2.46,4.45s21.59-1.08,21.84-2.12,0.44-5.48,2.25-4.2,3.18,7.66,3.18,7.66l1.32-.38s-1.15-9.34.81-13.1c2.58-4.92,8.13-7.18,8-7.32-8.78-6.64-5.61-11.56-6.46-11.37-1.41.3-10-3.24-12-6.56h0Z" transform="translate(-68.55 -83.08)"/>
    <path class="cls-20" d="M200.67,160.48c6,4.08,9.53,4.76,10.19,4.54,0.86-.18-2.32,4.74,6.46,11.37,0.18,0.14-5.37,2.39-8,7.32-0.27.52,0.65,2.1-.48,1.88-7.07-7.24-6.56-4.88-11.95-7.07a28.14,28.14,0,0,0-8.25,0c-4.54.67-3.2-2.52-3.2-2.52s-1.34-.17-1.18-3.87,4.21-6.23,6.9-8.25S200.67,160.48,200.67,160.48Z" transform="translate(-68.55 -83.08)"/>
    <path class="cls-21" d="M194.43,158.79l1.44-3.85s10.6,9.57,13.71,8.79,6.95,0.05,6.95-3.94c0-4.39-3.33-.45-6.43-2.52s-10.07-9.77-15.5-7.44-0.44,4.23-4.32,9.13l4.15-.17h0Z" transform="translate(-68.55 -83.08)"/>
    <path class="cls-22" d="M204.4,150.82s3.66-1.49,4.49-.83,4.15,7.14,4.15,7.14l-2.49.17s-4.65-6.48-6.14-6.48h0Z" transform="translate(-68.55 -83.08)"/>
    <path class="cls-23" d="M145.59,190.52s-2.31,0-2.33.5c-0.16,3.16-5.6,5.22-6.65,6-1.83,1.33-8.33,8.53-9.66,19.17s-0.14,18,2.35,20.7c0.95,1,9.89.07,19.49,0.28,15.67,0.35,34.81,1.38,36.56,1.17,2.83-.33-3.38-5.44-4.55-6.27s-17.44-12.8-33.4-6c-6.56,2.8,4-4,4-4-8.64-10.63-6-14.29-8.14-15.78s-8.31-3.77-4-3c0.83,0.15,3.66.51,4.32,1s2-13.79,2-13.79h0Z" transform="translate(-68.55 -83.08)"/>
    <path class="cls-24" d="M148.79,237.15c15.67,0.35,34.81,1.38,36.56,1.17,2.83-.33-3.38-5.44-4.55-6.27s-18.42-14.11-36.94-4.65Z" transform="translate(-68.55 -83.08)"/>
    <path class="cls-25" d="M158.9,170.45s-4.49-6.83-12.45,0a20.05,20.05,0,0,0-3.84,4.11c-0.52.78,8.27-9.31-3.1-2.59,0,0-2.58,7-.26,9.31s1.81,4.39,1,5.17,1.56,5.95,5.43,1.81,0.26-13.7,13.19-17.84h0Z" transform="translate(-68.55 -83.08)"/>
    <path class="cls-26" d="M174.72,195.87l4.32,0s-0.71-3.63-1.61-3.18-2.7,3.16-2.7,3.16h0Z" transform="translate(-68.55 -83.08)"/>
    <path class="cls-27" d="M252.36,237.11l1.3-5s6.57-2,6.57-3.54,1.84,2.59,1.52,3.37a30.26,30.26,0,0,1-3,4.93c-0.34.5-6.42,0.28-6.42,0.28h0Z" transform="translate(-68.55 -83.08)"/>
    <path class="cls-3" d="M177.37,179.87s-1.59,0-3.74.08c-1.26,0,.3-0.35-4.7-0.15a28.36,28.36,0,0,0-4.72.36,5,5,0,0,0-2.25.72c-1,.8-2.91,4.82-0.83,5.22s8.95,0.6,9.58.2,5-6,6.66-6.43h0Z" transform="translate(-68.55 -83.08)"/>
    <path class="cls-3" d="M199.7,169.12s-7.9,3.23-8.58,3.56l-2.85,2,0.13,0a0.7,0.7,0,0,0-.66.73c0.06,0.7.21,0.73,5.84,1.11,2.09,0.14,4.26.29,5.65,0.47,0.87,0.11,4.42-1.13,5.89-2.33,0.71-.58.5-1.64,0.19-3.06s-1.84-3.18-1.83-3.51-0.44-.35-3.76,1h0Z" transform="translate(-68.55 -83.08)"/>
    <path class="cls-26" d="M202.93,194h2.31s-0.89-4.42-1.78-3.46-0.53,3.46-.53,3.46h0Z" transform="translate(-68.55 -83.08)"/>
    <path class="cls-3" d="M171.6,199.38s3.48-16.86,17.58-18.9,20.23,6.23,20.23,6.23-5.48-10.39-20.8-7.94c-17.81,2.85-17,20.61-17,20.61h0Z" transform="translate(-68.55 -83.08)"/>
    <path class="cls-3" d="M197.84,176.05s12.82,5.34,13.41,7.18c2.25,7.15,3.62-2-7.09-6.06-4.9-1.84,6.47-.43,12.41,6.27,4.07,4.59-8.82-9.2-10.66-9.4s12.7,4.91,14.34,6.34-13.72-7.91-14.12-7.32c-3,4.49-8.28,3-8.28,3h0Z" transform="translate(-68.55 -83.08)"/>
    <path class="cls-3" d="M210.74,212.79L204.68,240l45.23,6.69L256.15,222s12.19-5.48,11.48-13.55c0,0,12.53-12.64-11.08-27.53-10.92-6.88-24.44-1.35-25.62-1.83-27-10.78-22.5,16-22.5,16-7.88,7.07,5,19.9,2.31,17.72h0Z" transform="translate(-68.55 -83.08)"/>
    <path class="cls-26" d="M210.53,212.25L204.31,240s26.77-16.23,26.06-24.29c0,0-16.42,1.93-19.84-3.5h0Z" transform="translate(-68.55 -83.08)"/>
    <path class="cls-3" d="M211.94,214l-5.32,22.76,42.18,5.31,6-21.45s2.84-8.69,2.84-12.54c0-.89-6.64-2.22-14.28-4.31-5.63-1.54-8.91-3.87-11.6-4-0.37,0-18.77-7.28-13.21.54,3.23,4.54-4,6.2-6.57,13.74h0Z" transform="translate(-68.55 -83.08)"/>
    <path class="cls-26" d="M211.75,181.78c3.83-4.22,11.49-6.45,19.1.17,0,0,5.47-2.61,7.46-2.61s13.22-1.36,20.19,4.29,9.48,9.12,10.55,12.44c0.72,2.21-.31,10.7-2.82,11.46-0.76.23,0.83,2.82-.5,4.65s-6.43,8.19-8.47,8c-4.66-.5-4.32-11-5.65-11.63s-4.82,3-11,.83-6.64-5.48-9.63-6.47a9.89,9.89,0,0,0-7.64.5c-2.16,1-6.65,9.47-9.47,9.3s-8.1-11.13-4.38-16.72c0.18-.26-1.25-10.37,2.22-14.18h0Z" transform="translate(-68.55 -83.08)"/>
    <path class="cls-3" d="M222.28,198.15s2.66-2.66,5.93-2.45,11.24,6.5,12.46,6.74a32.88,32.88,0,0,0,12.26-.2s-8.87-.58-11-1.22c-4.09-1.22-11-6.74-13.49-6.34s-6.13,3.47-6.13,3.47h0Z" transform="translate(-68.55 -83.08)"/>
    <path class="cls-17" d="M185.5,199s4,1.57,5.29,1.42,2.72-2,4.29-1.85,5.71-1.57,6.58-1.57a34.78,34.78,0,0,0-6.29-.28c-0.86.28-4,2-5.15,2s-4.71.29-4.71,0.29h0Z" transform="translate(-68.55 -83.08)"/>
    <path class="cls-26" d="M210.84,224.61s4.84-1.38,6.22.46S218,235.9,218,235.9s2.76-10.14-.23-11.52-6.91.23-6.91,0.23h0Z" transform="translate(-68.55 -83.08)"/>
    <path class="cls-26" d="M221.21,228.53s7.3-1.31,9.44-.46c6.45,2.54,5.53,9.45,5.53,9.45s2.77-7.6-5.29-10.37c-3.12-1.07-9.68,1.38-9.68,1.38h0Z" transform="translate(-68.55 -83.08)"/>
    <path class="cls-26" d="M238.71,232.67s6.44-3,9.44-.23c1.69,1.56,1.5,7.25,1.5,7.25s1.42-6.88-1.5-8.4c-4.84-2.53-9.44,1.38-9.44,1.38h0Z" transform="translate(-68.55 -83.08)"/>
    <path class="cls-3" d="M171.7,187.37l-4.08,6.13s-2,4.55-2,6.59a26.69,26.69,0,0,0,0,4.32c0.22,1.13-.23,5,0.68,8.17s-1.59-7.95-1.82-9.08,0.46-5,.46-6.13,4.77-8.86,6.81-10h0Z" transform="translate(-68.55 -83.08)"/>
    <path class="cls-3" d="M161.37,191.1L158.74,198s-1,4.88-.54,6.88a27,27,0,0,0,1,4.21c0.47,1.05.89,4.92,2.48,7.82s-3.31-7.4-3.79-8.46-0.66-5-.91-6.08,2.69-9.69,4.43-11.26h0Z" transform="translate(-68.55 -83.08)"/>
    <path class="cls-28" d="M254,230.46l2.61-9.35s5.85,2.22,4.84,3.74-4.25,5.82-7.45,5.62h0Z" transform="translate(-68.55 -83.08)"/>
    <path class="cls-17" d="M204.2,163.82c-5.27,0-9.4,4.14-13.16,7.52a3.25,3.25,0,0,1-2.26,1.13c2.26-1.88,4.51-4.14,6.77-6.39,0.75-.38,1.13-0.75,1.88-1.13,2.26-1.13,4.51-.75,6.77-1.13h0Z" transform="translate(-68.55 -83.08)"/>
    <path class="cls-17" d="M188,167.36c-3.44,3.26-.72-0.54-0.72-0.54s6.44-5.63,13.25-5.89c0,0-9.08,3.17-12.52,6.44h0Z" transform="translate(-68.55 -83.08)"/>
    <path class="cls-17" d="M176.17,200.75c-0.43,3.48-1,4.2,1.52,15.26,0,0-5.24-10.31-1.52-15.26h0Z" transform="translate(-68.55 -83.08)"/>
    <path class="cls-17" d="M174.31,216.94s2.88,4.67,11.78,5.18c0,0-12.38-.6-11.78-5.18h0Z" transform="translate(-68.55 -83.08)"/>
    <path class="cls-17" d="M131.52,220.8s-2.91,7.63-.63,13.62a12.67,12.67,0,0,1,.63-13.62h0Z" transform="translate(-68.55 -83.08)"/>
    <path class="cls-29" d="M220.72,226.92l5.37-23m-5.37,23" transform="translate(-68.55 -83.08)"/>
    <path class="cls-29" d="M238.48,230.71L243,211.5m-4.5,19.21" transform="translate(-68.55 -83.08)"/>
    <path class="cls-17" d="M162,180.88a16.08,16.08,0,0,0-8,7.78s-2.82,2-3.76,3.95a10.69,10.69,0,0,0-.57,4.8s0.09-5.36,4.61-8c0,0,2.26-2.64,4.89-3.2a19.56,19.56,0,0,0-3.76,5.45s-4.89,6-3.29,12.79c0,0-.48-7.15,3.76-12.41,0,0,5.36-7.43,7.34-3.95,0,0-2,1.13-3.76,6.39l0.47,0.28s2.63-8.08,9.4-8.37-0.19-.28-0.19-0.28l-7.1-5.24h0Z" transform="translate(-68.55 -83.08)"/>
    <path class="cls-26" d="M176,180.26c-4.19.6-2.94,0.21-3.62,0.23-1,0,0,2.8-4,3-3.7.16-2.39-2.68-3.54-2.56a5.64,5.64,0,0,0-1.85.36c-0.84.68-2.35,4-.67,4.38s7.24,0.51,7.74.17,4.63-5.21,6-5.55h0Z" transform="translate(-68.55 -83.08)"/>
    <path class="cls-17" d="M181.54,188.32s-3.77,1.89-4.54-.34c-1-2.76,3.72-12.14,22.25-8.86,1.66,0.29.3,4.65-.21,5.5s-4.37-1.34-5.55,1.52-1.7,10.56-1.85,9.58c-1-6.56-4.54-9.59-6.56-9.25a7.35,7.35,0,0,0-3.53,1.85h0Z" transform="translate(-68.55 -83.08)"/>
    <path class="cls-30" d="M172.25,181.79c0,1.38-1.73,2.5-3.86,2.5s-3.86-1.12-3.86-2.5,1.56-1.86,3.94-1.86c2.8,0,3.79.48,3.79,1.86h0Z" transform="translate(-68.55 -83.08)"/>
    <path class="cls-31" d="M172.25,181.79c0,1.38-1.73,2.5-3.86,2.5s-3.86-1.12-3.86-2.5,1.56-1.86,3.94-1.86c2.8,0,3.79.48,3.79,1.86h0Z" transform="translate(-68.55 -83.08)"/>
    <path class="cls-17" d="M172,180.19a13.67,13.67,0,0,0-4-.43,5.38,5.38,0,0,0-2.74.77,2.6,2.6,0,0,0,2.88,2.32c3.87,0,3.82-2.67,3.82-2.67h0Z" transform="translate(-68.55 -83.08)"/>
    <path class="cls-3" d="M158.11,180s5.07-2.53,8.67-2c0,0,7.2,1.18,8.81.19,0,0-6.7-.52-8.74-1.37,0,0-6,1-8.74,3.21h0Z" transform="translate(-68.55 -83.08)"/>
    <path class="cls-17" d="M154.14,179.32s2-3.7,4-4.77c0,0,6.11-2,11.5-.9l3.85,0.95s3.45,0.1,3.93-.41a11.87,11.87,0,0,1-3.91,1.59s-4.25-2.05-6.63-1.64c0,0-6.27,0-8.63,1.6a15,15,0,0,0-4.11,3.59h0Z" transform="translate(-68.55 -83.08)"/>
    <path class="cls-17" d="M173.91,169.54s4.9,0.27,6.08,1.63c0,0,.63-3.27,1.9-3.81a3.07,3.07,0,0,0-2.45,2.54s-4.27-1.27-5.53-.36h0Z" transform="translate(-68.55 -83.08)"/>
    <path class="cls-17" d="M175.89,180.76c-3.6,2.69-2.12-.61-1.08-0.79,2.49-.44,4-3.07,5.35-4.08a2.77,2.77,0,0,0-.17-4.38c-1.51-1,2.36,1.85,4,2.86s2,0,2,0-2.52-1.68-1.68-4.2,5.21-5,5.72-5-5,4.88-4.71,5.89a35.56,35.56,0,0,0,2.38,4.14s14.63-6.63,15.19-7.25c2.86-3.2,4.13,4.62,3,6.13s-3.87,2.36-5,2.69-14.95-1.52-16.72-.43c-0.32.2-6.28,3-8.23,4.46h0Z" transform="translate(-68.55 -83.08)"/>
    <path class="cls-26" d="M188.91,175s1.15-.56,2.73-1.3c0.93-.43,1.26,2.49,4.95.82,3.37-1.52.93-3.47,2-3.87,0.91-.35,4.22-1.73,4.46-1.68,1.05,0.22,2.7,4,1.34,5a13.21,13.21,0,0,1-5.22,2c-3.42-.42-11.89-0.66-10.26-1h0Z" transform="translate(-68.55 -83.08)"/>
    <path class="cls-30" d="M192.55,174c0.41,1.32,2.39,1.87,4.43,1.24s3.35-2.22,2.94-3.53-2-1.32-4.31-.61c-2.68.83-3.47,1.59-3.07,2.91h0Z" transform="translate(-68.55 -83.08)"/>
    <path class="cls-31" d="M192.55,174c0.41,1.32,2.39,1.87,4.43,1.24s3.35-2.22,2.94-3.53-2-1.32-4.31-.61c-2.68.83-3.47,1.59-3.07,2.91h0Z" transform="translate(-68.55 -83.08)"/>
    <path class="cls-17" d="M192.36,172.36a13.73,13.73,0,0,1,3.66-1.58,5.34,5.34,0,0,1,2.84-.07,2.6,2.6,0,0,1-2.07,3.07c-3.69,1.17-4.44-1.42-4.44-1.42h0Z" transform="translate(-68.55 -83.08)"/>
    <path class="cls-32" d="M144.95,226c-1-.82,1-0.58,0-1.41-7.43-5.86-14.75-11.61-16.56-13a2.87,2.87,0,0,0-.42-0.3c-2.79,10.43-1.75,23.23,1.39,25.56,0.45,0.49,8.65,1,17,1.37C153.1,238.54,139.91,225.53,144.95,226Z" transform="translate(-68.55 -83.08)"/>
    <path class="cls-3" d="M131.52,220.8s-2.91,7.63-.63,13.62a12.67,12.67,0,0,1,.63-13.62h0Z" transform="translate(-68.55 -83.08)"/>
  </g>
  <path class="cls-33" d="M110.71,240.79l-2.57.41v43.23l3.57-.59c58.21-9.7,107.94-9.7,166.25,0l3.57,0.59V241.2l-2.57-.41C220,231.15,169.64,231.15,110.71,240.79Z" transform="translate(-68.55 -83.08)"/>
  <path class="cls-17" d="M278.45,280.82c-58.37-9.71-108.89-9.72-167.26,0h0v-37h0c58.37-9.54,108.89-9.53,167.26,0h0v37Z" transform="translate(-68.55 -83.08)"/>
  <g>
    <path class="cls-30" d="M126.13,257.23v-5.16h0c0.68-.1,1.31-0.18,2-0.27h0c1.75-.2,2.57.45,2.57,2.29h0c0,1.91-.8,2.6-2.63,2.88h0Zm0,6.56V261h0l1.53-.21h0c2.15-.27,2.57.21,2.58,2.35h0V266h0a8,8,0,0,0,.43,3.12h0c1.83-.25,3.5-0.45,5.32-0.65h0v-3.65h0c-0.84-.12-0.93-0.67-0.93-2.08h0v-1.17h0c0-2.09-.53-2.79-2.75-3.08h0c2.21-1,3.18-2.59,3.27-5.41h0c-0.25-4.67-2-5.94-7.09-5.35h0c-3,.37-5.4.73-8.44,1.19h0v3.5h0c1.08,0.1,1.1.63,1.1,2.08h0v10h0c0,1.47,0,2-1.1,2.4h0v3.64h0c2.44-.37,4.64-0.67,7.15-1h0v-3.64h0C126.13,265.75,126.13,265.25,126.13,263.79Z" transform="translate(-68.55 -83.08)"/>
    <path class="cls-30" d="M143.1,253.09c0-2.23.53-3.17,2.29-3.41h0c1.76-.12,2.25.73,2.26,3h0v7.44h0c0,2.22-.5,3.17-2.26,3.39h0c-1.68.1-2.28-.71-2.29-3h0v-7.43Zm-4.94.71v7.08h0c0,2.56,0,4.11,1.16,5.5h0c1.15,1.38,2.95,1.71,6.07,1.47h0c3.13-.35,4.67-1,6-2.65h0c1.06-1.58,1.15-3.17,1.15-5.72h0v-7.09h0c0-2.56-.1-4.14-1.15-5.53h0c-1.38-1.41-2.92-1.79-6-1.54h0c-3.13.35-4.92,1.08-6.07,2.73h0C138.18,249.71,138.16,251.27,138.16,253.8Z" transform="translate(-68.55 -83.08)"/>
    <path class="cls-30" d="M159.88,251.66c0-2.24.6-3.16,2.28-3.33h0c1.76,0,2.25.81,2.26,3h0v7.44h0c0,2.23-.5,3.17-2.26,3.31h0c-1.68.07-2.28-.8-2.28-3h0v-7.43Zm-4.95.54v7.09h0c0,2.56,0,4.08,1.16,5.53h0c1.15,1.42,2.94,1.85,6.07,1.68h0c3.13-.22,4.67-0.86,6-2.45h0c1.06-1.54,1.15-3.13,1.15-5.68h0v-7.08h0c0-2.56-.1-4.14-1.15-5.57h0c-1.31-1.46-2.92-1.91-6-1.75h0c-3.13.25-4.85,0.91-6.07,2.53h0C155,248.08,154.93,249.66,154.93,252.19Z" transform="translate(-68.55 -83.08)"/>
    <path class="cls-30" d="M175,250.33v2.18h0c-1.37,0-2.63.12-4,.17h0v-8.77h0c5.85-.28,11-0.42,16.89-0.49h0v8.78h0l-4,.06h0v-2.18h0c0-1.8-.55-2.39-2-2.43h0V259.3h0c0,1.47.07,2,1.07,2.22h0v3.64h0c-2.35.06-4.79,0.11-7.14,0.21h0v-3.65h0c1-.33,1.1-0.83,1.1-2.28h0V247.78h0C175.49,247.89,175,248.54,175,250.33Z" transform="translate(-68.55 -83.08)"/>
    <path class="cls-30" d="M204,260.93v-5.16h0c0.68,0,1.37,0,2.05,0h0c2,0.1,2.8.73,2.8,2.67h0c0,1.94-.78,2.54-2.69,2.49h0C205.39,261,204.74,261,204,260.93Zm-6.07,4.14c3,0,5.49.07,8.53,0.15h0c5.2,0,7-1,7.29-5.62h0c0-3-1.07-4.44-3.35-5.32h0c2-.68,3-2.09,3-4.61h0c-0.17-4.4-2-5.89-7.2-6.12h0c-2.74-.06-5.31-0.1-8.27-0.14h0v3.5h0c1.07,0.28,1.1.78,1.1,2.25h0v10h0c0,1.46,0,2-1.1,2.23h0v3.64Zm6.07-13v-4.4h0c0.61,0,1.22,0,1.91,0h0c1.83,0.07,2.59.55,2.61,2.37h0c0,1.71-.93,2-2.61,2h0Z" transform="translate(-68.55 -83.08)"/>
    <path class="cls-30" d="M216.24,261.92c1.07-.23,1.09-0.71,1.09-2.19h0v-10h0c0-1.47,0-2-1.09-2.3h0v-3.5h0c5.25,0.24,9.88.53,15.12,0.93h0v6.62h0l-4.65-.33h0v-0.23h0c0-1.78-.66-2.26-2.57-2.41h0l-1.82-.11h0v4.52h0c2.05,0.12,3.9.24,5.88,0.38h0v3.64h0c-2-.14-3.83-0.26-5.88-0.37h0v5.22h0l2.17,0.13h0c1.84,0.07,2.22-.42,2.23-2.19h0V258.9h0c1.59,0.1,3.14.22,4.65,0.34h0v7.26h0c-5.25-.4-9.88-0.68-15.12-0.92h0v-3.65Z" transform="translate(-68.55 -83.08)"/>
    <path class="cls-30" d="M233.76,263c1.07-.18,1.1-0.69,1.1-2.15h0v-10h0c0-1.47,0-2-1.1-2.33h0V245h0c5.25,0.41,9.88.88,15.12,1.46h0v6.62h0c-1.52-.18-3.06-0.33-4.66-0.5h0v-0.24h0c0-1.79-.66-2.27-2.57-2.5h0l-1.83-.17h0v4.52h0c2.06,0.2,3.9.38,5.87,0.59h0v3.64h0c-2-.22-3.82-0.39-5.87-0.59h0v5.22h0c0.76,0.06,1.41.15,2.17,0.21h0c1.83,0.14,2.22-.34,2.22-2.11h0v-0.79h0l4.66,0.5h0v7.26h0c-5.25-.58-9.81-1-15.12-1.46h0V263Z" transform="translate(-68.55 -83.08)"/>
    <path class="cls-30" d="M257.36,256.72v-5.16h0l2,0.26h0c1.83,0.29,2.56,1.11,2.57,3h0c0,1.9-.79,2.37-2.63,2.18h0C258.61,256.86,258,256.8,257.36,256.72Zm0,6.56v-2.74h0l1.53,0.2h0c2.15,0.31,2.58.88,2.58,3h0v2.77h0a9,9,0,0,0,.43,3.24h0c1.83,0.26,3.5.49,5.33,0.77h0V266.9h0c-0.84-.33-0.92-0.91-0.93-2.32h0v-1.17h0c0-2.1-.61-3-2.74-3.81h0c2.13-.38,3.25-1.74,3.26-4.54h0c-0.17-4.71-2.13-6.48-7.08-7.24h0c-3-.41-5.4-0.7-8.44-1.07h0v3.5h0c1.07,0.41,1.1.92,1.1,2.38h0v10h0c0,1.48,0,2-1.1,2.11h0v3.65h0c2.51,0.29,4.71.56,7.14,0.89h0v-3.65h0C257.36,265.26,257.36,264.75,257.36,263.28Z" transform="translate(-68.55 -83.08)"/>
  </g>
  <path class="cls-30" d="M297.9,208.94h0.57v-1.18H299c0.69,0,.86.36,0.87,1.18h0.65a1.24,1.24,0,0,0-.78-1.44v0a0.87,0.87,0,0,0,.82-0.87,1,1,0,0,0-1.19-.95h-1.46Zm0.6-2.74h0.78c0.49,0,.66.19,0.66,0.47s-0.22.56-.76,0.56h-0.69v-1Zm-2.18,1.15a2.82,2.82,0,0,0,2.76,2.92,2.89,2.89,0,0,0,2.81-2.92,2.82,2.82,0,0,0-2.75-2.93A2.89,2.89,0,0,0,296.33,207.34Zm0.39,0a2.49,2.49,0,0,1,2.42-2.5,2.42,2.42,0,0,1,2.36,2.5,2.48,2.48,0,0,1-2.41,2.51A2.42,2.42,0,0,1,296.72,207.34Z" transform="translate(-68.55 -83.08)"/>
</svg>
