<svg id="DP_Sq" data-name="DP Sq" xmlns="http://www.w3.org/2000/svg" viewBox="0 0 109.68 163.94">
  <defs>
    <style>
      .cls-1, .cls-4, .cls-5, .cls-6, .cls-7 {
        fill: #fff;
      }

      .cls-2 {
        fill: #004a97;
      }

      .cls-3 {
        fill: #eb0029;
      }

      .cls-4, .cls-5, .cls-6, .cls-7 {
        stroke: #fff;
      }

      .cls-5, .cls-6, .cls-7 {
        stroke-miterlimit: 10;
      }

      .cls-5 {
        stroke-width: 0.73px;
      }

      .cls-6 {
        stroke-width: 1.47px;
      }

      .cls-7 {
        stroke-width: 0.19px;
      }
    </style>
  </defs>
  <title>pepsi-diet</title>
  <g>
    <path class="cls-1" d="M366.61,487.83A54.84,54.84,0,1,1,311.76,433a54.84,54.84,0,0,1,54.84,54.84" transform="translate(-256.93 -424.22)"/>
    <path class="cls-2" d="M355.16,459.81a35.94,35.94,0,0,1-13.22,39.75C326.37,511,303.69,511,272.36,520.9a51.54,51.54,0,0,0,82.8-61.1" transform="translate(-256.93 -424.22)"/>
    <path class="cls-3" d="M342.83,446.58a51.55,51.55,0,0,0-72.41,71.85,107,107,0,0,0,72.41-71.85" transform="translate(-256.93 -424.22)"/>
    <path class="cls-4" d="M274.08,557.86a3.1,3.1,0,1,1,2.95-3.09,3,3,0,0,1-2.95,3.09m-0.17-7.71a4.49,4.49,0,0,0-4.44,4.62,4.57,4.57,0,0,0,9,1.19,10.32,10.32,0,0,0,.19-2.13v-6.45a0.21,0.21,0,0,0-.21-0.21h-1.17a0.21,0.21,0,0,0-.21.21v4.05a4.17,4.17,0,0,0-3.16-1.29" transform="translate(-256.93 -424.22)"/>
    <path class="cls-4" d="M291.2,554a5.39,5.39,0,0,1-.95.19,5.29,5.29,0,0,1-.65,0c-0.41,0-.86,0-1.29-0.07h0c-0.4,0-.78-0.06-1.15-0.06a5.37,5.37,0,0,0-.73,0,5.54,5.54,0,0,0-1.21.3v-0.05a3.13,3.13,0,0,1,2.67-2.72l0.39,0a3.21,3.21,0,0,1,3,2.31v0h0Zm1.6,0.58v0c0-.09,0-0.23,0-0.38a4.57,4.57,0,0,0-.18-0.82,4.51,4.51,0,0,0-4.3-3.28,4.6,4.6,0,0,0-4.54,5.29,4.5,4.5,0,0,0,4.53,4,5.55,5.55,0,0,0,.61,0,4.66,4.66,0,0,0,3.14-1.68,0.26,0.26,0,0,0,.06-0.2,0.23,0.23,0,0,0-.1-0.16,8.61,8.61,0,0,0-.89-0.46l-0.18-.08a0.4,0.4,0,0,0-.19-0.06,0.23,0.23,0,0,0-.18.11,2.94,2.94,0,0,1-1.87,1,2.65,2.65,0,0,1-.39,0,3.05,3.05,0,0,1-2.84-2v0h0a3.62,3.62,0,0,1,1.5-.3l0.33,0,0.75,0.09a11.43,11.43,0,0,0,1.56.13,7.37,7.37,0,0,0,1.07-.08,5.43,5.43,0,0,0,2-.67,0.37,0.37,0,0,0,.18-0.43" transform="translate(-256.93 -424.22)"/>
    <path class="cls-4" d="M282.17,550.63a0.21,0.21,0,0,0-.21-0.21h-1.17a0.21,0.21,0,0,0-.21.21V559a0.21,0.21,0,0,0,.21.21H282a0.21,0.21,0,0,0,.21-0.21v-8.33h0Z" transform="translate(-256.93 -424.22)"/>
    <path class="cls-4" d="M281.37,547.44a1.06,1.06,0,1,0,1.06,1.06,1.06,1.06,0,0,0-1.06-1.06" transform="translate(-256.93 -424.22)"/>
    <path class="cls-4" d="M305.67,570.54a11.31,11.31,0,0,1-1.93.38,9.41,9.41,0,0,1-1.31.08c-0.84,0-1.75-.07-2.63-0.14h0c-0.82-.06-1.59-0.12-2.33-0.12a12.32,12.32,0,0,0-1.48.09,11.28,11.28,0,0,0-2.48.61v-0.11a6.37,6.37,0,0,1,5.43-5.52,6.7,6.7,0,0,1,.8,0,6.53,6.53,0,0,1,6,4.7l0,0.07-0.07,0h0Zm3.25,1.18v0c0-.17,0-0.46-0.08-0.77a10,10,0,0,0-.37-1.66,9.09,9.09,0,0,0-10-6.58,9.34,9.34,0,0,0-8,10.68,9.14,9.14,0,0,0,9.22,8.12,10,10,0,0,0,1.23-.08A9.43,9.43,0,0,0,307.3,578a0.55,0.55,0,0,0,.13-0.4,0.49,0.49,0,0,0-.21-0.32c-0.28-.2-1.27-0.68-1.81-0.93l-0.35-.18a0.9,0.9,0,0,0-.39-0.12,0.49,0.49,0,0,0-.37.21,6,6,0,0,1-3.8,2.07,6.18,6.18,0,0,1-6.58-3.94l0-.06,0.06,0a7.31,7.31,0,0,1,3.05-.61l0.65,0c0.5,0,1,.1,1.54.17a23.57,23.57,0,0,0,3.17.26,15.89,15.89,0,0,0,2.18-.15,11,11,0,0,0,4-1.37,0.74,0.74,0,0,0,.36-0.87" transform="translate(-256.93 -424.22)"/>
    <path class="cls-4" d="M354,563.64a0.43,0.43,0,0,0-.43-0.43H351.2a0.43,0.43,0,0,0-.43.43v16.94a0.43,0.43,0,0,0,.43.44h2.39a0.44,0.44,0,0,0,.43-0.44V563.64h0Z" transform="translate(-256.93 -424.22)"/>
    <path class="cls-4" d="M352.39,557.16a2.15,2.15,0,1,0,2.15,2.15,2.16,2.16,0,0,0-2.15-2.15" transform="translate(-256.93 -424.22)"/>
    <path class="cls-4" d="M320.85,565.8a6.12,6.12,0,0,1,6,6.33,5.93,5.93,0,0,1-5.84,6.26,6.3,6.3,0,0,1-4.38-1.7,6.1,6.1,0,0,1-1.82-4.46,6.25,6.25,0,0,1,6-6.43m-0.11,15.67h0.46a9,9,0,0,0,6.41-2.65,9.62,9.62,0,0,0-6.73-16.25,9.24,9.24,0,0,0-9,7,21.93,21.93,0,0,0-.38,4.34v13.3a0.43,0.43,0,0,0,.43.44h2.37a0.44,0.44,0,0,0,.44-0.43v-8.38l0.13,0.13a9.39,9.39,0,0,0,5.87,2.5" transform="translate(-256.93 -424.22)"/>
    <path class="cls-4" d="M278.39,565.8a6.11,6.11,0,0,1,6,6.33,5.93,5.93,0,0,1-5.84,6.26,6.29,6.29,0,0,1-4.38-1.7,6.1,6.1,0,0,1-1.83-4.46,6.25,6.25,0,0,1,6-6.43m-0.1,15.67h0.46a9,9,0,0,0,6.41-2.65,9.62,9.62,0,0,0-6.73-16.25,9.24,9.24,0,0,0-9,7,21.42,21.42,0,0,0-.38,4.34v13.3a0.43,0.43,0,0,0,.43.44h2.37a0.44,0.44,0,0,0,.44-0.43v-8.38L272.4,579a9.41,9.41,0,0,0,5.88,2.5" transform="translate(-256.93 -424.22)"/>
    <path class="cls-4" d="M332.55,578.5a10.21,10.21,0,0,0,7.22,3h0.09c5,0,7.29-2.79,7.29-5.5,0-3.75-3.55-4.78-4.63-5l-1.08-.21c-0.88-.17-1.79-0.34-2.62-0.57-0.58-.16-2.47-0.79-2.47-2.2s1.73-2.4,3.35-2.4a5.73,5.73,0,0,1,4,1.37,0.76,0.76,0,0,0,.47.19,0.73,0.73,0,0,0,.43-0.16,17.82,17.82,0,0,0,1.63-1.41,0.5,0.5,0,0,0,.16-0.38,0.66,0.66,0,0,0-.24-0.43,9.5,9.5,0,0,0-6.45-2.18h0c-3.77,0-6.62,2.42-6.62,5.64,0,2.55,2.09,4.36,5.89,5.1l2.38,0.46c1.56,0.28,2.44,1.11,2.41,2.28s-1.42,2.31-3.7,2.31a7.14,7.14,0,0,1-4.88-2l0,0a0.57,0.57,0,0,0-.37-0.2,0.58,0.58,0,0,0-.35.15c-0.14.11-1.73,1.37-1.91,1.55a0.36,0.36,0,0,0-.11.27,0.58,0.58,0,0,0,.19.36" transform="translate(-256.93 -424.22)"/>
    <path class="cls-4" d="M298.61,557.67a0.19,0.19,0,0,0-.18-0.1,0.69,0.69,0,0,0-.25.07,2.35,2.35,0,0,1-1,.23c-1.23,0-1.59-.87-1.59-1.85v-4.1h2.91a0.27,0.27,0,0,0,.28-0.27v-1a0.28,0.28,0,0,0-.28-0.27H295.6v-1.95a0.28,0.28,0,0,0-.29-0.27h-1a0.27,0.27,0,0,0-.29.27v7.77c0,1.88.95,3.16,3,3.16a4.62,4.62,0,0,0,2-.49,0.24,0.24,0,0,0,.16-0.22,0.39,0.39,0,0,0-.06-0.17l-0.49-.85" transform="translate(-256.93 -424.22)"/>
    <path class="cls-4" d="M361.22,574.71a0.61,0.61,0,0,1,.62.65,0.63,0.63,0,0,1-.65.65H360.3v-1.3h0.92Zm0.5,2.16a1.46,1.46,0,0,0,1.06-1.51,1.52,1.52,0,0,0-1.56-1.59h-1.88v4.86h1v-1.68h0.3l1.2,1.68H363l-1.24-1.75h0Zm-0.75,3.3a4,4,0,1,0-3.94-4,3.95,3.95,0,0,0,3.94,4m0-8.85a4.85,4.85,0,1,1-4.77,4.87,4.82,4.82,0,0,1,4.77-4.87" transform="translate(-256.93 -424.22)"/>
  </g>
  <g>
    <path class="cls-5" d="M267.73,446.16a1.27,1.27,0,1,1-.92-0.33A1.23,1.23,0,0,1,267.73,446.16Z" transform="translate(-256.93 -424.22)"/>
    <path class="cls-6" d="M270.88,443.06a1.27,1.27,0,1,1-.89-0.4A1.22,1.22,0,0,1,270.88,443.06Z" transform="translate(-256.93 -424.22)"/>
    <path class="cls-7" d="M278.15,440.8a1.43,1.43,0,0,1-.65.31l-4.78-1.29,2.37,3.06a0.23,0.23,0,0,1,0,.32,1,1,0,0,1-.67.29L271,439.18a0.7,0.7,0,0,1,.36-0.52,0.43,0.43,0,0,1,.37-0.07l4.77,1.27-2.4-3.09a0.79,0.79,0,0,1,.39-0.54,0.26,0.26,0,0,1,.34,0l3.35,4.31A0.21,0.21,0,0,1,278.15,440.8Z" transform="translate(-256.93 -424.22)"/>
    <path class="cls-7" d="M280.94,439c-1.31.83-2.23,0.78-3.09-.58L277,437.08c-0.86-1.35-.51-2.2.8-3l0.05,0c1.31-.83,2.23-0.78,3.09.58l0.83,1.31c0.86,1.35.51,2.2-.8,3Zm-0.44-.7,0.05,0c1-.65.84-1.14,0.28-2l-0.55-.87c-0.57-.9-0.92-1.27-2-0.62l-0.05,0c-1,.65-0.84,1.13-0.27,2l0.55,0.87C279.12,438.54,279.46,438.92,280.5,438.27Z" transform="translate(-256.93 -424.22)"/>
    <path class="cls-7" d="M284,430.81a0.92,0.92,0,0,1,.58-0.51c0.11-.06.31-0.09,0.34,0.09l0.05,0.39,0.24,1.73,1.56,1.68L286,429.83a0.92,0.92,0,0,1,.58-0.51c0.11-.05.31-0.09,0.34,0.1s0.05,0.31.07,0.46l0.72,5.22a0.24,0.24,0,0,1-.14.25,1.06,1.06,0,0,1-.68.17L285.42,434l0.29,2.07a0.24,0.24,0,0,1-.14.25,1.07,1.07,0,0,1-.68.17l-3.71-3.77-0.32-.33c-0.13-.14,0-0.27.14-0.33a1,1,0,0,1,.69-0.17,2.7,2.7,0,0,1,.33.3l2.78,3Z" transform="translate(-256.93 -424.22)"/>
    <path class="cls-7" d="M293.32,431.5l-1.69.58,0.06,1.33a0.8,0.8,0,0,1-.59.43,0.27,0.27,0,0,1-.36-0.08,0.24,0.24,0,0,1,0-.1l-0.05-5.7a0.34,0.34,0,0,1,.25-0.23,1,1,0,0,1,.63-0.08L295,432.2a0.63,0.63,0,0,1,.05.09,0.28,0.28,0,0,1-.24.28,0.81,0.81,0,0,1-.73,0Zm-1.73-.28,1.22-.42-1.32-1.88Z" transform="translate(-256.93 -424.22)"/>
    <path class="cls-7" d="M296.78,431.17a0.86,0.86,0,0,0,.78-0.61,0.54,0.54,0,0,0,0-.25,0.78,0.78,0,0,0-.33-0.38c-0.86-.68-2.41-0.75-2.72-1.94-0.25-.95.59-1.52,1.51-1.76l0.19,0a1.77,1.77,0,0,1,1.18,0,0.48,0.48,0,0,1,0,.18,1.24,1.24,0,0,1-.11.51,0.2,0.2,0,0,1-.16,0,3.61,3.61,0,0,0-.89.09c-0.45.12-.92,0.36-0.82,0.73a0.83,0.83,0,0,0,.42.47c0.79,0.47,2.36.77,2.67,1.93s-0.59,1.57-1.6,1.84a3.86,3.86,0,0,1-1.48.1,0.17,0.17,0,0,1-.17-0.21,0.76,0.76,0,0,1,.17-0.6A5.24,5.24,0,0,0,296.78,431.17Z" transform="translate(-256.93 -424.22)"/>
    <path class="cls-7" d="M298.58,425.88a0.21,0.21,0,0,1,.2-0.24l1.73-.31c1.33-.24,2.05-0.06,2.3,1.31s-0.36,1.8-1.69,2l-1,.19,0.38,2.08a0.21,0.21,0,0,1-.2.24,1,1,0,0,1-.72,0Zm1,0.45,0.31,1.72,1-.19c0.9-.16,1-0.35.87-1.05s-0.29-.83-1.18-0.67Z" transform="translate(-256.93 -424.22)"/>
    <path class="cls-7" d="M306.28,428.81l-1.78.19-0.24,1.31a0.8,0.8,0,0,1-.67.29,0.27,0.27,0,0,1-.33-0.15,0.25,0.25,0,0,1,0-.1l1.21-5.57a0.33,0.33,0,0,1,.29-0.17,1,1,0,0,1,.63.07l2.36,5.19a0.62,0.62,0,0,1,0,.1,0.28,0.28,0,0,1-.3.22,0.81,0.81,0,0,1-.72-0.14Zm-1.62-.66,1.28-.14-0.87-2.13Z" transform="translate(-256.93 -424.22)"/>
    <path class="cls-7" d="M308.19,424.61a0.21,0.21,0,0,1,.23-0.21l1.76,0c1.36,0,2,.25,2.07,1.65a1.37,1.37,0,0,1-1.06,1.66l1.23,2c0.18,0.29,0,.37-0.21.37a1.13,1.13,0,0,1-.73-0.19l-1.31-2.08-1,0,0.05,2.12a0.21,0.21,0,0,1-.23.21,1,1,0,0,1-.71-0.15Zm1,0.6,0,1.75,1.05,0c0.91,0,1-.19,1-0.9s-0.16-.87-1.06-0.84Z" transform="translate(-256.93 -424.22)"/>
    <path class="cls-7" d="M315.15,430.17a1,1,0,0,1-.7-0.19l0.26-4.74-1.57-.09a0.2,0.2,0,0,1-.18-0.23,0.81,0.81,0,0,1,.17-0.6l4.09,0.22a0.2,0.2,0,0,1,.18.23,0.81,0.81,0,0,1-.18.6l-1.58-.09L315.4,430A0.21,0.21,0,0,1,315.15,430.17Z" transform="translate(-256.93 -424.22)"/>
    <path class="cls-7" d="M320,429.13l-1.77-.22-0.53,1.22a0.8,0.8,0,0,1-.72.13,0.27,0.27,0,0,1-.29-0.23,0.25,0.25,0,0,1,0-.1l2.45-5.15a0.33,0.33,0,0,1,.32-0.09,1,1,0,0,1,.6.21l1.12,5.59a0.61,0.61,0,0,1,0,.1,0.28,0.28,0,0,1-.34.15,0.81,0.81,0,0,1-.67-0.3Zm-1.43-1,1.28,0.16L319.46,426Z" transform="translate(-256.93 -424.22)"/>
    <path class="cls-7" d="M327.88,428.09l-2.25,3.47a0.25,0.25,0,0,1-.29.12,0.79,0.79,0,0,1-.57-0.32l-0.44-4.12-1.73,3.62a0.76,0.76,0,0,1-.64,0c-0.14,0-.33-0.13-0.25-0.32l0.22-.44,2.24-4.54a0.76,0.76,0,0,1,.64,0,0.27,0.27,0,0,1,.22.23l0.5,4.38,2.4-3.69a0.84,0.84,0,0,1,.65,0,0.25,0.25,0,0,1,.2.23l-0.07,5.05c0,0.16,0,.33,0,0.49s-0.22.21-.36,0.17a0.77,0.77,0,0,1-.56-0.3Z" transform="translate(-256.93 -424.22)"/>
    <path class="cls-7" d="M331.31,427.59a0.21,0.21,0,0,1,.29-0.11l3,1.06a0.2,0.2,0,0,1,.1.27,0.85,0.85,0,0,1-.34.53l-2.37-.84-0.51,1.44,2,0.72a0.21,0.21,0,0,1,.1.28,0.79,0.79,0,0,1-.34.52l-2.08-.74-0.54,1.53,2.32,0.82a0.2,0.2,0,0,1,.1.27,0.85,0.85,0,0,1-.34.53l-2.91-1a0.44,0.44,0,0,1-.3-0.27Z" transform="translate(-256.93 -424.22)"/>
    <path class="cls-7" d="M335.71,435a0.23,0.23,0,0,1-.31.11,1,1,0,0,1-.56-0.46l2.27-4.86c0.06-.12.19-0.12,0.33-0.05l2.83,1.32a0.2,0.2,0,0,1,.08.28,0.85,0.85,0,0,1-.39.5l-2.28-1.06L337,432.14l1.87,0.87a0.21,0.21,0,0,1,.08.29,0.79,0.79,0,0,1-.39.48l-1.91-.89Z" transform="translate(-256.93 -424.22)"/>
    <path class="cls-7" d="M341.08,431.68a0.21,0.21,0,0,1,.3-0.06l1.53,0.86c1.18,0.67,1.62,1.27.93,2.48a1.37,1.37,0,0,1-1.76.88l0,2.35c0,0.34-.22.3-0.37,0.21a1.13,1.13,0,0,1-.53-0.54l-0.05-2.46-0.84-.47-1,1.85a0.21,0.21,0,0,1-.3.06,1,1,0,0,1-.53-0.49Zm0.51,1-0.86,1.52,0.92,0.52c0.79,0.45,1,.37,1.34-0.25s0.31-.82-0.48-1.27Z" transform="translate(-256.93 -424.22)"/>
    <path class="cls-7" d="M345.73,434.39a0.21,0.21,0,0,1,.31,0l2.63,1.78a0.2,0.2,0,0,1,0,.29,0.85,0.85,0,0,1-.46.43l-2.08-1.41-0.85,1.26,1.79,1.21a0.21,0.21,0,0,1,0,.29,0.79,0.79,0,0,1-.46.42l-1.83-1.23-0.91,1.35,2,1.38a0.2,0.2,0,0,1,0,.29,0.85,0.85,0,0,1-.46.43L343,439.1a0.44,0.44,0,0,1-.22-0.34Z" transform="translate(-256.93 -424.22)"/>
    <path class="cls-7" d="M349.65,437.09a0.21,0.21,0,0,1,.31,0l2.48,2a0.2,0.2,0,0,1,0,.29,0.85,0.85,0,0,1-.49.39l-2-1.56-0.94,1.19,1.7,1.34a0.21,0.21,0,0,1,0,.3,0.79,0.79,0,0,1-.49.38L348.54,440l-1,1.27,1.93,1.53a0.2,0.2,0,0,1,0,.29,0.85,0.85,0,0,1-.49.39l-2.42-1.91a0.44,0.44,0,0,1-.19-0.35Z" transform="translate(-256.93 -424.22)"/>
    <path class="cls-6" d="M354.38,444.7a1.27,1.27,0,1,1,.35-0.91A1.23,1.23,0,0,1,354.38,444.7Z" transform="translate(-256.93 -424.22)"/>
    <path class="cls-5" d="M357.43,447.94a1.27,1.27,0,1,1,.41-0.88A1.23,1.23,0,0,1,357.43,447.94Z" transform="translate(-256.93 -424.22)"/>
  </g>
</svg>
