<svg id="WCP" xmlns="http://www.w3.org/2000/svg" viewBox="0 0 115.33 164.84">
  <defs>
    <style>
      .cls-1, .cls-5 {
        fill: #fff;
      }

      .cls-2 {
        fill: #005992;
      }

      .cls-3 {
        fill: #ed1a38;
      }

      .cls-4 {
        fill: #b4015c;
      }

      .cls-5 {
        stroke: #fff;
      }
    </style>
  </defs>
  <title>pepsi-wild-cherry_logo</title>
  <g>
    <path class="cls-1" d="M355.78,524.22a54.34,54.34,0,1,1,0-76.85,54.33,54.33,0,0,1,0,76.85" transform="translate(-263.02 -431.45)"/>
    <path class="cls-2" d="M359.66,458.37a35.16,35.16,0,0,1-12.93,38.88c-15.23,11.21-37.42,11.22-68.05,20.88a50.41,50.41,0,0,0,81-59.76" transform="translate(-263.02 -431.45)"/>
    <path class="cls-3" d="M347.6,445.44a50.43,50.43,0,0,0-70.82,70.28,104.69,104.69,0,0,0,70.82-70.28" transform="translate(-263.02 -431.45)"/>
  </g>
  <path class="cls-4" d="M358.57,528.85c-2.35-3.8-6.29-3.06-8.29-2.49a7.05,7.05,0,0,1,.14-2.55c0.33-1.66,1.8-7.41,2-10.88a58.16,58.16,0,0,0-1.3-11.53c-0.29-.75-1.17-1.79-1.85-1.66a1,1,0,0,0-.7,1.49c0.35,1.06,1.34,1.2,1.71,2.24a16.48,16.48,0,0,1,.74,3.15,25.9,25.9,0,0,1,0,9c-0.49,2.76-1.9,8.88-2.64,10.24a3.41,3.41,0,0,0-.21.44c-2.22-.48-5.07-1.46-7.9-0.29-2.36,1-4.94,4.84-3.87,10.42a11.21,11.21,0,0,0,6.72,8.58c1,0.42,2.32.15,3.44,0.26s1.55,0.69,3.47.45c2.33-.29,4.71-1.93,6.54-4.18-2.44-3.33-2.7-7-1.47-9.25A9.24,9.24,0,0,1,358.57,528.85Z" transform="translate(-263.02 -431.45)"/>
  <path class="cls-4" d="M373.37,524.08c-5.45-3-8.56,1.29-9.73,3a7.06,7.06,0,0,1-1.52-2.15,92.24,92.24,0,0,0-5.68-9.7c-2-2.7-8-7.69-8.69-8.09s-2-.69-2.48-0.17a1,1,0,0,0,.37,1.61c0.92,0.62,1.8.12,2.72,0.71a15.59,15.59,0,0,1,2.89,2,24.4,24.4,0,0,1,6.23,7.09c1.32,2.47,4,7.9,4.28,9.43,0,0.14,0,.26.08,0.36-2,1-4.58,2-6,4.56-1.22,2.25-.8,6.87,3.55,10.54a11.2,11.2,0,0,0,10.62,2.44c1-.31,1.9-1.34,2.84-2s1.64-.44,3-1.83C379.85,537.84,379,527.25,373.37,524.08Z" transform="translate(-263.02 -431.45)"/>
  <g>
    <g>
      <path class="cls-5" d="M314.6,565.34v0c0-.17,0-0.46-0.08-0.77a9.8,9.8,0,0,0-.37-1.64,9.1,9.1,0,0,0-8.69-6.61,9.51,9.51,0,0,0-1.22.08,9.26,9.26,0,0,0-7.94,10.59,9.06,9.06,0,0,0,9.14,8.06,10.46,10.46,0,0,0,1.22-.08,9.34,9.34,0,0,0,6.33-3.39,0.54,0.54,0,0,0,.12-0.4,0.48,0.48,0,0,0-.21-0.32c-0.28-.19-1.26-0.67-1.79-0.93l-0.36-.17a0.84,0.84,0,0,0-.38-0.12,0.5,0.5,0,0,0-.37.21,5.91,5.91,0,0,1-3.76,2.06,6.78,6.78,0,0,1-.79.05,6.15,6.15,0,0,1-5.74-4l0-.06,0.05,0a7.24,7.24,0,0,1,3-.61c0.21,0,.43,0,0.64,0,0.5,0,1,.1,1.52.17a22.65,22.65,0,0,0,3.15.26,15.33,15.33,0,0,0,2.16-.15,11.21,11.21,0,0,0,4-1.36,0.74,0.74,0,0,0,.36-0.87m-3.23-1.17a11.35,11.35,0,0,1-1.92.38,10.66,10.66,0,0,1-1.3.07c-0.83,0-1.73-.07-2.61-0.14h0c-0.81-.06-1.58-0.12-2.31-0.12a11.31,11.31,0,0,0-3.92.69v-0.11a6.31,6.31,0,0,1,5.38-5.48,6.79,6.79,0,0,1,.79,0,6.48,6.48,0,0,1,6,4.66l0,0.07Z" transform="translate(-263.02 -431.45)"/>
      <g>
        <rect class="cls-5" x="93.07" y="125.44" width="3.23" height="17.66" rx="0.43" ry="0.43"/>
        <path class="cls-5" d="M357.7,550.91a2.13,2.13,0,1,0,2.13,2.13,2.14,2.14,0,0,0-2.13-2.13" transform="translate(-263.02 -431.45)"/>
      </g>
      <path class="cls-5" d="M326.33,575h0.45a8.85,8.85,0,0,0,6.36-2.63,9.54,9.54,0,0,0-6.67-16.12,9.17,9.17,0,0,0-8.93,7,21.79,21.79,0,0,0-.38,4.3v13.18a0.44,0.44,0,0,0,.43.44h2.34a0.44,0.44,0,0,0,.44-0.44v-8.31l0.12,0.12a9.33,9.33,0,0,0,5.83,2.48m0.1-15.55a6.07,6.07,0,0,1,6,6.28,5.88,5.88,0,0,1-5.79,6.21,6.21,6.21,0,0,1-4.34-1.68,6,6,0,0,1-1.81-4.42,6.2,6.2,0,0,1,6-6.38" transform="translate(-263.02 -431.45)"/>
      <path class="cls-5" d="M284.23,575h0.45a8.86,8.86,0,0,0,6.36-2.63,9.54,9.54,0,0,0-6.67-16.12,9.17,9.17,0,0,0-8.93,7,21.11,21.11,0,0,0-.38,4.3v13.18a0.44,0.44,0,0,0,.43.44h2.35a0.44,0.44,0,0,0,.44-0.44v-8.31l0.12,0.12a9.33,9.33,0,0,0,5.83,2.48m0.1-15.55a6.07,6.07,0,0,1,6,6.28,5.88,5.88,0,0,1-5.79,6.21,6.2,6.2,0,0,1-4.34-1.68,6,6,0,0,1-1.81-4.42,6.2,6.2,0,0,1,6-6.38" transform="translate(-263.02 -431.45)"/>
      <path class="cls-5" d="M338,572.07a10.13,10.13,0,0,0,7.16,2.93h0.09c5,0,7.23-2.76,7.23-5.45,0-3.72-3.51-4.74-4.59-5l-1.07-.21c-0.87-.17-1.77-0.34-2.59-0.57-0.57-.15-2.45-0.78-2.45-2.18s1.71-2.37,3.32-2.37a5.7,5.7,0,0,1,3.92,1.35,0.77,0.77,0,0,0,.46.19,0.68,0.68,0,0,0,.43-0.16,17.83,17.83,0,0,0,1.61-1.39,0.49,0.49,0,0,0,.16-0.38,0.65,0.65,0,0,0-.24-0.43,9.49,9.49,0,0,0-6.4-2.16h0c-3.75,0-6.57,2.41-6.57,5.6,0,2.53,2.08,4.32,5.84,5.06l2.36,0.45c1.55,0.29,2.42,1.11,2.39,2.26s-1.41,2.29-3.67,2.29a7.08,7.08,0,0,1-4.84-2l0,0a0.56,0.56,0,0,0-.37-0.19,0.58,0.58,0,0,0-.35.15c-0.14.11-1.72,1.36-1.89,1.53a0.36,0.36,0,0,0-.1.26,0.57,0.57,0,0,0,.18.36" transform="translate(-263.02 -431.45)"/>
    </g>
    <path class="cls-5" d="M364.84,566.66a4,4,0,1,1-4,4A4,4,0,0,1,364.84,566.66Zm0,7.31a3.3,3.3,0,1,0-3.26-3.3A3.26,3.26,0,0,0,364.84,574Zm0.61-2.72a1.2,1.2,0,0,0,.87-1.24,1.24,1.24,0,0,0-1.29-1.32h-1.55v4h0.78v-1.38h0.26l1,1.38h1ZM365,569.46a0.54,0.54,0,0,1,0,1.07h-0.75v-1.07H365Z" transform="translate(-263.02 -431.45)"/>
    <g>
      <path class="cls-5" d="M343.57,592.61a1.89,1.89,0,0,1-2,1.95,2.71,2.71,0,0,1-1.85-.68,0.41,0.41,0,0,0-.23-0.12,0.23,0.23,0,0,0-.15.07l-0.54.44a0.32,0.32,0,0,0-.15.2,0.25,0.25,0,0,0,.07.17,3.6,3.6,0,0,0,2.88,1.16,3,3,0,0,0,3.25-3.16v-6.8a0.22,0.22,0,0,0-.24-0.22h-0.8a0.22,0.22,0,0,0-.24.22v3.89a1.92,1.92,0,0,1-3.84,0v-3.89a0.22,0.22,0,0,0-.23-0.22h-0.81a0.22,0.22,0,0,0-.24.22v4a3,3,0,0,0,3.1,3,3,3,0,0,0,2-.74v0.5Z" transform="translate(-263.02 -431.45)"/>
      <path class="cls-5" d="M289.74,592.44a0.22,0.22,0,0,0,.24.22h0.8a0.22,0.22,0,0,0,.24-0.22v-9.22a0.22,0.22,0,0,0-.24-0.22H290a0.22,0.22,0,0,0-.24.22v9.22Z" transform="translate(-263.02 -431.45)"/>
      <path class="cls-5" d="M310.21,591.62h0l-0.67-.57h0a0.23,0.23,0,0,0-.14-0.07,0.28,0.28,0,0,0-.16.07h0a2.5,2.5,0,0,1-1.5.56,2.47,2.47,0,0,1-2.49-2.49,2.49,2.49,0,0,1,4-2,0.24,0.24,0,0,0,.14.05,0.18,0.18,0,0,0,.1,0l0.71-.59a0.18,0.18,0,0,0,.05-0.12,0.13,0.13,0,0,0,0-.08,3.72,3.72,0,1,0,0,5.47,0.14,0.14,0,0,0,0-.09,0.19,0.19,0,0,0-.07-0.13" transform="translate(-263.02 -431.45)"/>
      <path class="cls-5" d="M295.91,585.39a3.61,3.61,0,0,0-3.57,3.72,3.68,3.68,0,0,0,7.25,1,8.61,8.61,0,0,0,.15-1.71v-5.19a0.17,0.17,0,0,0-.17-0.17h-0.93a0.17,0.17,0,0,0-.17.17v3.26a3.34,3.34,0,0,0-2.55-1m0.13,6.21a2.5,2.5,0,1,1,2.38-2.49,2.41,2.41,0,0,1-2.38,2.49" transform="translate(-263.02 -431.45)"/>
      <path class="cls-5" d="M317.53,588.44a3,3,0,0,0-3.1-3,2.94,2.94,0,0,0-2,.74v-2.94a0.22,0.22,0,0,0-.24-0.22h-0.8a0.22,0.22,0,0,0-.24.22v9.21a0.22,0.22,0,0,0,.24.22h0.8a0.23,0.23,0,0,0,.24-0.22v-3.89a1.92,1.92,0,0,1,3.84,0v3.89a0.22,0.22,0,0,0,.23.22h0.81a0.22,0.22,0,0,0,.23-0.22v-4Z" transform="translate(-263.02 -431.45)"/>
      <path class="cls-5" d="M284.87,585.83V590a2.78,2.78,0,0,1-2.77,2.81,2.74,2.74,0,0,1-2.13-1,2.73,2.73,0,0,1-2.12,1,2.78,2.78,0,0,1-2.77-2.81v-4.2a0.22,0.22,0,0,1,.24-0.22h0.8a0.22,0.22,0,0,1,.24.22v4.3a1.49,1.49,0,0,0,3,0v-4.3a0.22,0.22,0,0,1,.24-0.22h0.8a0.22,0.22,0,0,1,.23.22v4.3a1.49,1.49,0,0,0,3,0v-4.3a0.22,0.22,0,0,1,.24-0.22h0.8a0.23,0.23,0,0,1,.24.22" transform="translate(-263.02 -431.45)"/>
      <path class="cls-5" d="M331.23,587l0.63-.61a0.15,0.15,0,0,0,0-.11,0.27,0.27,0,0,0-.11-0.19,3.2,3.2,0,0,0-2.07-.71A2.63,2.63,0,0,0,327,588v4.43a0.22,0.22,0,0,0,.24.22H328a0.22,0.22,0,0,0,.24-0.22v-4.11a1.49,1.49,0,0,1,1.49-1.67,2.08,2.08,0,0,1,1.17.37,0.41,0.41,0,0,0,.2.08,0.21,0.21,0,0,0,.13-0.07" transform="translate(-263.02 -431.45)"/>
      <path class="cls-5" d="M336.75,587l0.63-.61a0.15,0.15,0,0,0,.05-0.11,0.27,0.27,0,0,0-.11-0.19,3.18,3.18,0,0,0-2.06-.71,2.63,2.63,0,0,0-2.77,2.57v4.43a0.22,0.22,0,0,0,.24.22h0.8a0.22,0.22,0,0,0,.24-0.22v-4.11a1.49,1.49,0,0,1,1.5-1.67,2.05,2.05,0,0,1,1.17.37,0.41,0.41,0,0,0,.19.08,0.19,0.19,0,0,0,.13-0.07" transform="translate(-263.02 -431.45)"/>
      <path class="cls-5" d="M325.87,589h0c0-.07,0-0.19,0-0.31a3.92,3.92,0,0,0-.15-0.66,3.63,3.63,0,0,0-3.47-2.64,3.59,3.59,0,0,0-.49,0,3.7,3.7,0,0,0-3.17,4.23,3.62,3.62,0,0,0,3.65,3.22,4,4,0,0,0,.49,0,3.74,3.74,0,0,0,2.53-1.35,0.25,0.25,0,0,0,0-.16,0.19,0.19,0,0,0-.08-0.13c-0.11-.08-0.5-0.27-0.71-0.37l-0.14-.07a0.35,0.35,0,0,0-.15,0,0.19,0.19,0,0,0-.15.08,2.35,2.35,0,0,1-1.5.82l-0.32,0a2.46,2.46,0,0,1-2.29-1.58v0h0a2.92,2.92,0,0,1,1.21-.24h0.26l0.61,0.07a9.1,9.1,0,0,0,1.26.1,6.23,6.23,0,0,0,.86-0.06,4.48,4.48,0,0,0,1.59-.54,0.3,0.3,0,0,0,.15-0.35m-1.29-.47a4.4,4.4,0,0,1-.76.15,4,4,0,0,1-.52,0c-0.33,0-.69,0-1-0.05h0c-0.32,0-.63,0-0.92,0a4.58,4.58,0,0,0-.59,0,4.46,4.46,0,0,0-1,.24v0a2.52,2.52,0,0,1,2.15-2.19l0.31,0a2.59,2.59,0,0,1,2.38,1.86v0h0Z" transform="translate(-263.02 -431.45)"/>
      <rect class="cls-5" x="23.58" y="154.15" width="1.29" height="7.05" rx="0.17" ry="0.17"/>
      <path class="cls-5" d="M287.25,583.22a0.85,0.85,0,1,0,.85.85,0.85,0.85,0,0,0-.85-0.85" transform="translate(-263.02 -431.45)"/>
    </g>
  </g>
</svg>
