<svg id="Max_Sq" data-name="Max Sq" xmlns="http://www.w3.org/2000/svg" viewBox="0 0 108.68 162.1">
  <defs>
    <style>
      .cls-1 {
        fill: #231f20;
      }

      .cls-2 {
        fill: #d5d7d8;
      }

      .cls-3 {
        fill: #eb0029;
      }

      .cls-4, .cls-5 {
        fill: #fff;
      }

      .cls-4 {
        stroke: #fff;
      }

      .cls-6 {
        fill: #004a97;
      }
    </style>
  </defs>
  <title>pepsi-max_logo</title>
  <g>
    <path class="cls-1" d="M268.38,590.32a0.79,0.79,0,0,1,0-.23l0.12-.38,0.21-.75,0.72-2.44c0.05-.17,1.5-5.09,3-10.31l0-.12,4.39-14.87,0.18-.63a0.8,0.8,0,0,1,.76-0.57h4.46a11.77,11.77,0,0,1,2.14.16,6,6,0,0,1,2.72,1.18,6.4,6.4,0,0,1,1.83,2.36l0.09-.13a7.68,7.68,0,0,1,6.29-3.5h6.34a0.8,0.8,0,0,1,.79.72l0.06,0.83,0.13,1.81,0.05,0.73,0.19-.37a7.21,7.21,0,0,1,2.83-3A6.55,6.55,0,0,1,309,560l2.45,0h3.48l5.63,0a8.74,8.74,0,0,1,6.29,3l0.64,0.74,0.53-.3,1.84-1a15.23,15.23,0,0,1,7.85-2.39h16.52a0.79,0.79,0,0,1,.77.58,0.81,0.81,0,0,1,0,.22,0.79,0.79,0,0,1-.37.67l-0.88.55-7.4,4.57c-1.34.83-6.82,4.11-10.7,6.43,3.26,3.66,9.61,10.8,11.34,12.84l3.87,4.54a0.8,0.8,0,0,1,.19.52,0.81,0.81,0,0,1-.07.33,0.8,0.8,0,0,1-.72.46H339a11.36,11.36,0,0,1-8.91-4.41L326.37,583c0.62,1.11,1.29,2.35,1.91,3.54l2.06,4a0.77,0.77,0,0,1,.09.36,0.79,0.79,0,0,1-.79.8H320a6.46,6.46,0,0,1-3.42-1,7.36,7.36,0,0,1-2.15-2.09,11.68,11.68,0,0,1-1-1.8l-0.14-.29-2.82,1.7A16.5,16.5,0,0,1,303,591a7.72,7.72,0,0,1-2.85,1.8,12.41,12.41,0,0,1-4.38.71c-0.45,0-.86,0-1.27,0l-2.38-.16a0.8,0.8,0,0,1-.74-0.71l0-.25-0.16-2.16c-0.12-1.61-.26-3.76-0.4-6a8.07,8.07,0,0,1-4.66,1.41,12.07,12.07,0,0,1-1.69-.12l-1.47-.2a10.68,10.68,0,0,1-1.23,2.62,6.92,6.92,0,0,1-3.37,2.68,7.34,7.34,0,0,1-1.85.42,14.6,14.6,0,0,1-1.47.06h-5.89a0.8,0.8,0,0,1-.81-0.79" transform="translate(-257.02 -431.45)"/>
    <path class="cls-2" d="M313,576.82l-0.47.26-5.36,3.08-1.53.88-0.76.44,0.35-.81,0.7-1.62,3.27-7.6,0.52-1.21,0.26-.6,0.28,0.6,0.55,1.2,2.08,4.52,0.22,0.49,0.11,0.24Zm24.76-13a11.24,11.24,0,0,0-5.91,1.86l-3.53,2h0l-1.06.6-0.43.24-0.22.12-0.15-.19-0.32-.38c-0.46-.55-1.43-1.71-2.18-2.58a5.37,5.37,0,0,0-1.58-1.23,4,4,0,0,0-1.79-.48l-4.91,0c0.57,0.71,1.48,1.81,2.42,2.94,1.28,1.55,2.62,3.14,3.26,3.91l0.46,0.54,0.23,0.27-0.31.17-0.62.35-2.82,1.58-0.53.29-0.26.15-0.14-.27-0.28-.54c-0.85-1.65-3.75-7.21-5-9.4l-3.05,0a2.63,2.63,0,0,0-1.29.31,2.73,2.73,0,0,0-.9.81h0a6.58,6.58,0,0,0-.69,1.23c-0.19.46-.36,1-0.55,1.47h0l-4,10.92-0.08.22-0.24,0-1.14-.16-0.24,0,0-.24c-0.11-1.36-.24-3.17-0.37-5.06v-0.07l0-.37-0.05-.67c-0.26-3.6-.53-7.23-0.61-8.33h-3.42a3.71,3.71,0,0,0-3,1.74l-0.12.22-0.11.2c-0.61,1.24-2.18,4.59-3.08,6.51h0l0,0v0h0l0,0.05-0.7,1.49-0.35.75-0.2-.79-0.41-1.6-1.26-5h0c0-.07,0-0.14,0-0.22a11,11,0,0,0-.48-1.76,2.89,2.89,0,0,0-.81-1.19,2.24,2.24,0,0,0-1-.4,8.25,8.25,0,0,0-1.43-.1h-2.09L273.38,587H275a5.72,5.72,0,0,0,2-.24,2.9,2.9,0,0,0,1.46-1.16,8.21,8.21,0,0,0,.94-2.23l2.63-8.83,0.66-2.2,0.33-1.1,0.24,1.13,0.48,2.25,0.55,2.53a0.66,0.66,0,0,1,0,.12c0.13,0.6.73,3.33,0.93,4.23,0.3,0,.57,0,0.83,0h0a3.87,3.87,0,0,0,3-1.13,9.09,9.09,0,0,0,1.6-2.57v0l0-.07v0h0l1.81-3.52,1-1.92,0.5-1,0.06,1.08,0.12,2.16c0.19,3.42.61,10.77,0.92,14.9l0.67,0a8.71,8.71,0,0,0,3-.46,3.56,3.56,0,0,0,1.94-1.57l0.18-.33L301,587h0.19l0.37,0H302a11.9,11.9,0,0,0,6.39-2.25h0l5.87-3.53,0.57-.34,0.29-.17,0.14,0.3,0.27,0.61c0.2,0.46.51,1.16,0.68,1.59l0.13,0.34a13.21,13.21,0,0,0,1.3,2.72h0a3.4,3.4,0,0,0,1,1,2.47,2.47,0,0,0,1.34.36h4.5c-0.72-1.38-1.5-2.78-2.28-4.16-0.61-1.1-1.68-3.08-2.28-4.19h0l-0.22-.4-0.26-.5-0.14-.25,0.24-.14,0.48-.29,4.12-2.47,0.43-.25,0.21-.13L325,575l0.33,0.38,0.28,0.33,0,0c0.62,0.74,1.67,2,2.82,3.36l4.68,5.6a8.65,8.65,0,0,0,2.5,2.13,6.89,6.89,0,0,0,3.39.85h4.49c-2.85-3.29-11.25-12.71-13.2-14.9l-0.47-.53-0.24-.26,0.3-.18,0.61-.37c2-1.22,9.49-5.67,12.66-7.59h-5.41Zm15.62-2.6-1.76,1.09-5.63,3.47c-1.43.89-7.75,4.66-11.52,6.92,3.53,4,10.21,11.47,12,13.54l2.63,3.09,0.82,1,0.42,0.48H338.93a10.54,10.54,0,0,1-8.26-4.12L326,581.14l-1.09-1.31,0,0,0-.05-0.1-.12-0.61-.73-0.62.38c0.51,0.94,1.07,2,1.45,2.64,0.87,1.56,1.78,3.2,2.61,4.82l1.4,2.74,0.44,0.86,0.22,0.43H320a5.67,5.67,0,0,1-3-.83,6.69,6.69,0,0,1-1.92-1.87,10.94,10.94,0,0,1-.94-1.68c-0.18-.38-0.34-0.76-0.48-1.12L310,587.44a15.51,15.51,0,0,1-7.4,2.69,6.9,6.9,0,0,1-2.76,1.83,11.7,11.7,0,0,1-4.11.66c-0.42,0-.82,0-1.21,0l-1.62-.11-0.51,0-0.25,0,0-.25,0-.51L292,590c-0.15-2-.33-4.83-0.5-7.62l-0.2.21h0a7,7,0,0,1-5.15,2.08h-0.07a11.55,11.55,0,0,1-1.52-.11l-1.3-.18-0.41-.05-0.2,0,0-.2-0.06-.24-0.12.41h0a11.23,11.23,0,0,1-1.33,3.05,6.11,6.11,0,0,1-3,2.38,6.61,6.61,0,0,1-1.65.38,13.46,13.46,0,0,1-1.39.06h-5.9l0.12-.38,0.22-.75,0.71-2.42h0c0.05-.17,1.49-5,3-10.32l0-.09,4-13.57,0.39-1.34,0.12-.42,0.06-.21h4.45a11,11,0,0,1,2,.15,5.26,5.26,0,0,1,2.36,1,5.94,5.94,0,0,1,1.85,2.65,9.45,9.45,0,0,1,.33,1.11c0.29-.58.51-1.06,0.65-1.32h0v0a3.65,3.65,0,0,1,.2-0.32h0a6.87,6.87,0,0,1,5.64-3.15h6.33l0,0.27,0,0.54,0.13,1.74h0s0.09,1.19.21,2.88c0,0.3,0,.62.07,1,0,0.15,0,.3,0,0.46l0.35-1h0v0h0a16.55,16.55,0,0,1,1-2.53h0a6.45,6.45,0,0,1,2.52-2.64,5.76,5.76,0,0,1,2.79-.69h0l2.86,0h0.45l0.87,0,1.65,0h0.1l5.63,0h0a7.93,7.93,0,0,1,5.7,2.78h0l1,1.2,3-1.67a14.37,14.37,0,0,1,7.45-2.28h16.52Z" transform="translate(-257.02 -431.45)"/>
    <path class="cls-1" d="M310,573.53l-1.82,4.21,3-1.7Zm9.52-2.48h0c-1.38-1.65-3.88-4.65-5.09-6.14,1.22,2.26,2.83,5.36,3.68,7l1.44-.81Zm28.81-8.55-3.25,2c-1.59,1-9.41,5.66-12.79,7.69h0l-0.29.17c2.86,3.21,11.23,12.61,13.18,14.9l1.51,1.79,0.16,0.2h-7.9a8.87,8.87,0,0,1-7.1-3.54l-5.9-7.05-0.11-.13-1.38-1.65-3,1.81c0.62,1.14,1.6,3,2.17,4,0.86,1.54,1.77,3.17,2.59,4.76l0.81,1.58,0.09,0.17h-7.08a4.17,4.17,0,0,1-3.44-1.77,9.48,9.48,0,0,1-1-1.66c-0.28-.59-0.51-1.17-0.71-1.71h0l-0.1-.27c-0.08-.22-0.2-0.5-0.34-0.79l-5.19,3.12a13.22,13.22,0,0,1-7.32,2.47,5.1,5.1,0,0,1-2.33,1.84,10.72,10.72,0,0,1-4.87.61l-0.94-.07h-0.1v-0.1l-0.07-.93c-0.25-3.23-.57-8.78-0.8-12.68l-0.63,1.24h0a19.61,19.61,0,0,1-.93,1.77,6.76,6.76,0,0,1-1.34,1.63,6,6,0,0,1-5,1.18l-0.75-.1-0.08,0,0-.08-0.16-.74c0-.18-0.81-3.71-1-4.46l-1.84,6.2c-0.54,1.77-1.24,3.62-3.36,4.42a5.43,5.43,0,0,1-1.41.3c-0.48,0-1,0-1.48,0H271.3l0-.15,0.41-1.39c0.12-.38,7-23.73,7.07-23.95l0.23-.76,0-.09h2.37a15.8,15.8,0,0,1,2.32.06,3.84,3.84,0,0,1,2,.75,4.22,4.22,0,0,1,1.31,1.84,13.71,13.71,0,0,1,.6,2.21v0l0.77,3.09c0.62-1.33,1.22-2.59,1.69-3.56,0.25-.53.46-1,0.63-1.29l0.21-.41,0.12-.21a5.29,5.29,0,0,1,4.34-2.45h4.88v0.11l0.08,1c0,0.15.48,6.61,0.84,11.56l2.84-7.83h0c0.16-.48.35-1,0.59-1.56a7.73,7.73,0,0,1,.89-1.58,4.08,4.08,0,0,1,3.43-1.73l3.28,0h2.54l5.7,0a6.4,6.4,0,0,1,4.55,2.25c0.6,0.68,1.32,1.55,1.83,2.16,1.26-.71,3.51-2,4.09-2.31a12.91,12.91,0,0,1,6.69-2.07h11Z" transform="translate(-257.02 -431.45)"/>
    <path class="cls-3" d="M309.94,572l-3.08,7.16,5-2.9Zm34.78-8c-1.75,1.08-11.21,6.73-13.73,8.24,2.22,2.49,11.59,13,13.67,15.44l0.82,1H338.9a7.84,7.84,0,0,1-3.85-1,9.71,9.71,0,0,1-2.78-2.37c-1.48-1.78-6.41-7.67-7.73-9.23l-4,2.37c0.54,1,1.77,3.29,2.45,4.51,0.87,1.55,1.77,3.16,2.57,4.74l0.43,0.85h-6.08a3.46,3.46,0,0,1-1.79-.47,4.22,4.22,0,0,1-1.26-1.18,8.62,8.62,0,0,1-.86-1.51c-0.24-.53-0.46-1.08-0.66-1.61v0l-0.09-.23c-0.15-.39-0.42-1-0.63-1.45l-5.78,3.47c-2.09,1.29-4.34,2.52-7.34,2.38a4.74,4.74,0,0,1-2.95,2.14,11.76,11.76,0,0,1-3.88.31l-0.51,0,0-.51c-0.3-3.94-.72-11.27-0.92-14.91l-1.66,3.24c-0.28.57-.56,1.16-0.89,1.71a6.17,6.17,0,0,1-1.25,1.51,4.45,4.45,0,0,1-1.89,1,7,7,0,0,1-2.67.07l-0.4-.05-0.09-.4c-0.05-.21-1-4.61-1-4.61l-0.48-2.19-2.52,8.49a9,9,0,0,1-1.06,2.48,3.92,3.92,0,0,1-1.92,1.54,4.82,4.82,0,0,1-1.32.26c-0.44,0-.91,0-1.38,0h-2.58l0.22-.76c0.07-.23,2.56-8.67,4.57-15.46,0-.07,0-0.15.07-0.22,1.32-4.47,2.41-8.18,2.44-8.27l0.13-.41h1.91a16.86,16.86,0,0,1,2.08,0,3.5,3.5,0,0,1,1.83.64,3.78,3.78,0,0,1,1.16,1.71,14.64,14.64,0,0,1,.54,2l1.2,4.77,1.2-2.56c0.48-1,1-2.06,1.36-2.86l0.48-1,0.16-.32,0.06-.11,0.05-.1a4.69,4.69,0,0,1,3.83-2.18h4.31l0,0.56c0,0.18.71,9.61,1.07,14.41l3.81-10.52c0.18-.51.36-1,0.58-1.53a7.63,7.63,0,0,1,.79-1.43,3.76,3.76,0,0,1,1.22-1.09,3.6,3.6,0,0,1,1.76-.43l3.27,0h0.34l0.17,0.29c0.69,1.2,2,3.73,3.19,5.94,0.79,1.5,1.5,2.87,1.88,3.6l2.64-1.48L318,568.31c-1.52-1.82-3.16-3.81-3.66-4.46l-0.72-.94h1.18l5.7,0a5,5,0,0,1,2.23.59,6.38,6.38,0,0,1,1.86,1.45c0.74,0.85,1.67,2,2.15,2.54,1.07-.61,3.87-2.18,4.54-2.56a12.1,12.1,0,0,1,6.38-2h8.83Z" transform="translate(-257.02 -431.45)"/>
    <path class="cls-1" d="M332.24,572.2c3.38-2,11.2-6.7,12.79-7.69l3.25-2,0.36-.22h-11a12.91,12.91,0,0,0-6.69,2.07c-0.58.34-2.83,1.6-4.09,2.31-0.51-.61-1.23-1.47-1.83-2.16a6.4,6.4,0,0,0-4.55-2.25l-5.7,0h-2.54l-3.28,0a4.08,4.08,0,0,0-3.43,1.73,7.72,7.72,0,0,0-.89,1.58c-0.24.54-.43,1.08-0.59,1.56h0L301.21,575c-0.37-4.95-.84-11.41-0.84-11.56l-0.08-1v-0.11H295.4a5.29,5.29,0,0,0-4.34,2.45l-0.12.22-0.2.4c-0.16.33-.37,0.77-0.62,1.3-0.47,1-1.07,2.24-1.7,3.57l-0.77-3.09v0a14.15,14.15,0,0,0-.6-2.21,4.24,4.24,0,0,0-1.31-1.84,3.85,3.85,0,0,0-2-.75,11.39,11.39,0,0,0-1.39-.08h-3.3l0,0.09-0.23.76c-0.06.22-6.95,23.56-7.07,23.95l-0.41,1.39,0,0.15H275c0.42,0,.84,0,1.25,0a5.44,5.44,0,0,0,1.4-.3c2.12-.8,2.82-2.65,3.36-4.42l1.84-6.2c0.16,0.75.93,4.27,1,4.46l0.16,0.74,0,0.08,0.08,0,0.75,0.1a9.67,9.67,0,0,0,1.31.09,5.45,5.45,0,0,0,3.74-1.28,6.73,6.73,0,0,0,1.35-1.63,19.5,19.5,0,0,0,.93-1.77h0l0.64-1.24c0.23,3.9.55,9.45,0.8,12.68l0.07,0.93v0.1h0.1l0.93,0.07c0.4,0,.78,0,1.14,0a9.66,9.66,0,0,0,3.73-.64,5.09,5.09,0,0,0,2.33-1.84H302a13.33,13.33,0,0,0,7.18-2.47l5.19-3.12c0.13,0.3.25,0.58,0.33,0.79l0.1,0.27h0c0.21,0.53.43,1.12,0.71,1.71a9.42,9.42,0,0,0,1,1.66,4.17,4.17,0,0,0,3.44,1.77H327l-0.09-.17-0.81-1.58c-0.81-1.59-1.73-3.22-2.59-4.76-0.57-1-1.55-2.84-2.17-4l3-1.81,1.38,1.65,0.11,0.13c2,2.4,4.85,5.78,5.9,7.05a8.88,8.88,0,0,0,7.1,3.54h7.9l-0.16-.2-1.51-1.79c-1.95-2.28-10.32-11.68-13.18-14.9l0.29-.17h0Zm-12.75-1.12-1.44.81c-0.85-1.63-2.46-4.73-3.68-7,1.21,1.5,3.71,4.5,5.09,6.14h0Zm-8.39,5-3,1.7,1.81-4.21Z" transform="translate(-257.02 -431.45)"/>
    <path class="cls-3" d="M309.92,570.58l2.74,5.95-7,4Zm27.73-7.09a11.54,11.54,0,0,0-6.09,1.91l-5,2.8s-1.42-1.72-2.45-2.91a5.21,5.21,0,0,0-3.64-1.83l-5.7,0c1,1.27,6.56,7.92,6.56,7.92l-3.79,2.13s-4-7.67-5.33-10.05l-3.27,0c-2.32,0-3.08,2.05-3.79,4.08l-4.75,13.11-1.27-17.16H295.4a4.11,4.11,0,0,0-3.34,1.91c-0.22.34-4,8.37-4,8.37l-1.61-6.38c-0.29-1.37-.57-2.67-1.48-3.39s-2.12-.59-3.55-0.56H280c-0.07.23-7,23.56-7.07,24h1.43a8.35,8.35,0,0,0,2.85-.25c1.45-.55,2.06-1.75,2.63-3.64L283,572.82l1,4.43s1,4.4,1,4.6c3.92,0.54,5-1.64,6.09-3.94l2.66-5.16s0.63,11.69,1,17.06c2.36,0.15,5.33-.14,6.4-2.37l0-.1h0.1c2.95,0.21,5.12-1,7.28-2.27l6.35-3.82s0.64,1.39.91,2.08c0.85,2.17,1.71,4.65,4.12,4.65h5.12c-0.8-1.56-1.69-3.17-2.57-4.72s-2.72-5-2.72-5l4.89-2.92s6.34,7.56,8.06,9.62a7.75,7.75,0,0,0,6.17,3.11h5.31c-2.36-2.78-14.13-16-14.13-16s12.31-7.35,14.33-8.6h-6.76Z" transform="translate(-257.02 -431.45)"/>
    <g>
      <path class="cls-4" d="M293.62,551.38h0c0-.07,0-0.19,0-0.31a3.7,3.7,0,0,0-.14-0.66,3.63,3.63,0,0,0-3.47-2.64,3.55,3.55,0,0,0-.49,0,3.69,3.69,0,0,0-3.17,4.22,3.61,3.61,0,0,0,3.65,3.21l0.49,0a3.74,3.74,0,0,0,2.53-1.35,0.23,0.23,0,0,0,0-.16,0.19,0.19,0,0,0-.08-0.13c-0.11-.08-0.5-0.27-0.71-0.37l-0.14-.07a0.33,0.33,0,0,0-.15,0,0.19,0.19,0,0,0-.15.08,2.37,2.37,0,0,1-1.5.82L290,554a2.46,2.46,0,0,1-2.29-1.58v0h0a2.91,2.91,0,0,1,1.21-.24h0.26l0.61,0.07a9.08,9.08,0,0,0,1.26.1,6.19,6.19,0,0,0,.86-0.06,4.46,4.46,0,0,0,1.59-.54,0.3,0.3,0,0,0,.14-0.35m-1.29-.47a4.35,4.35,0,0,1-.76.15,4.14,4.14,0,0,1-.52,0c-0.33,0-.69,0-1-0.06h0c-0.32,0-.63,0-0.92,0a4.7,4.7,0,0,0-.59,0,4.38,4.38,0,0,0-1,.24v0a2.52,2.52,0,0,1,2.15-2.19l0.32,0a2.58,2.58,0,0,1,2.38,1.86v0h0Z" transform="translate(-257.02 -431.45)"/>
      <g>
        <rect class="cls-4" x="53.15" y="116.56" width="1.29" height="7.05" rx="0.17" ry="0.17"/>
        <path class="cls-4" d="M310.81,545.62a0.85,0.85,0,1,0,.85.85,0.85,0.85,0,0,0-.85-0.85" transform="translate(-257.02 -431.45)"/>
      </g>
      <path class="cls-4" d="M298.29,555.24h0.18a3.54,3.54,0,0,0,2.54-1,3.74,3.74,0,0,0,1.05-2.66,3.7,3.7,0,0,0-3.71-3.78,3.65,3.65,0,0,0-3.56,2.77,8.56,8.56,0,0,0-.15,1.72v5.26a0.17,0.17,0,0,0,.17.17h0.93a0.18,0.18,0,0,0,.18-0.18V554.2l0,0a3.72,3.72,0,0,0,2.32,1m0-6.2a2.42,2.42,0,0,1,2.38,2.5,2.34,2.34,0,0,1-2.31,2.48,2.48,2.48,0,0,1-1.73-.67,2.41,2.41,0,0,1-.72-1.77,2.47,2.47,0,0,1,2.38-2.54" transform="translate(-257.02 -431.45)"/>
      <path class="cls-4" d="M281.5,555.24h0.18a3.55,3.55,0,0,0,2.54-1,3.81,3.81,0,0,0-2.66-6.43,3.65,3.65,0,0,0-3.56,2.77,8.4,8.4,0,0,0-.15,1.72v5.26a0.17,0.17,0,0,0,.17.17h0.94a0.18,0.18,0,0,0,.18-0.18V554.2l0,0a3.72,3.72,0,0,0,2.33,1m0-6.2a2.42,2.42,0,0,1,2.38,2.5,2.34,2.34,0,0,1-2.31,2.48,2.47,2.47,0,0,1-1.73-.67,2.4,2.4,0,0,1-.72-1.77,2.47,2.47,0,0,1,2.38-2.54" transform="translate(-257.02 -431.45)"/>
      <path class="cls-4" d="M303,554.06a4,4,0,0,0,2.86,1.17h0c2,0,2.88-1.1,2.88-2.18a2.1,2.1,0,0,0-1.83-2l-0.43-.08c-0.35-.07-0.71-0.14-1-0.23a0.95,0.95,0,1,1,.35-1.82,2.28,2.28,0,0,1,1.56.54,0.31,0.31,0,0,0,.19.08,0.29,0.29,0,0,0,.17-0.06,6.35,6.35,0,0,0,.64-0.55,0.19,0.19,0,0,0,.06-0.15,0.27,0.27,0,0,0-.1-0.17,3.77,3.77,0,0,0-2.55-.86h0a2.4,2.4,0,0,0-2.62,2.23c0,1,.83,1.73,2.33,2l0.94,0.18a1,1,0,0,1,1,.9,1.28,1.28,0,0,1-1.46.91,2.83,2.83,0,0,1-1.93-.78h0a0.23,0.23,0,0,0-.15-0.08,0.24,0.24,0,0,0-.14.06c-0.06,0-.69.54-0.75,0.61a0.15,0.15,0,0,0,0,.11,0.23,0.23,0,0,0,.08.14" transform="translate(-257.02 -431.45)"/>
    </g>
    <path class="cls-1" d="M356.83,581.24a4.84,4.84,0,1,1-4.77,4.85A4.82,4.82,0,0,1,356.83,581.24Zm0,8.83a4,4,0,1,0-3.94-4A3.94,3.94,0,0,0,356.83,590.07Zm0.75-3.29a1.45,1.45,0,0,0,1.05-1.5,1.51,1.51,0,0,0-1.56-1.59h-1.88v4.84h1v-1.67h0.31l1.21,1.67h1.15Zm-0.51-2.16a0.65,0.65,0,0,1,0,1.3h-0.9v-1.3h0.93Z" transform="translate(-257.02 -431.45)"/>
  </g>
  <g>
    <path class="cls-5" d="M349.78,524.22a54.34,54.34,0,1,1,0-76.85,54.33,54.33,0,0,1,0,76.85" transform="translate(-257.02 -431.45)"/>
    <path class="cls-3" d="M341.6,445.44a50.43,50.43,0,0,0-70.82,70.28,104.69,104.69,0,0,0,70.82-70.28" transform="translate(-257.02 -431.45)"/>
    <path class="cls-6" d="M353.67,458.37a35.17,35.17,0,0,1-12.93,38.88c-15.23,11.21-37.42,11.22-68.05,20.88a50.41,50.41,0,0,0,81-59.76" transform="translate(-257.02 -431.45)"/>
  </g>
</svg>
