<svg id="Pepsi_Sq" data-name="Pepsi Sq" xmlns="http://www.w3.org/2000/svg" viewBox="0 0 108.68 149.7">
  <defs>
    <style>
      .cls-1 {
        fill: #fff;
      }

      .cls-2 {
        fill: #004a97;
      }

      .cls-3 {
        fill: #eb0029;
      }
    </style>
  </defs>
  <title>PEPSI_S1_2PMS_NB_ALL_2C</title>
  <path class="cls-1" d="M308.61,565.34v0c0-.18,0-0.46-0.08-0.77a9.83,9.83,0,0,0-.36-1.64,9.1,9.1,0,0,0-8.69-6.61,9.25,9.25,0,0,0-9.16,10.67,9.06,9.06,0,0,0,9.14,8.06,10.4,10.4,0,0,0,1.22-.08,9.35,9.35,0,0,0,6.33-3.39,0.57,0.57,0,0,0,.12-0.4,0.48,0.48,0,0,0-.21-0.32c-0.28-.2-1.26-0.67-1.79-0.93l-0.36-.17a0.81,0.81,0,0,0-.38-0.12,0.49,0.49,0,0,0-.37.21,5.91,5.91,0,0,1-3.76,2.06,6.65,6.65,0,0,1-.79.05,6.15,6.15,0,0,1-5.74-4l0-.06,0.05,0a7.25,7.25,0,0,1,3-.61c0.21,0,.43,0,0.64,0,0.5,0,1,.1,1.52.17a22.71,22.71,0,0,0,3.15.26,15.18,15.18,0,0,0,2.16-.15,11.16,11.16,0,0,0,4-1.36,0.74,0.74,0,0,0,.36-0.87m-3.23-1.17a11.24,11.24,0,0,1-1.91.39,10.79,10.79,0,0,1-1.3.07c-0.83,0-1.74-.07-2.61-0.13h0c-0.81-.06-1.58-0.12-2.31-0.12a10.89,10.89,0,0,0-1.47.09,11,11,0,0,0-2.46.6v-0.11a6.31,6.31,0,0,1,5.38-5.48,7,7,0,0,1,.79,0,6.48,6.48,0,0,1,6,4.66l0,0.07Z" transform="translate(-257.02 -431.45)"/>
  <path class="cls-1" d="M93.5,125.45h2.37a0.43,0.43,0,0,1,.43.43v16.8a0.43,0.43,0,0,1-.43.43H93.5a0.44,0.44,0,0,1-.44-0.44v-16.8A0.43,0.43,0,0,1,93.5,125.45Z"/>
  <path class="cls-1" d="M351.71,550.91a2.13,2.13,0,1,0,2.13,2.13,2.14,2.14,0,0,0-2.13-2.13" transform="translate(-257.02 -431.45)"/>
  <path class="cls-1" d="M320.33,575h0.45a8.85,8.85,0,0,0,6.36-2.63,9.54,9.54,0,0,0-6.67-16.12,9.17,9.17,0,0,0-8.93,7,21.62,21.62,0,0,0-.38,4.3v13.18a0.44,0.44,0,0,0,.43.44h2.35a0.44,0.44,0,0,0,.44-0.44v-8.31l0.13,0.12a9.32,9.32,0,0,0,5.83,2.48m0.1-15.55a6.06,6.06,0,0,1,6,6.28,5.87,5.87,0,0,1-5.79,6.21,6.22,6.22,0,0,1-4.34-1.68,6,6,0,0,1-1.81-4.42,6.2,6.2,0,0,1,6-6.38" transform="translate(-257.02 -431.45)"/>
  <path class="cls-1" d="M278.23,575h0.45a8.87,8.87,0,0,0,6.36-2.63,9.54,9.54,0,0,0-6.67-16.12,9.17,9.17,0,0,0-8.93,7,21,21,0,0,0-.38,4.3v13.18a0.44,0.44,0,0,0,.43.44h2.35a0.44,0.44,0,0,0,.44-0.44v-8.31l0.12,0.12a9.33,9.33,0,0,0,5.83,2.48m0.1-15.55a6.06,6.06,0,0,1,6,6.28,5.88,5.88,0,0,1-5.79,6.21,6.2,6.2,0,0,1-4.34-1.68,6,6,0,0,1-1.81-4.42,6.2,6.2,0,0,1,6-6.38" transform="translate(-257.02 -431.45)"/>
  <path class="cls-1" d="M332,572.07A10.13,10.13,0,0,0,339.2,575h0.09c5,0,7.22-2.76,7.22-5.45,0-3.72-3.51-4.73-4.58-5l-1.07-.21c-0.87-.17-1.77-0.34-2.6-0.57-0.57-.15-2.45-0.78-2.45-2.18s1.71-2.37,3.32-2.37a5.7,5.7,0,0,1,3.92,1.35,0.73,0.73,0,0,0,.46.19,0.67,0.67,0,0,0,.43-0.16,17.71,17.71,0,0,0,1.61-1.39,0.49,0.49,0,0,0,.16-0.38,0.65,0.65,0,0,0-.24-0.43,9.47,9.47,0,0,0-6.39-2.16h0c-3.75,0-6.58,2.41-6.58,5.59,0,2.53,2.08,4.32,5.85,5.06l2.36,0.45c1.55,0.29,2.42,1.11,2.39,2.26s-1.41,2.29-3.67,2.29a7.1,7.1,0,0,1-4.84-2l0,0a0.46,0.46,0,0,0-.71,0c-0.14.12-1.72,1.36-1.89,1.54a0.33,0.33,0,0,0-.1.26,0.54,0.54,0,0,0,.18.36" transform="translate(-257.02 -431.45)"/>
  <path class="cls-1" d="M349.78,524.22a54.34,54.34,0,1,1,0-76.85,54.33,54.33,0,0,1,0,76.85" transform="translate(-257.02 -431.45)"/>
  <path class="cls-2" d="M353.66,458.37a35.16,35.16,0,0,1-12.93,38.88c-15.23,11.21-37.42,11.22-68.05,20.88a50.41,50.41,0,0,0,81-59.76" transform="translate(-257.02 -431.45)"/>
  <path class="cls-3" d="M341.6,445.44a50.43,50.43,0,0,0-70.82,70.28,104.69,104.69,0,0,0,70.82-70.28" transform="translate(-257.02 -431.45)"/>
  <path class="cls-1" d="M358.84,566.66a4,4,0,1,1-4,4A4,4,0,0,1,358.84,566.66Zm0,7.31a3.3,3.3,0,1,0-3.26-3.3A3.26,3.26,0,0,0,358.84,574Zm0.61-2.72a1.2,1.2,0,0,0,.87-1.24,1.24,1.24,0,0,0-1.29-1.32h-1.55v4h0.79v-1.38h0.26l1,1.38h1ZM359,569.46a0.54,0.54,0,0,1,0,1.07h-0.75v-1.07H359Z" transform="translate(-257.02 -431.45)"/>
</svg>
