<svg id="Layer_1" data-name="Layer 1" xmlns="http://www.w3.org/2000/svg" viewBox="0 0 178.57 273.33">
  <defs>
    <style>
      .cls-1 {
        fill: #7dc57a;
      }

      .cls-2 {
        fill: #57a854;
      }

      .cls-3 {
        fill: #e8586a;
      }

      .cls-3, .cls-4, .cls-5 {
        fill-rule: evenodd;
      }

      .cls-4 {
        fill: #b51f30;
      }

      .cls-5 {
        fill: #d61f34;
      }

      .cls-6 {
        fill: #ed5f7b;
      }
    </style>
  </defs>
  <title>raspberry</title>
  <g>
    <g>
      <path class="cls-1" d="M-112.65-12.43c-8.43-12.72,6.6-36.83,16.91-43.9,11.09-7.6,35-16.76,47.87-13.5-0.58,17.19-8.55,37-20.79,49.22-8.4,8.37-28.5,20.16-40.21,12A14.22,14.22,0,0,1-112.65-12.43Z" transform="translate(215.32 70.51)"/>
      <path class="cls-2" d="M-86.45-26.52H-86.5c-9.84.27-40.87-5.83-23.7,14.19,3.72,4.33,8.31,5.92,13.93,5.51,10.22-.74,21.4-7.75,28.46-14.79,3-3,5.81-6,7.24-9.95A77.17,77.17,0,0,1-86.45-26.52Z" transform="translate(215.32 70.51)"/>
    </g>
    <g>
      <path class="cls-1" d="M-133.43-3.41c8.06-7.35,1.83-26.68-4.09-33.37-6.37-7.2-21.34-17.7-30.84-17.69-2.58,12-.51,27.16,5.85,37.74,4.37,7.26,16.25,18.93,25.79,15.31A10.17,10.17,0,0,0-133.43-3.41Z" transform="translate(215.32 70.51)"/>
      <path class="cls-2" d="M-149.15-17.73h0c6.77,1.9,29.35,3.07,14,14a11.14,11.14,0,0,1-10.61,1.4c-7-2.29-13.49-9.1-17.16-15.2-1.57-2.6-3-5.2-3.29-8.16A55.1,55.1,0,0,0-149.15-17.73Z" transform="translate(215.32 70.51)"/>
    </g>
    <path class="cls-3" d="M-125.15,25.59c6,0.13,12.15,2.09,16,6.78,5.55,6.82,5.53,24.36.72,31.56-11,16.44-37.48,11.93-44.48-6.8C-158.75,41.57-144.39,28-130,25.89A30,30,0,0,1-125.15,25.59Z" transform="translate(215.32 70.51)"/>
    <path class="cls-3" d="M-170.77,7.49c17.69-3.72,26.46,8.42,23,24.16-4,18-36.66,17.53-36.9-5.77C-184.75,16.82-180,9.44-170.77,7.49Z" transform="translate(215.32 70.51)"/>
    <path class="cls-4" d="M-123.91,175.65c10.61-2.23,15.87,5,13.8,14.49-2.37,10.81-22,10.52-22.13-3.46C-132.3,181.24-129.46,176.81-123.91,175.65Z" transform="translate(215.32 70.51)"/>
    <path class="cls-4" d="M-52.83,68.67c10.61-2.23,15.87,5,13.8,14.49C-41.39,94-61,93.68-61.15,79.7-61.21,74.27-58.37,69.84-52.83,68.67Z" transform="translate(215.32 70.51)"/>
    <path class="cls-3" d="M-69.48,18.05c10.61-2.23,15.87,5,13.8,14.49-2.37,10.81-22,10.52-22.13-3.46C-77.87,23.64-75,19.22-69.48,18.05Z" transform="translate(215.32 70.51)"/>
    <path class="cls-3" d="M-98.91,170.77c15.39-3.23,23,7.32,20,21-3.44,15.67-31.88,15.25-32.08-5C-111.06,178.87-107,172.46-98.91,170.77Z" transform="translate(215.32 70.51)"/>
    <path class="cls-3" d="M-149.62,152.22c17.69-3.72,26.46,8.42,23,24.16-4,18-36.66,17.53-36.89-5.77C-163.6,161.55-158.88,154.17-149.62,152.22Z" transform="translate(215.32 70.51)"/>
    <path class="cls-5" d="M-108.17,10.75C-92.88,6.28-81.11,31.95-95,39.37-111.65,48.24-129.14,16.89-108.17,10.75Z" transform="translate(215.32 70.51)"/>
    <path class="cls-5" d="M-185.68,36.19A30.7,30.7,0,0,1-166,38.08c12.5,5.73,20.38,27.55,16.7,40.64-4.1,14.57-19.89,20.83-29.48,21.14-22.1.72-31.41-16.89-30.74-36.39C-209.05,49.38-198.31,39.06-185.68,36.19Z" transform="translate(215.32 70.51)"/>
    <path class="cls-4" d="M-85.89,34.69c15.53-2.09,31.18,10.52,32.12,29,0.91,17.88-19,34-35.42,27.36-18.48-7.5-27.12-33.59-12.49-48.23A27.33,27.33,0,0,1-85.89,34.69Z" transform="translate(215.32 70.51)"/>
    <path class="cls-5" d="M-63.41,141.55c13-1.51,25.07,7.88,26.61,23.09,0.71,7-5.91,17.83-11.55,21.52A23.49,23.49,0,0,1-69.52,188c-10.71-4.31-16.49-19.37-13.8-30.29C-81.16,148.92-72,142.55-63.41,141.55Z" transform="translate(215.32 70.51)"/>
    <path class="cls-5" d="M-127.19,75.49c12.69-3.35,25.94,4.23,29.63,19.07,1.71,6.87-3.31,18.49-8.37,23a23.49,23.49,0,0,1-20.69,4.8c-11.22-2.74-19.08-16.82-18-28C-143.7,85.32-135.58,77.71-127.19,75.49Z" transform="translate(215.32 70.51)"/>
    <path class="cls-4" d="M-173.25,100.22c22.18-5.06,36,8,38.31,28.87,4.55,40.52-62.76,36.45-62,4.23C-196.74,124.19-182.19,102.26-173.25,100.22Z" transform="translate(215.32 70.51)"/>
    <path class="cls-5" d="M-79.93,91c18.27-9,34.85-2.49,40.33,15.78,10.29,34.35-50.23,44.83-54.87,16.51C-95.81,115.19-87.15,94.52-79.93,91Z" transform="translate(215.32 70.51)"/>
    <path class="cls-4" d="M-113.84,125.25c19.93-5.33,36.37,14.79,30,31.14C-90.7,174-117.95,174-129,160.67c-10.35-12.44-2.62-29.23,13.15-34.79C-115.2,125.64-114.52,125.43-113.84,125.25Z" transform="translate(215.32 70.51)"/>
    <path class="cls-6" d="M-93.6,96.93a24.64,24.64,0,0,1-23.83,23.29c-12.75.39-23.15-12-24.37-23.9-1.33-12.9,12.33-20.55,23.48-21.24,13.32-.83,24.58,8.25,24.72,21.85a0.68,0.68,0,0,0,1.35-.06c-0.15-14.32-11.33-23-25.06-23.17-12.28-.17-25.75,8.36-25.9,21.49s11.92,25.52,24.82,26.35c13.82,0.89,25.58-11.43,26.14-24.68C-92.21,96-93.56,96.06-93.6,96.93Z" transform="translate(215.32 70.51)"/>
    <path class="cls-6" d="M-149.52,66.75c-0.71,16.84-14.78,30.37-31.61,30.88s-30.7-15.94-32.32-31.7c-1.76-17.1,16.35-27.25,31.15-28.17,17.67-1.1,32.6,10.94,32.79,29a0.9,0.9,0,0,0,1.79-.08c-0.2-19-15-30.48-33.24-30.73-16.29-.23-34.15,11.09-34.35,28.5s15.81,33.85,32.92,35c18.33,1.18,33.93-15.17,34.66-32.73C-147.68,65.52-149.47,65.61-149.52,66.75Z" transform="translate(215.32 70.51)"/>
    <path class="cls-6" d="M-60.62,65.21A22,22,0,0,1-81.87,86c-11.37.35-20.64-10.72-21.74-21.31-1.19-11.5,11-18.32,20.94-18.94,11.88-.74,21.92,7.36,22,19.49a0.6,0.6,0,0,0,1.21-.05c-0.13-12.77-10.11-20.5-22.35-20.66-11-.15-23,7.45-23.1,19.17s10.63,22.76,22.14,23.5C-70.4,88-59.91,77-59.41,65.16-59.38,64.38-60.58,64.44-60.62,65.21Z" transform="translate(215.32 70.51)"/>
  </g>
</svg>
