<svg id="MAIN_ART_LOGOS" data-name="MAIN ART/LOGOS" xmlns="http://www.w3.org/2000/svg" viewBox="0 0 166.09 106.7">
  <defs>
    <style>
      .cls-1 {
        fill: #fdbb30;
      }

      .cls-2 {
        fill: #008752;
      }
    </style>
  </defs>
  <title>tropicana-lemonade_logo</title>
  <g>
    <g>
      <path class="cls-1" d="M227.15,279.83V266.34h-4v13.49c0,3.9,2.89,7.2,6.31,7.2h9.75v-4.14h-9.75C228.23,282.88,227.15,281.43,227.15,279.83Z" transform="translate(-223.1 -180.33)"/>
      <path class="cls-1" d="M241.16,272.42v8.33c0,3.46,2.47,6.28,5.5,6.28h10.57v-4.18H246.66c-0.79,0-1.49-1-1.49-2.1v-2l7.1,0h1.52v-4.15h-8.62v-2.21a1.75,1.75,0,0,1,1.55-1.9h10.5v-4.18H246.66C243.63,266.34,241.16,269.06,241.16,272.42Z" transform="translate(-223.1 -180.33)"/>
      <path class="cls-1" d="M281.56,266.3h-5.45a6,6,0,0,0-4.36,2,6.07,6.07,0,0,0-4.4-2H266c-3.46,0-6.38,3.28-6.38,7.16V287h4V273.46c0-1.59,1.11-3,2.37-3h1.33a2.71,2.71,0,0,1,2.37,2.73l0,13.81h4.08V273.5c0-1.56,1.09-2.94,2.34-2.94h5.45c1.26,0,2.4,1.4,2.4,2.94V287h4V273.5C288,269.59,285,266.3,281.56,266.3Z" transform="translate(-223.1 -180.33)"/>
      <path class="cls-1" d="M302,266.3h-5.31c-3.42,0-6.31,3.28-6.31,7.16v6.13c0,4.31,2.66,7.44,6.31,7.44H302c3,0,6.31-3,6.31-7.44v-6.13C308.34,269.58,305.45,266.3,302,266.3Zm-0.65,16.52-0.08.07c-1-.05-2.54-0.08-4.58-0.08-1.7,0-2.3-1.73-2.3-3.22v-6.13c0-1.56,1.1-3,2.3-3H302c1.21,0,2.3,1.42,2.3,3v6.13c0,1.75-1.08,3.19-2.4,3.22h-0.56Z" transform="translate(-223.1 -180.33)"/>
      <path class="cls-1" d="M322.46,266.3h-5.35c-3.44,0-6.35,3.3-6.35,7.2V287h4V273.5c0-1.54,1.1-2.94,2.3-2.94h5.35c1.24,0,2.37,1.4,2.37,2.94V287h4V273.5C328.81,269.59,325.9,266.3,322.46,266.3Z" transform="translate(-223.1 -180.33)"/>
      <path class="cls-1" d="M342.75,266.34h-5.21c-3.42,0-6.31,3.28-6.31,7.16V287h4v-5.45h10V287h4V273.5C349.3,270,346.67,266.34,342.75,266.34Zm-7.51,7.16c0-1.56,1.1-3,2.3-3h5.21a2.83,2.83,0,0,1,2.51,3.06v3.82h-10v-3.9Z" transform="translate(-223.1 -180.33)"/>
      <path class="cls-1" d="M363.36,266.34H351.73V287h11.63c3,0,6.31-3,6.31-7.44V273.5C369.67,269.62,366.78,266.34,363.36,266.34Zm-7.59,4.22h7.59c1.21,0,2.3,1.42,2.3,3v6.09c0,1.74-1.09,3.22-2.37,3.22h-7.54Z" transform="translate(-223.1 -180.33)"/>
      <path class="cls-1" d="M377.66,270.52h10.5v-4.18H377.59c-3,0-5.5,2.73-5.5,6.08v8.33c0,3.46,2.47,6.28,5.5,6.28h10.57v-4.18H377.59c-0.79,0-1.48-1-1.48-2.1v-2c2.44,0,7.1,0,7.1,0h1.52v-4.15H376.1v-2.21A1.75,1.75,0,0,1,377.66,270.52Z" transform="translate(-223.1 -180.33)"/>
    </g>
    <g>
      <g>
        <g>
          <path class="cls-2" d="M355.89,221.18v17.28h6.62V220.35c0-6.53-3.59-9.06-8.72-8.68a17.23,17.23,0,0,0-8.73,3.32v23.48h6.63V218.65C352.62,217.26,355.88,216.61,355.89,221.18Z" transform="translate(-223.1 -180.33)"/>
          <path class="cls-2" d="M334,211.56c-2.13,0-5.3.58-7.18,2.06v6.23a7.72,7.72,0,0,1,7.44-2.37c1.89,0.55,1.7,2.82,1.7,3.16-5.82,1.44-11.38,3.54-11.23,10.36s5,8.08,9.77,8.08,8.1-.5,8.1-7.52V220.64C342.55,211.6,336.1,211.56,334,211.56Zm2,20.13v1.05c0,1.51-4.71,2.05-4.71-2.21,0-3.25,3-4.48,4.71-5.14v6.3Z" transform="translate(-223.1 -180.33)"/>
          <path class="cls-2" d="M373.73,211.56c-2.12,0-5.3.58-7.17,2.06v6.23a7.74,7.74,0,0,1,7.45-2.37c1.88,0.55,1.71,2.82,1.71,3.16-5.84,1.44-11.43,3.54-11.25,10.36s5,8.08,9.76,8.08,8.11-.5,8.11-7.52V220.64C382.33,211.6,375.88,211.56,373.73,211.56Zm2,20.13v1.05c0,1.51-4.74,2.05-4.74-2.21,0-3.25,3-4.48,4.74-5.14v6.3Z" transform="translate(-223.1 -180.33)"/>
          <path class="cls-2" d="M299.31,211.94V236a2.29,2.29,0,0,0,2.32,2.45H307a6.73,6.73,0,0,1-.87-3.47V210.87C304.81,211.47,303.28,211.81,299.31,211.94Z" transform="translate(-223.1 -180.33)"/>
          <path class="cls-2" d="M286.79,211.28c-2,0-6.07,1.09-8.08,3.33v33.27s4.3-.94,5-1.14,1.69-.81,1.69-2.71v-5.69a6.47,6.47,0,0,0,2.9.56c4.78,0,9-4,9-13.74S292.87,211.28,286.79,211.28Zm3.8,13.67c0,3.37-.43,6.16-1.75,7.45a2.68,2.68,0,0,1-3.43,0v-15a2.67,2.67,0,0,1,3.43.05c1.32,1.29,1.75,4.07,1.75,7.44v0Z" transform="translate(-223.1 -180.33)"/>
          <path class="cls-2" d="M267.32,211.32c-2.81,0-9.46,1.77-9.46,13.86s6.73,13.8,9.46,13.8,9.47-1.69,9.47-13.8S270.15,211.32,267.32,211.32Zm0,22.15c-1.73,0-2.67-3-2.67-8.32s1.14-8,2.67-8,2.68,2.85,2.68,8S269.07,233.47,267.32,233.47Z" transform="translate(-223.1 -180.33)"/>
          <path class="cls-2" d="M245.23,213.44V235.7a2.65,2.65,0,0,0,2.71,2.77h5.23c-0.62-.62-1-2.42-1-4V218c1-1.14,3.63-.71,5,0.19v-6c0-.21-2.65-0.89-5.07-0.89a12.15,12.15,0,0,0-6.86,2.13h0Z" transform="translate(-223.1 -180.33)"/>
          <path class="cls-2" d="M233.5,211.47v35.85s3.8-.91,5.94-1.52c2.46-.69,2.38-1.8,2.38-4V209.93c7.66-1.58,13.85-3.63,15.89-13.86a18.86,18.86,0,0,1-6.91,3.38c-3.32,1-6.92,1.54-9.79,2.1-6.21,1.2-14.83,1.63-17.67,14.11A22.56,22.56,0,0,1,233.5,211.47Z" transform="translate(-223.1 -180.33)"/>
          <path class="cls-2" d="M308.25,224.95c0,6.06,2.19,10.51,6.38,12.86,3.06,1.72,7.34.78,8.35-.2v-6.79a4.11,4.11,0,0,1-3.13,1.67c-1.35,0-4.51-.93-4.51-7.54s3.16-7.53,4.51-7.53a4.15,4.15,0,0,1,3.13,1.67v-6.79c-1-1-5.28-1.9-8.35-.19C310.44,214.46,308.25,218.9,308.25,224.95Z" transform="translate(-223.1 -180.33)"/>
        </g>
        <path class="cls-2" d="M281.3,204.77c-0.17.12-.24,0-0.11-0.14,1-1.47,3.59-2.72,5.92-3.17,2.93-.57,5.58,0,10.19-1.4a14.88,14.88,0,0,0,9.37-7.75,20.07,20.07,0,0,1-14.53,7.65c-0.49-4.65,1.45-8.11,6.56-10.79,4.83-2.53,12.26-3.93,14.65-8.83,1.18,8.75-.19,16.32-5,21.14-4.39,4.3-10.12,3.8-14.57,2.37C289.92,202.59,285.4,201.81,281.3,204.77Z" transform="translate(-223.1 -180.33)"/>
      </g>
      <path class="cls-2" d="M389.2,236.19a2.79,2.79,0,1,1-2.77-2.63A2.7,2.7,0,0,1,389.2,236.19Zm-4.81,0a2,2,0,0,0,2,2A2,2,0,1,0,384.39,236.21Zm1.65,1.31h-0.71V235a5,5,0,0,1,1.06-.09,1.52,1.52,0,0,1,1,.2,0.59,0.59,0,0,1,.27.54,0.69,0.69,0,0,1-.56.59v0a0.79,0.79,0,0,1,.51.65,2.76,2.76,0,0,0,.16.61H387a1.68,1.68,0,0,1-.18-0.59,0.44,0.44,0,0,0-.5-0.37H386v1Zm0-1.44h0.24c0.32,0,.55-0.11.55-0.34s-0.17-.35-0.49-0.35h-0.31v0.68Z" transform="translate(-223.1 -180.33)"/>
    </g>
  </g>
</svg>
